<?xml version="1.0" encoding="UTF-8"?><svg id="Capa_1" xmlns="http://www.w3.org/2000/svg" viewBox="0 0 1080 1080"><defs><style>.cls-1{fill:#fff;stroke-width:0px;}</style></defs><g id="layer1"><g id="g973"><path id="path828" class="cls-1" d="m540.01,118l-34.9,158.71v348.62l-158.65,81.26,160.29,82.1v35.94l-92.12,62.11v89.26h28.33l46.51-51.07,50.55,51.07,50.55-51.08,46.5,51.08h28.32s0-89.26,0-89.26l-92.11-62.11v-35.94l160.27-82.1-158.64-81.26v-348.62l-34.9-158.71Z"/><g id="g917"><path id="path866" class="cls-1" d="m694.99,414.08l-19.51,88.77v162.36l39.03,19.99v-182.35l-19.53-88.77Z"/><path id="path868" class="cls-1" d="m619.83,266.39l-27.12,123.4v233.03l54.26,27.78v-260.81l-27.14-123.4Z"/><path id="path874" class="cls-1" d="m385.03,414.08l-19.53,88.77v182.35l39.03-19.99v-162.36l-19.51-88.77Z"/><path id="path876" class="cls-1" d="m460.17,266.39l-27.12,123.4v260.81l54.26-27.78v-233.03l-27.14-123.4Z"/></g><g id="g962"><path id="path898" class="cls-1" d="m663.16,805.97l-42.72,21.88-42.72-21.88,42.72-21.88,42.72,21.88Z"/><path id="path958" class="cls-1" d="m502.28,805.97l-42.72,21.88-42.72-21.88,42.72-21.88,42.72,21.88Z"/></g></g></g></svg>