<?xml version="1.0" encoding="UTF-8"?><svg id="Capa_1" xmlns="http://www.w3.org/2000/svg" viewBox="0 0 1080 1080"><defs><style>.cls-1{fill:#fff; stroke-miterlimit:15.12;stroke-width:1.84px;}.cls-1,.cls-2{stroke:#fff;}.cls-2{fill:none;stroke-miterlimit:11.11;stroke-width:1.84px;}</style></defs><g id="layer1"><path id="path838" class="cls-1" d="m700.48,157.1c-36.02-.15-57.13,25.53-91.69,56.19-38.24,33.92-68.52,69.22-68.52,69.22,0,0-6.95-7.6-18.38-19.55-11.42-11.95-27.32-28.25-45.21-45.64-17.33-16.85-34.07-30.9-50.93-42.95-16.51-11.8-26.4-16.97-43.72-16.87-13.34.08-20.4,5.36-29.16,15.35-8.76,9.99-19.23,21.01-26.39,30.8-14.33,19.57-25.31,41.01-35.46,61.05-20.32,40.08-39.51,77.33-41.62,158.98-.34,13.09,5.39,23.78,11.39,34.94,6,11.16,12.26,22.79,19.57,33.82,7.31,11.04,13.86,22.28,20.63,33.43,6.77,11.15,13.76,22.21,21.94,32.88,17.42,22.71,34.03,44.71,49.42,67.28.48-.95.95-1.92,1.43-2.87,4.05-7.92,8.23-15.79,12.77-23.44,4.6-7.76,10.21-14.89,14.62-22.75,3.29-5.85,8.78-11.39,8.82-18.11.01-1.63-1.07-3.14-2.09-4.41-2.63-3.26-6.49-5.33-9.98-7.66-5.79-3.87-12.14-6.84-18.1-10.45-3.84-2.32-7.84-4.43-11.38-7.2-2.03-1.59-4.03-3.28-5.57-5.34-1.41-1.88-2.94-3.93-3.25-6.27-.44-3.29,1.21-6.55,2.09-9.75,1.47-5.36,3.19-10.66,5.34-15.78,3.58-8.55,8.07-16.71,12.53-24.84,3.86-7.03,8.18-13.79,12.31-20.66,4.7-7.83,14.16-23.45,14.16-23.45l-5.11-5.34s-8.34-9.75-12.77-14.39c-5.82-6.1-12.35-11.49-18.11-17.64-3.83-4.09-7.79-8.12-10.91-12.77-3.49-5.2-6.3-10.88-8.59-16.71-2.62-6.66-4.6-13.61-5.8-20.66-.6-3.52-.7-10.68-.7-10.68,0,0,5.12,6.47,7.89,9.52,5.9,6.47,12.02,12.76,18.57,18.57,6.92,6.15,14.24,11.87,21.82,17.18,7.34,5.13,14.16,11.92,22.84,14.14,6.16,1.58,12.78.09,19.04-.98,8.33-1.43,16.48-4,24.29-7.22,4.48-1.85,12.8-6.89,12.8-6.89,0,0-7.67,8.8-11.16,13.46-9.97,13.31-19.6,26.95-27.9,41.36-10.14,17.6-21.9,35.06-26.59,54.82-1.74,7.35-2.88,15.55-.33,22.65,3.6,10.01,12.19,17.89,20.68,24.29,9.69,7.32,21.3,12.48,33.16,15.1,26.39,5.84,54.39,4.86,81.09.66,21.64-3.4,42.96-10.54,62.37-20.68,19.75-10.31,38.68-23.42,53.51-40.05,14.16-15.89,26.8-34.56,32.17-55.15,1.58-6.04,4.52-14.79-.33-18.71-11.32-9.16-21.72-10.81-33.16-14.78-13.01-4.52-26.4-8.35-40.05-10.18-6.29-.84-12.89-1.89-19.04-.33-20.47,5.2-55.15,31.18-55.15,31.18l1.31-30.53s133.08-85.73,201.9-124.75c10.43-5.91,22.24-12.64,34.92-19.84-10.27-17.25-22.15-33.78-32.58-47.73-8-10.7-13.34-15.61-20.37-21.15-7.03-5.54-15.77-11.69-25.3-11.73h0Zm98.21,121.35c-1.42.62-2.86,1.22-4.28,1.85-8.6,3.82-17.13,7.82-25.53,12.07-12.79,6.47-25.25,13.57-37.84,20.43-6.9,3.76-13.79,7.56-20.66,11.38-11.09,6.15-22.05,12.53-33.2,18.57-8.07,4.37-24.37,12.76-24.37,12.76,0,0,4.03,3.46,6.27,4.88,6.59,4.15,13.75,7.35,20.89,10.45,19.23,8.34,58.96,21.82,58.96,21.82,0,0-.01,10.33-1.16,15.32-.9,3.89-2.71,7.53-4.41,11.14-2.74,5.83-5.74,11.57-9.29,16.95-7.87,11.91-17.43,22.61-26.46,33.66-5.52,6.76-11.22,13.37-16.94,19.96-8.55,9.85-26,29.25-26,29.25,0,0,17.9,20.78,26.93,31.11,9.16,10.49,18.56,20.77,27.63,31.34,6.56,7.65,13.07,15.34,19.4,23.18,14.97-21.62,30.09-43.43,45.06-65.98,11.47-17.27,23.88-34.18,34.57-52.02,10.68-17.84,19.64-36.62,24.2-57.63,5.34-24.63-1.2-51.38-9.38-79.33-6.9-23.57-14.98-47.98-24.38-71.14h0Zm-166.77,254.87s-3.2,2.7-4.87,3.95c-4.06,3.03-8.18,6-12.53,8.59-3.96,2.35-8.05,4.51-12.31,6.27-4.43,1.83-9.08,3.1-13.69,4.41-8.13,2.3-24.61,6.04-24.61,6.04,0,0-5.55,21.65-6.73,32.73-.81,7.62-1.22,15.39-.23,22.98,1.01,7.8,3.69,15.31,6.27,22.75,2.94,8.49,10.45,24.84,10.45,24.84l-49.68,50.14s-1.17-16.72-1.86-25.07c-1.19-14.48-3.2-28.9-3.95-43.41-.34-6.72-.23-20.2-.23-20.2,0,0-.22-15.94-.23-23.91-.02-11.14.23-33.43.23-33.43,0,0-2.94-.16-4.41-.23-10.29-.46-20.59-.56-30.87-1.16-6.82-.4-13.63-.96-20.43-1.63-6.59-.65-19.73-2.32-19.73-2.32,0,0-5.08,5.44-7.66,8.12-4.9,5.08-10.26,9.74-14.86,15.09-7.42,8.64-14.14,17.89-20.43,27.39-5.79,8.74-11.46,17.6-16.59,26.74,8.97,13.91,17.46,28.14,25.34,42.98,25.01,47.12,67.63,111.52,90.06,174.35,22.43,62.83,43.26,116.66,43.26,116.66,0,0,52.99-147.58,89.26-216.82,24.48-46.73,53.12-89.82,82.95-133.19-2.38-2.73-4.76-5.46-7.16-8.18-7.52-8.49-15.25-16.79-22.75-25.3-7.44-8.44-14.64-17.08-22.05-25.54-9.9-11.29-29.95-33.66-29.95-33.66h0Z"/><g id="g817"><path id="path842" class="cls-2" d="m999.62,125s-43.07,17.62-96.58,44.84c-53.51,27.22-117.46,64.03-159.23,87.72-68.82,39.02-201.9,124.75-201.9,124.75l-1.31,30.53s34.68-25.99,55.15-31.19c6.15-1.56,12.75-.51,19.04.33,13.65,1.83,27.04,5.66,40.05,10.18,11.43,3.97,21.84,5.61,33.16,14.77,4.85,3.92,1.9,12.68.33,18.71-5.37,20.59-18.01,39.27-32.17,55.15-14.83,16.63-33.76,29.74-53.51,40.05-19.42,10.14-40.74,17.28-62.37,20.68-26.7,4.2-54.7,5.18-81.09-.66-11.86-2.62-23.46-7.79-33.16-15.1-8.49-6.41-17.08-14.29-20.68-24.29-2.56-7.11-1.42-15.3.33-22.65,4.69-19.76,16.45-37.22,26.59-54.82,8.3-14.41,17.93-28.05,27.9-41.36,3.49-4.66,11.16-13.46,11.16-13.46,0,0-8.32,5.04-12.8,6.89-7.81,3.22-15.97,5.79-24.29,7.22-6.26,1.08-12.89,2.57-19.04.98-8.67-2.23-15.5-9.01-22.84-14.14-7.58-5.31-14.9-11.03-21.82-17.18-6.55-5.81-12.68-12.1-18.57-18.57-2.78-3.05-7.89-9.52-7.89-9.52,0,0,.09,7.16.7,10.68,1.21,7.05,3.19,14,5.8,20.66,2.29,5.83,5.1,11.51,8.59,16.71,3.12,4.65,7.08,8.68,10.91,12.77,5.76,6.15,12.29,11.55,18.11,17.64,4.43,4.64,12.77,14.39,12.77,14.39l5.11,5.34s-9.46,15.62-14.16,23.45c-4.12,6.87-8.44,13.63-12.3,20.66-4.46,8.13-8.95,16.28-12.54,24.84-2.15,5.12-3.86,10.43-5.34,15.78-.88,3.2-2.53,6.46-2.09,9.75.31,2.33,1.84,4.38,3.25,6.27,1.54,2.06,3.55,3.75,5.57,5.34,3.53,2.77,7.53,4.88,11.37,7.2,5.96,3.6,12.31,6.58,18.11,10.45,3.49,2.33,7.35,4.4,9.98,7.66,1.02,1.27,2.1,2.78,2.09,4.41-.04,6.71-5.53,12.25-8.82,18.11-4.42,7.86-10.03,14.99-14.62,22.75-4.54,7.66-8.71,15.52-12.77,23.45-3.83,7.49-7.6,15.02-10.91,22.75-2.67,6.24-5.04,12.6-7.2,19.03-4.02,12-7.28,24.25-10.68,36.44-2.11,7.56-4.08,15.15-6.04,22.75-1.91,7.41-3.71,14.86-5.57,22.28-2.31,9.21-4.84,18.37-6.96,27.62-1.54,6.7-4.18,20.2-4.18,20.2l-.23,6.04s15.01-38.79,22.28-58.27c10.67-28.55,18.37-58.31,31.34-85.89,6.72-14.28,15.19-27.7,23.91-40.86,6.29-9.5,13.01-18.75,20.43-27.39,4.6-5.36,9.96-10.01,14.86-15.09,2.58-2.68,7.66-8.12,7.66-8.12,0,0,13.14,1.67,19.73,2.32,6.8.67,13.61,1.23,20.43,1.62,10.28.6,20.59.7,30.87,1.16,1.47.07,4.41.23,4.41.23,0,0-.25,22.28-.23,33.43.01,7.97.23,23.91.23,23.91,0,0-.11,13.47.23,20.2.74,14.51,2.75,28.93,3.95,43.41.69,8.35,1.86,25.07,1.86,25.07l49.68-50.14s-7.51-16.35-10.45-24.84c-2.57-7.43-5.25-14.95-6.27-22.75-.99-7.6-.58-15.36.23-22.98,1.18-11.08,6.73-32.73,6.73-32.73,0,0,16.48-3.73,24.61-6.04,4.61-1.31,9.26-2.58,13.7-4.41,4.25-1.76,8.35-3.92,12.3-6.27,4.35-2.59,8.47-5.56,12.54-8.59,1.68-1.25,4.87-3.95,4.87-3.95,0,0,20.05,22.37,29.95,33.66,7.41,8.46,14.62,17.1,22.05,25.53,7.5,8.51,15.23,16.81,22.75,25.3,10.54,11.91,20.8,24.07,31.34,35.98,6.06,6.85,12.24,13.61,18.34,20.43,5.66,6.33,11.38,12.62,16.95,19.03,4.24,4.9,8.38,9.89,12.54,14.86,2.26,2.7,6.73,8.12,6.73,8.12,0,0-2.87-10.66-4.87-15.79-3.72-9.51-8.48-18.59-13.23-27.62-6.15-11.69-12.41-23.36-19.73-34.36-7.4-11.12-16.03-21.37-24.37-31.8-6.86-8.58-13.97-16.96-21.12-25.3-9.07-10.57-18.46-20.85-27.62-31.34-9.02-10.33-26.93-31.11-26.93-31.11,0,0,17.44-19.4,26-29.25,5.72-6.59,11.42-13.2,16.95-19.96,9.03-11.05,18.6-21.75,26.46-33.66,3.55-5.37,6.55-11.12,9.29-16.95,1.7-3.62,3.51-7.25,4.41-11.14,1.15-4.99,1.16-15.32,1.16-15.32,0,0-39.73-13.49-58.96-21.82-7.14-3.1-14.31-6.29-20.89-10.45-2.24-1.41-6.27-4.87-6.27-4.87,0,0,16.31-8.4,24.37-12.77,11.15-6.04,22.11-12.42,33.2-18.57,6.87-3.81,13.76-7.61,20.66-11.37,12.58-6.86,25.05-13.96,37.84-20.43,8.4-4.25,16.93-8.25,25.53-12.07,8.27-3.68,16.61-7.21,25.07-10.45,10.1-3.86,20.07-8.4,30.64-10.68,7.67-1.65,15.6-1.89,23.45-2.09,8.13-.21,16.28.15,24.37.93,6,.58,17.87,2.79,17.87,2.79,0,0,6.49-18.85,10.21-28.09,3.92-9.74,7.57-19.67,12.77-28.78,5.75-10.07,13.16-19.1,20.2-28.32,5.27-6.91,11.03-13.43,16.48-20.2,5.22-6.47,10.39-12.98,15.55-19.5,2.87-3.63,8.59-10.91,8.59-10.91h0Z"/><path id="path844" class="cls-2" d="m302.99,529.61s-57.02,43.71-84.26,67.09c-18.87,16.19-36.93,33.3-54.78,50.61-9.51,9.21-18.71,18.75-27.86,28.32-14.45,15.12-29.47,29.77-42.71,45.96-4.7,5.75-13,18.11-13,18.11,0,0,18.76-15.01,28.32-22.28,9.78-7.44,19.96-14.34,29.71-21.82,14.16-10.85,27.94-22.18,41.78-33.43,14.17-11.5,27.99-23.43,42.25-34.82,12.84-10.26,25.7-20.51,39-30.18,16.21-11.79,33.37-23.31,49.02-34.71,3.69-2.69,10.27-6.66,10.27-6.66l-17.73-26.17Z"/></g></g></svg>