<?xml version="1.0" encoding="UTF-8"?><svg id="Capa_1" xmlns="http://www.w3.org/2000/svg" viewBox="0 0 1080 1080"><defs><style>.cls-1{fill:#fff;stroke-width:0px;}</style></defs><path class="cls-1" d="m732.96,177.65c-25.12,33.74-49.6,62.09-82.42,80.03-13.1-21.09-24.89-41.37-38-60.76-10.97-16.24-27.88-21.83-46.97-22.7-35.72-1.63-67.04,10.18-96.13,29.83-49.62,33.51-82.51,80.41-108.43,133.3-27.22,55.53-39.72,114.81-46.71,175.62-.65,5.63-.4,11.42.01,17.09.19,2.55,1.8,5,3.61,9.67,155.3-86.94,305.59-180.36,453.96-278.46,6.05,7.47,10.21,11.39,12.9,16.15,9.21,16.32,17.89,32.93,27.88,51.48-49.52,25.96-97.19,50.95-146.92,77.03,5.27,14.67,9.68,26.93,14.86,41.37,43.74-1.4,81.73-21.64,124.25-36.73,4.94,19.32,9.5,37.14,14.12,55.19-44.18,8.46-84.85,16.24-127.01,24.31v64.78c34.96,17.69,75.32,16.33,117.29,21.18-3.67,18.82-7.01,35.96-10.86,55.71-40.56-11.6-77.12-28.47-120.01-29.65-8.32,18.75-16.59,37.38-25.63,57.76,46.25,37.08,94.1,66.95,149.2,92.48-11.51,17.54-21.63,32.97-31.69,48.31-48.31-35.94-95.11-70.77-143.19-106.55-14.05,13.17-26.13,24.5-39.07,36.63,30.03,73.39,64.12,144.08,107.12,213.76-18.97,8.11-35.95,15.38-54.69,23.39-14.82-38.31-27.89-74.83-43.02-110.47-14.82-34.91-31.73-68.92-49-106.06-77.17,28.24-144.1,7.3-205.08-44.49-1.24,50.79,63.69,162.69,99.46,175.28,27.93-21.42,29.36-40.5,4.57-84.31,7.37,0,13.68-1.42,18.99.28,12.64,4.05,25.12,8.93,37.12,14.62,27.88,13.22,43.11,35.61,38.59,66.47-5.36,36.59-17.28,70.22-56.67,85.41-25.77,9.94-48.87,6.2-69.1-11.66-61.32-54.13-103.34-120.92-128.24-198.67-5.5-17.19-11.38-34.28-16.15-51.68-2.7-9.87-3.49-20.27-5.5-32.67,31.9-13.06,62.38-25.53,96.72-39.59,11.27,12.78,21.23,26.7,33.71,37.77,55.68,49.38,134.15,42.74,183.2-19.95,49.7-63.53,58.39-133.41,28.52-210.1-6.84,3.1-11.81,5.36-18.15,8.23,1.64,11.42,3.04,22.49,4.84,33.5,9.53,58.05-19.9,114.58-72.49,137.79-34.62,15.28-68.62,14.23-100.3-7.84-16.98-11.83-33.02-25.01-52.16-39.64-31.88,18.57-65.99,38.44-102.36,59.63-2.73-8.15-5.63-13.06-5.89-18.1-5.93-116.42,12.99-227.96,70.51-330.46,26.61-47.42,61.33-89.05,105.93-121.63,76.67-56.01,184.31-58.35,262.57-4.98,10.07,6.87,19.77,14.29,31.89,23.08Zm-315.39,363.96c26.25,32.67,51.79,40.39,76.51,24.79,25.96-16.39,31.96-41.16,16.32-76.6-30.99,17.3-61.7,34.44-92.83,51.82Z"/></svg>