<?xml version="1.0" encoding="UTF-8"?><svg id="Capa_1" xmlns="http://www.w3.org/2000/svg" viewBox="0 0 1080 1080"><defs><style>.cls-1{fill:#fff;stroke-width:0px;}</style></defs><g id="g10"><path id="path2" class="cls-1" d="m540,113c-235.8,0-427,191.2-427,427s191.2,427,427,427,427-191.2,427-427S775.79,113,540,113Zm0,829.14c-222.12,0-402.14-180.01-402.14-402.14s180.1-402.14,402.14-402.14,402.14,180.01,402.14,402.14-180.01,402.14-402.14,402.14h0Z"/><path id="path4" class="cls-1" d="m363.38,314.57c0-58.81,28.63-110.83,72.67-143.13-160.29,45.51-277.63,192.95-277.63,367.82,0,207.26,164.87,375.9,370.57,382.23v-429.94c-92.48-6.15-165.61-83.03-165.61-176.98Z"/><path id="path6" class="cls-1" d="m645.51,171.35c44.04,32.3,72.67,84.41,72.67,143.13,0,93.95-73.12,170.93-165.61,176.98v429.84c205.7-6.24,370.57-174.97,370.57-382.23,0-174.69-117.35-322.13-277.63-367.73Z"/><circle id="circle8" class="cls-1" cx="540.73" cy="314.57" r="157.72"/></g></svg>