<?xml version="1.0" encoding="UTF-8"?><svg id="Capa_1" xmlns="http://www.w3.org/2000/svg" viewBox="0 0 1080 1080"><defs><style>.cls-1{fill:#fff;stroke-width:0px;}</style></defs><polygon class="cls-1" points="967 542.43 872.26 447.59 872.26 512.82 609.31 512.82 795.97 326.16 841.98 372.17 841.98 238.12 707.93 238.12 754.03 284.23 569.7 468.46 569.7 207.83 634.83 207.83 540 113 445.17 207.83 510.39 207.83 510.39 471.96 324.32 285.88 370.42 239.77 236.37 239.77 236.37 373.82 282.38 327.81 467.39 512.82 207.83 512.82 207.83 447.59 113 542.43 207.83 637.26 207.83 572.13 466.03 572.13 284.23 754.03 238.12 707.93 238.12 841.98 372.17 841.98 326.16 795.97 510.39 611.64 510.39 872.26 445.17 872.26 540 967 634.83 872.26 569.7 872.26 569.7 615.13 752.19 797.62 706.18 843.63 840.33 843.63 840.33 709.58 794.22 755.68 610.67 572.13 872.26 572.13 872.26 637.26 967 542.43"/></svg>