<?xml version="1.0" encoding="UTF-8"?><svg id="Capa_1" xmlns="http://www.w3.org/2000/svg" viewBox="0 0 1080 1080"><defs><style>.cls-1{fill:#fff;stroke-width:0px;}</style></defs><path class="cls-1" d="m845.58,760.11l-62.99-261.48c-.47-1.95-3.2-2.1-3.87-.21l-65.21,182.57c-.55,1.55-2.64,1.82-3.58.46l-61.57-90.56c-1.05-1.55-3.46-.96-3.68.9l-18.29,155.52c-.23,1.95-2.82,2.46-3.77.74l-87.37-158.01c-.81-1.48-2.97-1.36-3.63.19l-57.88,136.29c-.63,1.48-2.64,1.67-3.53.34l-57.03-84.63c-.85-1.25-2.71-1.17-3.45.15l-25.46,45.81c-.88,1.59-3.26,1.3-3.72-.47l-60.96-231.31c-1.2-4.56-7.7-4.48-8.79.1l-70.21,295.66c-.2.83.15,1.68.86,2.16l320.14,210.82c.7.46,1.62.44,2.3-.05l280.92-202.89c.67-.48.97-1.32.78-2.12Z"/><path class="cls-1" d="m389.7,608.05l29.5-29.5,49.16,94.38,53.1-135.68,82.58,119.95,21.63-106.18,51.13,23.6,13.77-169.11,144.51-3.76c3.46-.09,5.86-3.46,4.82-6.76l-47.08-148.76-90.45,1.97-29.5-74.72-261.53-58.99-27.53,84.55-133.71,31.46-15.73,106.18,149.44,100.28,5.9,171.08Zm209.5-261.79l77.59-52.83c19.76,13.62,31.56,38.52,35.4,66.86l-109.88-3.93c-5.44,0-7.61-7.03-3.11-10.1Zm-10.89,108.41l-64.89,7.87,19.66-66.86,45.23,58.99Zm-121.91-192.7c36.93,0,66.86,29.93,66.86,66.86s-29.93,66.86-66.86,66.86-66.86-29.93-66.86-66.86,29.93-66.86,66.86-66.86Z"/></svg>