<?xml version="1.0" encoding="UTF-8"?><svg id="Capa_1" xmlns="http://www.w3.org/2000/svg" viewBox="0 0 1080 1080"><defs><style>.cls-1{fill:#fff;stroke-width:0px;}</style></defs><path id="path2" class="cls-1" d="m752.55,420.07l11.7,6.93c-9.33-39.04-18.61-76.52-27.27-96.16l7.17-1.47c-13.72-32.52-26.89-60.98-38.46-77.98l7.87-2.55c-18.32-32.03-36.82-63.53-59.84-81.99-1.48-3.11,2.29-5.57,9.64-7.59-19.7-19.38-41.36-35.14-65.54-46.26,23.28,36.08,39.65,70.25,49.54,104.3.53-.82,1.19-1.39,1.98-1.65,4.3-1.4,10.83,6.8,14.59,18.33,3.76,11.52,3.31,22-.99,23.4-2.18.7-4.92-1.04-7.58-4.43,7.03,44.45,3.33,89.74-10.21,139.75,38.73-34.12,19.18-2.09,14.83,22.16,10.86-15.31,18.91-16.96,26.29-12.89,0,0,16.57,12.46-5.72,35.72-61.49,36.94-25.51-5.95-25.51-5.95-36.33,6.69-59.58-9.13-78.3-17.49,14.8,13.67,23.96,27.3,23.18,40.05l-8.87-.37c-22.33-54.47-40.21-113.33-56.74-170.98-4.93,41.36-10.96,79.88-18.02,115.76,1.98-2.21,4.2-3.36,6.29-2.94,4.71.93,7.01,9.32,5.15,18.73-1.87,9.41-7.19,16.29-11.89,15.36-2.21-.44-3.89-2.53-4.86-5.6-4.97,22.75-10.36,44.38-16.17,64.95l-12.64,3.16c-3.33-12.33,2.9-27.53,14.63-43.9-16.64,11.97-36.22,32.15-73.16,32.92,0,0,43.9,34.75-23.78,10.97-26.52-18.29-12.8-33.84-12.8-33.84,6.4-5.49,14.63-5.49,28.35,7.32-9.15-22.86-34.75-50.3,10.06-24.69-23.35-46.25-36.1-89.85-38.18-134.82-1.93,3.86-4.26,6.13-6.54,5.87-4.5-.5-7.04-10.68-5.69-22.73s6.1-21.4,10.59-20.9c.82.09,1.58.51,2.27,1.21,2.82-35.33,11.96-72.11,27.49-112.14-21.45,15.77-39.48,35.57-54.87,58.53,7.61.49,11.8,2.15,10.97,5.49-18.82,22.72-30.58,57.3-42.07,92.37l8.23.91c-7.92,18.99-15.07,49.51-21.95,84.14h7.32c-4.53,20.98-6.05,59.56-7.32,99.68l10.06-9.15c5.21,52.39,20.12,116.14,56.7,182.9-20.12-83.22,13.72-111.57,54.87-119.8,15.41,6.7,21.36,18.62,24.26,32.57-6.58,15.68-13.46,30.55-20.65,44.65,1.32-.37,2.57-.36,3.69.13,4.39,1.94,4.89,10.43,1.12,18.99-3.78,8.55-10.39,13.91-14.78,11.97-1.99-.88-3.17-3.13-3.53-6.11-24.11,42-51.17,76.37-80.64,104.49,37.73-25.34,75.83-46.66,114.31-63.49-.04-.05-.08-.09-.11-.14-2.57-4.05,1.74-11.39,9.63-16.41,7.89-5.01,16.37-5.78,18.94-1.74,1.13,1.79.92,4.23-.34,6.81,15.54-5.87,31.14-10.99,46.8-15.35,14.63,7.62,24.02,48.64-8.17,30.86,4.86,21.27,4.62,40.25,0,57.61,3.9,1.24,7.36,2.89,10.41,4.92-33.13,22.74-58.65,30.33-83.57,16.11,10.39,41.74-14.03,91.05-44.81,141.75,25.05-28.4,50.01-55.06,74.9-77.68-1.18-.1-2.11-.48-2.69-1.19-2.81-3.45,3.33-13.1,13.71-21.54,10.38-8.45,21.07-12.5,23.88-9.05.51.63.72,1.46.67,2.46,11.06-8.1,22.09-15.2,33.11-21.03.57-.23,1.15-.28,1.72-.19.69,4.64.94,9.67.8,15.04-18.44,50.32-51.91,104.35-91.22,159.82,80.28-80.87,156.94-151.82,223.14-203.02-29.81,15.99-56.86,26.46-78.1,27.06-14.91-2.73-23.69-9.87-26.16-21.57,4.97-20.12,19.2-28.35,19.2-7.32,19.7-26.58,33.51-27.55,42.07-6.4l32.01-93.28c-33.26,40.67-63.51,64.4-87.79,45.73-18.29,4.57-24.69-13.72-.91-19.2-21.92-5.48,20.91-29.2,42.89-36.54.05,0,.12,0,.17-.02-2.32-1.36-3.74-3.12-3.74-5.05,0-4.29,6.96-7.77,15.55-7.77s15.55,3.48,15.55,7.77c0,1.45-.81,2.81-2.19,3.97,29.44-.45,59.12,1.98,89.07,7.46-9.88-5.75-19.28-12.18-28.26-19.19.07,1.83-.39,3.41-1.5,4.52-3.16,3.16-10.21,1.23-15.74-4.31-5.53-5.53-7.46-12.58-4.31-15.74.57-.57,1.25-.96,2.04-1.21-10.5-9.88-20.38-20.61-29.67-32.1-.16.66-.46,1.23-.91,1.65-2.22,2.06-7.22.28-11.18-3.98-3.95-4.25-5.36-9.38-3.14-11.44.96-.9,2.45-1.06,4.15-.62-6.24-8.52-12.2-17.41-17.92-26.58-1.27-17.65.37-33.85,16.85-45.44,41.97-.24,80.82,20.7,77.91,106.28,22.36-72.76,24.1-138.21,18.64-190.58h0Zm-140.76,185.41c-.45,4.24-5.7,8.71-12.88,10.56-8.27,2.14-15.97.03-17.19-4.72-.19-.74-.19-1.51-.06-2.28-34.04,5.78-67.84,17.38-99.46,34.22,29.61-59.13,50.98-127.28,64.93-196.62,9,24.44,19.65,49.68,32.05,73.97.32-.44.7-.8,1.16-1.07,2.94-1.7,7.68,1.01,10.59,6.04,2.91,5.03,2.87,10.49-.06,12.19-.67.38-1.44.54-2.25.49,13.56,24.25,28.96,47.08,46.3,66.59-7.67-.11-15.39.11-23.13.62h0Z"/></svg>