<?xml version="1.0" encoding="UTF-8"?><svg id="Capa_1" xmlns="http://www.w3.org/2000/svg" viewBox="0 0 1080 1080"><defs><style>.cls-1{fill:#fff;stroke-width:0px;}</style></defs><g id="layer1"><path id="path959" class="cls-1" d="m275.65,854.37l-9.87-2.34,4.29-3.87c6.26-5.64,5.75-16-1.06-21.35-7.23-5.69-14.14-5.29-20.12,1.16-5.4,5.83-6.21,10.86-2.78,17.26,1.21,2.25,1.83,4.46,1.38,4.91-1.82,1.82-47.59-9.87-50.65-12.93-1.09-1.09.27-3.21,3.35-5.22,6.68-4.38,7.31-16.98,1.12-22.57-9.59-8.68-25.17-1.18-25.17,12.12,0,3.93-.76,7.15-1.69,7.15-2.64,0-21.74-9.98-33.69-17.61l-10.82-6.91,5.24-4.12c7.91-6.22,7.34-16.82-1.18-22-5.77-3.51-7-3.61-12.03-1.01-3.08,1.59-6.19,4.74-6.9,6.98-2.15,6.76-6.18,4.75-19.25-9.62-43.94-48.29-69.16-113.5-72.39-187.2l-.93-21.31,10.95,22.32c16.75,34.14,33.03,57.11,58.25,82.22,36.28,36.12,81.84,59.11,118.13,59.61,17.15.24,22.55-2.22,18.61-8.46-1.21-1.92-4.84-3.97-8.07-4.55l-5.87-1.06.18-15.18c.14-11.64,1.38-17.77,5.3-26.34,9.72-21.21,33.61-42.61,47.55-42.61,8.69,0,9.96,2.58,2.81,5.74-7.17,3.17-11.92,12.95-14.58,30-6.14,39.46,18.78,61.66,69.22,61.66,24.23,0,37.34-3.28,44.77-11.18,3.81-4.05,4.39-6.38,3.43-13.57-2.58-19.25-22.24-21.6-26.83-3.2-1.32,5.31-1.6,5.41-6.96,2.64-7.58-3.92-24.99-23.26-29.54-32.84-8.3-17.43-11.32-28.9-12.5-47.51-1.11-17.55.38-40.07,2.52-37.93.47.47,1.73,5.5,2.81,11.2,2.85,15.02,9.39,27.58,19.46,37.34,11.01,10.67,19.18,14.7,36.4,17.95,24.63,4.65,51.14-2.23,68.29-17.72,16.47-14.88,27.13-47.18,22.37-67.8-3.09-13.38-5.28-15.93-13.68-15.93-4.79,0-7.45,1.24-9.04,4.21-2.43,4.54-.84,19.33,2.29,21.26,6.66,4.12-4.23,8.29-28.95,11.09-31.54,3.57-66.82-3.05-96.78-18.17-12.83-6.48-31.2-22.63-27.24-23.95,1.21-.4,9.52,1.14,18.47,3.42,54.26,13.85,92.65-6.17,102.11-53.25,3.11-15.5.96-27.44-6.6-36.61-7.61-9.23-15.35-13.41-31.2-16.84-31.49-6.81-60.97-.42-75.77,16.43-7.82,8.91-9.47,14.48-9.45,32.03,0,7.53-.65,13.7-1.45,13.7s-5.37-1.29-10.16-2.87c-4.78-1.58-19.57-6.25-32.86-10.39-24.53-7.64-25.86-9.06-11.35-12.13,8.61-1.82,18.26-8.32,18.26-12.29,0-1.96-2.28-2.91-7.03-2.91s-9.13-1.85-14.2-6.3c-8.38-7.36-9-9.94-2.4-9.94,7.16,0,17.99-4.1,23.13-8.75,8.99-8.13,4.22-35.58-7.65-44.03-4.48-3.19-8.78-4-20.57-3.88-25.38.26-37.72,8.25-33.09,21.42,1.73,4.92,3.55,5.9,14.64,7.91,6.96,1.26,13.21,2.84,13.87,3.5,2.11,2.11-11.72,8.09-29.6,12.81-29.14,7.69-31.81,9.33-29.58,18.22,1.33,5.31,10.51,10.89,25.07,15.24,4.77,1.43,8.37,3.53,7.99,4.67-2.16,6.48-41.31,9.27-65.45,4.67-20.46-3.9-49.64-13.56-49.64-16.42,0-2.18,13.72-40.56,18.18-50.86.97-2.23,7.37-19.13,14.24-37.54,15.69-42.1,16.6-44.22,17.73-41.09,1.68,4.66,8.34,2.65,11.37-3.42,3.82-7.66,28.89-40.77,40.82-53.91,8.18-9.01,9.45-9.75,11.37-6.6,2.99,4.93,5.61,4.53,21.52-3.3,23.94-11.78,38.13-17.55,94.18-38.3l13.3-4.92-.82,5.57-.82,5.57,37.24-.31c44.3-.37,68.69,1.74,68.69,5.95,0,1.58-1.23,2.87-2.73,2.87s-4.3,1.73-6.22,3.85c-3.32,3.66-3.26,4.01,1.15,7.1,2.55,1.79,5.7,3.25,7,3.25,3.38,0,39.86,15.3,56.6,23.73,23.7,11.94,49.72,32.42,49.72,39.14,0,.92-5.61,1.17-12.46.55-20.89-1.89-29.78,5.36-31.64,25.8-.91,10.01-.42,12.16,3.84,17.12,6.92,8.05,20.69,9.53,28.83,3.1,6.41-5.06,11.42-15.18,11.42-23.08s10.01-12.16,26.38-12.16,26.38,4.61,26.38,12.16c0,20.37,20.27,33.51,36.71,23.8,14.86-8.78,7.83-42.12-9.81-46.55-2.71-.68-9.88-.73-15.92-.11-6.04.62-10.98.32-10.98-.68,0-6.46,33.09-32.18,52.76-41.02,3.91-1.75,13.04-5.88,20.29-9.16,7.25-3.28,19.13-8.01,26.38-10.5,17.28-5.93,19.38-7.7,14.96-12.59-1.88-2.07-4.64-3.77-6.14-3.77s-2.73-1.29-2.73-2.86c0-4.08,27.37-6.36,70.74-5.89l35.23.38-1.15-5.75-1.15-5.75,13.61,5.04c57.19,21.2,71.71,27.09,94.54,38.37,15.96,7.89,18.48,8.28,21.47,3.35,1.91-3.15,3.19-2.42,11.41,6.6,11.92,13.06,35.82,44.75,40.18,53.27,3.42,6.67,10.19,8.97,11.97,4.06,1.19-3.28,2.55-.07,21.34,50.22,6.67,17.86,16.03,42.79,20.79,55.41,7.43,19.66,8.25,23.33,5.8,25.69-7.11,6.84-54.13,17.37-76.93,17.23-14.86-.09-34.9-4.17-35.95-7.31-.38-1.14,3.22-3.23,7.99-4.64,13.13-3.88,23.9-10.57,25.17-15.65,2.12-8.45-.8-10.21-29.68-17.83-17.88-4.72-31.71-10.7-29.6-12.81.67-.67,6.91-2.24,13.87-3.5,11.08-2,12.91-2.99,14.64-7.91,4.63-13.17-7.7-21.16-33.09-21.42-11.79-.12-16.09.69-20.57,3.88-7.16,5.1-12.21,17.57-12.21,30.15s4.76,17.23,19.28,20.88c5.58,1.4,10.88,3.15,11.77,3.88.89.73-1.65,4.21-5.65,7.72-5.17,4.54-9.32,6.39-14.31,6.39-13.41,0-5.28,10.21,12.17,15.28,6.18,1.8,11.24,3.59,11.24,3.99s-10.73,4.07-23.84,8.15c-13.11,4.08-27.76,8.71-32.54,10.29-4.78,1.58-9.36,2.87-10.17,2.87s-1.51-7.08-1.55-15.73c-.08-17.22-2.71-24.29-12.37-33.23-11.27-10.43-28.45-15.95-49.39-15.88-44.3.16-67.23,20.07-61.52,53.41,4.28,25.01,16.84,43.36,36.44,53.25,11.01,5.55,12.92,5.85,36.11,5.65,18.85-.17,27.16-1.16,36.15-4.29,8.38-2.93,11.67-3.37,11.67-1.58,0,14.09-49.7,37.68-87.93,41.73-31.72,3.36-75.64-4.26-64.44-11.18,3.12-1.93,4.72-16.73,2.29-21.26-2.62-4.9-14.42-5.89-18.05-1.52-5.19,6.25-7.21,23.28-4.44,37.44,6.89,35.23,26.8,55.15,61.53,61.55,15.25,2.81,36.31.2,49.28-6.12,17.31-8.42,31.44-28.09,35.48-49.39,2.49-13.15,3.36-13.9,5.13-4.45,2.11,11.25-.57,49.21-4.22,59.75-7.56,21.83-24.36,44.93-37.68,51.82-5.49,2.84-5.67,2.76-6.97-3.14-1.41-6.4-7.75-12.15-13.41-12.15-6.39,0-12.16,6.83-13.37,15.83-1.44,10.75,3.48,16.92,17.26,21.61,11.9,4.05,48.59,4.21,61.27.26,30.94-9.63,44.17-29.94,38.92-59.73-2.99-16.95-8-26.84-14.96-29.46-7.98-3.01-7.1-5.32,2.02-5.32,15.11,0,37.48,19.4,48.06,41.69,4.08,8.59,6.02,16.34,6.7,26.76,1.02,15.66,1.33,15.13-10.22,17.66-7.57,1.66-7.57,8.59,0,11.52,7.77,3,30.18.51,48.14-5.35,56.52-18.45,110.12-69.4,142.07-135.06,5.02-10.31,9.69-19.28,10.38-19.94,1.79-1.7-.4,36.59-3.07,53.59-4.55,29.08-14.93,63.89-26.45,88.75-12.02,25.93-50.25,76.63-57.78,76.63-1.41,0-3.59-2.26-4.84-5.02-2.93-6.43-11.63-8.72-18.52-4.87-7.69,4.29-8.35,16.04-1.21,21.66l5.23,4.12-5.63,3.98c-9.7,6.86-36.43,20.72-39.95,20.72-2.7,0-2.95-.78-1.26-3.93,2.43-4.54.18-12.06-4.86-16.25-4.52-3.75-14.92-3.18-19.62,1.08-5.4,4.88-5.27,18.17.2,21.59,6.18,3.86,4.88,7.27-3.63,9.56-22.95,6.18-41.59,10.37-42.43,9.53-.52-.52.04-2.79,1.24-5.05,3.57-6.66,2.54-12.35-3.18-17.65-6.56-6.08-12.67-6.32-19.72-.77-6.74,5.3-7.31,15.71-1.17,21.27l4.17,3.78-4.68,1.88c-2.58,1.03-17.83,2.33-33.9,2.89l-29.22,1.01,3.34-4.77c7.99-11.4.63-26.19-13.04-26.19-12.49,0-21.5,12.2-16.26,22,3.72,6.95,2.76,8.32-4.38,6.27-3.62-1.04-9.42-1.89-12.89-1.89-6.79,0-46.3-9.43-51.91-12.39-3.01-1.59-2.71-2.49,2.54-7.73,7.98-7.98,7.99-16.69,0-24.67-8.06-8.06-16.68-7.98-24.88.21-5.01,5.01-5.99,7.45-5.32,13.19.45,3.87.31,7.04-.31,7.04-2.27,0-21.55-10.92-33.49-18.96-6.74-4.54-19.42-15.35-28.17-24.02l-15.93-15.77,7.22-8.43c17.77-20.76,7.79-50.61-15.94-47.7-20.11,2.47-25.55,29.39-9.69,47.92l7.28,8.5-17.2,16.7c-15.5,15.05-46.79,37.02-57.62,40.46-3.73,1.18-4.07.6-3.33-5.73.67-5.75-.31-8.18-5.32-13.2-8.2-8.2-16.82-8.27-24.88-.21-7.98,7.98-7.98,16.69,0,24.67,5.23,5.23,5.53,6.15,2.54,7.67-11.21,5.71-71.38,17.51-71.38,14,0-1,.99-3.66,2.2-5.92,8.31-15.53-17.45-30.62-28.43-16.65-4.93,6.27-5.29,11.8-1.27,19.51l2.91,5.58-23.72-.19c-13.05-.11-28.17-1.25-33.6-2.54h0Zm-120.75-499.69c12.69-6.45,21.17-25.34,12.81-28.55-6.72-2.58-23.1,15.07-26.4,28.45-1.33,5.41-1.1,5.7,3.41,4.31,2.66-.82,7.24-2.72,10.18-4.21Zm784.97,2.72c-.19-5.91-9.61-21-16.54-26.52-8.86-7.05-13.81-6.17-13.81,2.46,0,7.76,8.61,17.98,19.19,22.79,9.78,4.44,11.27,4.61,11.16,1.28Z"/></g></svg>