<?xml version="1.0" encoding="UTF-8"?><svg id="Capa_1" xmlns="http://www.w3.org/2000/svg" viewBox="0 0 1080 1080"><defs><style>.cls-1{fill:#fff;stroke-width:0px;}</style></defs><g id="g22"><polygon id="polygon2" class="cls-1" points="661.02 809.26 697.09 906.73 709.71 928.57 781.23 887.31 661.02 809.26"/><path id="path4" class="cls-1" d="m366.62,926.42l43.5-150.91c-84.67-46.1-142.14-135.87-142.14-239.08,0-45.02,10.92-87.54,30.34-124.95l-58.54-44.93,99.26-18.44-73.04-56.48c-5.82,6.62-11.37,13.43-16.65,20.41l-52.45-30.25-48.6,84.14,53.26,30.79c-11.46,28.64-19.33,59.08-23.09,90.76h-62.92v97.12h64.18c4.56,31.06,12.98,60.87,24.88,88.88l-56.75,32.76,48.6,84.14,57.73-33.39c18.89,23.9,40.73,45.38,64.89,63.82l-33.83,58.63,81.36,46.99Z"/><path id="path6" class="cls-1" d="m964.45,585.57v-97.12h-62.83c-3.76-31.69-11.55-62.12-22.82-90.85l53.35-30.79-48.6-84.14-52.27,30.16c-19.07-25.33-41.35-48.16-66.33-67.76l29.81-51.56-84.14-48.6-29.36,50.75c-29-12.17-59.88-20.77-92.19-25.15v-58.45h-97.12v58.36c-24.44,3.22-48.16,8.86-70.89,16.74l73.04,51.38-59.17,26.58,22.02,12.26c17.28-5.55,35.36-9.4,53.97-11.37l16.83-27.21,8.77,5.91c13.61,9.13,23.27,15.93,30.34,21.03,137.66,13.52,245.16,129.52,245.16,270.76,0,33.03-5.91,64.71-16.74,94.07l53.88,80.47-96.85-4.48c-6.18,7.7-12.71,15.04-19.6,21.93l50.57,73.75c15.13-13.61,29.18-28.46,41.8-44.4l57.91,33.39,48.6-84.14-56.66-32.76c11.99-27.93,20.5-57.73,25.15-88.79h64.36Z"/><path id="path8" class="cls-1" d="m829.38,700.14l-78.77-117.61-77.69,52.18-51.11-43.95,72.59-78.77-9.22-9.22-76.71,77.69-53.17-40.91,76.71-91.03-89.96-55.23,43.95-80.83-8.15-4.12-50.12,76.71-70.53-42.96,26.58-37.86-71.61-39.92,61.4-27.66-179.02-125.67-100.25,112.51,169.08,130.77-99.18,18.44,90.67,69.73,76.71-94.16,152.34,103.29c-14.5,33.66-76.98,42.79-118.6,25.6l-34.73,50.12c59.52,39.56,117.08,84.85,169.8,145.18-38.31-.45-73.84,1.7-100.25,12.26l354.9,240.33-158.61-231.11,132.92,6.18Z"/><polygon id="polygon10" class="cls-1" points="645.35 591.75 674.98 618.33 783.37 541.63 734.32 500.72 645.35 591.75"/><polygon id="polygon12" class="cls-1" points="688.32 396.35 576.79 534.46 609.55 558.99 737.37 438.33 688.32 396.35"/><polygon id="polygon14" class="cls-1" points="618.77 422.94 666.83 340.14 610.53 303.26 561.48 387.13 618.77 422.94"/><path id="path16" class="cls-1" d="m576.79,286.97c-2.06-4.12-46.01-33.74-46.01-33.74l-53.17,85.93,45.02,32.76c0-.09,56.21-80.92,54.15-84.94Z"/><polygon id="polygon18" class="cls-1" points="652.51 815.7 567.57 753.31 555.31 965 707.74 965 652.51 815.7"/><path id="path20" class="cls-1" d="m564.53,658.17c-48.07-52-101.14-94.34-160.58-124.77l58.27-70.53c39.92,19.42,66.06,22.2,105.35-4.12l-132.92-93.09-129.88,173.91,126.83,198.44-65.52,226.99h153.42l11.28-239.35-64.45-53.17c28.82-10.2,60.87-16.02,98.19-14.32h0Z"/></g></svg>