<?xml version="1.0" encoding="UTF-8"?><svg id="Capa_1" xmlns="http://www.w3.org/2000/svg" viewBox="0 0 1080 1080"><defs><style>.cls-1{fill:#fff;stroke-width:0px;}</style></defs><g id="g6"><path id="path2" class="cls-1" d="m542.66,271.6c-81.91,0-148.29,66.38-148.29,148.29s66.47,148.29,148.29,148.29,148.29-66.38,148.29-148.29-66.38-148.29-148.29-148.29Zm0,41.85c25.39,0,48.63,8.92,66.9,23.67l-24.01,24.01c-12.35-9.35-27.79-15.01-44.51-15.01s-30.62,5.06-42.63,13.64l-22.64-22.64c18.27-14.75,41.6-23.67,66.9-23.67h0Zm41.17,106.44c0,23.59-19.13,42.71-42.71,42.71s-42.71-19.13-42.71-42.71,19.13-42.71,42.71-42.71,42.71,19.13,42.71,42.71Zm-147.6,0c0-24.87,8.58-47.77,22.9-65.95l22.47,22.47c-8.92,12.18-14.24,27.19-14.24,43.48s5.57,32.08,14.92,44.43l-22.47,22.47c-14.67-18.35-23.59-41.6-23.59-66.9h0Zm106.44,106.44c-24.96,0-47.86-8.58-65.95-22.9l22.73-22.73c11.84,8.15,26.16,12.95,41.68,12.95s31.22-5.23,43.4-14.15l24.1,24.1c-18.18,14.15-41.08,22.73-65.95,22.73h0Zm82.68-39.45l-24.27-24.27c8.58-12.09,13.64-26.76,13.64-42.71s-4.72-29.76-12.86-41.6l24.36-24.36c14.32,18.1,22.9,41,22.9,65.87s-8.92,48.8-23.76,67.07h0Z"/><path id="path4" class="cls-1" d="m699.61,536.01l41.77,11.32-27.96-32.85c11.75-21.18,19.64-44.86,22.9-69.99l76.16-23.93-75.82-22.81c-3-27.36-11.66-53-24.7-75.73l29.5-31.56-41.17,13.64c-14.58-20.07-32.93-37.22-53.95-50.6l8.06-51.29-23.93,26.42c.26-10.29,2.57-28.39,14.92-45.63,27.79-38.94,79.68-35.16,82.59-34.82v-34.82h-369.14v34.82c3-.26,54.89-4.12,82.59,34.82,13.64,19.13,14.92,39.54,14.92,48.8v4.55l-30.88-34.05,8.41,52.83c-20.24,13.29-37.82,30.1-51.97,49.74l-43.4-14.49,31.3,33.53c-12.26,22.04-20.5,46.66-23.5,72.9l-78.82,23.67,79.25,24.87c3.17,23.93,10.63,46.49,21.53,66.9l-29.76,35.08,44.34-11.92c14.07,19.21,31.48,35.76,51.46,48.8l-8.75,54.89s17.41-16.47,32.85-31.82v1.97c-.69,78.39-1.29,156.61-1.97,234.91.43,6.6,1.46,33.71-17.93,56.78-18.7,22.21-49.4,32.08-79.68,25.9v39.8h369.39v-39.8c-30.28,6.18-60.89-3.69-79.68-25.9-19.38-22.99-18.35-50.17-17.93-56.78-.69-76.67-1.29-153.35-1.97-229.94,13.21,13.04,25.9,24.87,25.9,24.87l-6.26-54.55c19.81-13.04,37.22-29.5,51.29-48.54Zm5.06-116.13c0,90.91-73.67,164.67-164.67,164.67s-164.67-73.67-164.67-164.67,73.67-164.67,164.67-164.67,164.67,73.76,164.67,164.67h0Z"/></g></svg>