<?xml version="1.0" encoding="UTF-8"?><svg id="Capa_1" xmlns="http://www.w3.org/2000/svg" viewBox="0 0 1080 1080"><defs><style>.cls-1{fill:#fff;stroke-width:0px;}</style></defs><path class="cls-1" d="m686.43,495.46c-26.44-77.11-104.5-89.18-138.28-90.74,0,0-2.89-.19-7.79-.19h-.26c-4.96,0-7.79.19-7.79.19-33.72,1.57-111.85,13.63-138.21,90.74-22.54,65.81,20.16,140.17,11.49,150.15-34.72,40.19,12.5,103.94,18.9,109.14,11.62,9.49,48.54-9.73,42.7.19-4.39,7.53-8.48,64.49-8.48,64.49h15.2l2.95-19.85,9.79-.13.62,19.97h16.83l1.88-20.28,9.79.32.94,19.97h16.2l.75-20.47h13.12l.75,20.47h16.2l.94-19.97,10.43-.32,1.88,20.28h16.2l.62-19.97,9.79.13,2.95,19.85h15.2s-4.08-56.96-8.48-64.49c-5.84-9.92,31.09,9.23,42.7-.19,6.47-5.27,53.63-68.95,18.9-109.14-8.65-10.04,34-84.4,11.51-150.15Zm-167.67,191.72c-4.52,5.09-11.05,11.11-19.91,16.08-21.29,11.99-42.39,10.3-50.93,9.11-.57-.06-1.13-.25-1.57-.57-18.66-11.81-25.74-30.2-20.22-41.69.81-1.76,3.96-7.53,13.75-11.11.57-.19,1.13-.25,1.7-.25,11.81,1.07,26.44,3.39,42.64,8.48,13.12,4.08,24.31,9.04,33.47,13.82,2.25,1.18,2.76,4.19,1.06,6.14Zm44.59,69.65c-.06,1.32-1.7,1.82-2.51.81-2.01-2.58-4.77-5.52-8.48-8.23-3.96-2.89-7.72-4.71-10.68-5.78-2.89,1.07-6.72,2.89-10.68,5.78-3.71,2.7-6.47,5.65-8.48,8.23-.81,1-2.45.51-2.51-.81-.62-9.73-.19-29.64,14.44-44.08,1.88-1.88,4.33-3.52,7.23-5.09,2.83,1.57,5.33,3.2,7.23,5.09,14.61,14.44,15.05,34.41,14.43,44.08Zm71.34-45.02c-.51.32-1,.51-1.57.57-8.54,1.19-29.58,2.89-50.93-9.11-8.85-4.96-15.38-10.99-19.91-16.08-1.7-1.94-1.19-4.96,1.13-6.16,9.17-4.77,20.35-9.73,33.47-13.82,16.27-5.09,30.9-7.41,42.64-8.48.57-.06,1.13,0,1.7.25,9.73,3.58,12.88,9.42,13.75,11.11,5.45,11.5-1.64,29.96-20.29,41.71Z"/><polygon class="cls-1" points="321.95 852.77 321.95 389.17 229.86 389.17 115.55 852.77 321.95 852.77"/><polygon class="cls-1" points="758.56 389.17 758.56 852.77 964.96 852.77 850.65 389.17 758.56 389.17"/><rect class="cls-1" x="115.04" y="890.88" width="849.42" height="74.62"/><polygon class="cls-1" points="542.13 114.5 115.04 365.36 964.46 365.36 542.13 114.5"/></svg>