<?xml version="1.0" encoding="UTF-8"?><svg id="Capa_1" xmlns="http://www.w3.org/2000/svg" viewBox="0 0 1080 1080"><defs><style>.cls-1{fill:#fff;stroke-width:0px;}</style></defs><path class="cls-1" d="m708.78,594.49l-52.19-41.55c18.69-11.16,33.67-24.81,42.53-39.96h30.04c-4.43,19.4-13.38,38.63-26.58,54.93,30.92-15.95,118.99-46.52,236.56-81.51-122.89-36.86-210.16-67.07-236.56-81.51,13.2,16.3,22.15,35.53,26.58,54.93h-26.4c-4.87-10.81-12.94-21.18-23.57-30.66,14.35-36.68,40.76-78.59,75.67-124.4-53.87,24.01-106.23,46.43-141.76,51.39,11.52,4.43,18.61,7.97,23.04,15.95l-20.56,21.35c-16.39-5.58-34.02-9.57-52.1-11.34v-63.17c16.13.09,29.33,8.68,49.62,19.49-16.66-32.61-46.34-133.52-74.42-225.93-24.9,94.36-49.79,190.14-71.77,233.02,18.61-12.49,36.95-24.54,49.62-25.69v62.64c-17.72,2.04-35,6.2-51.21,11.96l-21.44-22.33c4.43-7.97,11.52-11.52,23.04-15.95-35.53-4.96-87.89-27.38-141.76-51.39,35.35,46.34,61.93,88.87,76.2,125.81,3.63-12.23,8.24-19.76,10.63-21.26l8.06,7.44c-18.61,12.49-32.87,27.29-40.05,43.06h-29.15c4.43-19.4,13.38-38.63,26.58-54.93-26.4,14.44-113.68,44.65-236.56,81.51,117.57,35,205.64,65.56,236.56,81.51-13.2-16.3-22.15-35.53-26.58-54.93h32.78c8.68,14.71,23.12,27.91,41.02,38.9l-53.43,42.62c-4.61-1.68-8.95-14.71-13.29-26.58-20.91,39.87-56.44,88.87-96.58,140.88,63.7-25.69,126.17-50.5,162.14-55.82-11.34-5.94-20.38-14.97-27.47-26.58l69.91-55.38c15.33,5.23,31.63,9.04,47.93,11.08v142.65c-12.67-1.15-38.1-13.2-56.7-25.69,21.97,42.88,56.62,174.1,81.51,268.46,28.09-92.41,65.74-236.74,82.4-269.35-20.29,10.81-45.01,27.38-61.13,27.47v-142.56c18.78-1.59,37.57-5.49,55.11-11.34l68.93,54.67c-7.09,11.61-16.13,20.64-27.47,26.58,35.97,5.32,98.44,30.12,162.14,55.82-40.14-52.01-75.67-101.01-96.58-140.88-4.34,11.87-8.68,24.9-13.29,26.58Zm-40.76-185.18c2.22,1.42,6.29,7.97,9.83,18.61-4.96-4.34-10.54-8.51-16.48-12.4l6.65-6.2Zm-130.78,139.99c-52.89,0-106.85-45.28-106.85-59.36s53.96-59.36,106.85-59.36,110.57,45.28,110.57,59.36c0,11.16-57.68,59.36-110.57,59.36Z"/><path class="cls-1" d="m538.67,436.78c-29.33,0-53.16,23.83-53.16,53.16s23.83,53.16,53.16,53.16,53.16-23.83,53.16-53.16-23.83-53.16-53.16-53.16Zm0,93.92c-22.5,0-40.76-18.25-40.76-40.76s18.25-40.76,40.76-40.76,40.76,18.25,40.76,40.76-18.25,40.76-40.76,40.76Z"/></svg>