<?xml version="1.0" encoding="UTF-8"?><svg id="Capa_1" xmlns="http://www.w3.org/2000/svg" viewBox="0 0 1080 1080"><defs><style>.cls-1{fill:#fff;stroke-width:0px;}</style></defs><path class="cls-1" d="m754.25,626.08c-8.01-48.22-37.62-70.23-77.41-72.46-24.11-1.32-55.74,8.22-79.22,28.78,10.59-26.82,32.33-94.27,11.57-175.58-16.03-62.5-49.68-103.89-68.07-123.53h0c-18.32,19.65-52.05,61.04-68,123.53-21.74,84.86,3,154.68,12.89,178.93-23.83-22.85-57.48-33.51-82.84-32.12-39.78,2.23-69.4,24.25-77.41,72.46-6.06,110.09,130.5,105.07,129.94,62.5-70.23-5.5-4.46-59.71,14.91-8.85,3.48,11.22,3.83,33.03,3.9,37.42l-1.18,5.71h-52.95v44.24h83.54c-.35.98-.77,2.09-1.11,3.41-10.87,38.18-71.49,25.08-71.49,25.08,4.18,54.35,47.38,64.1,71.49,57.83.98-.28,1.81-.7,2.65-1.25l.84,2.93c1.95,16.93,5.85,37.55,13.52,60.34,6.27,18.6,13.66,34.42,20.69,47.38l.35,1.18c7.04-12.96,14.42-28.78,20.69-47.38,7.66-22.78,11.57-43.48,13.52-60.34l.56-2.16c27.52,5.57,64.31-7.18,68.28-58.53,0,0-60.62,13.1-71.49-25.08-.35-1.32-.77-2.44-1.11-3.41h90.65v-44.24h-56.65v-5.02c.14.07.21.07.21.07,0,0,0-25.64,3.9-38.18,19.37-50.86,85.14,3.34,14.91,8.85-.56,42.57,136.01,47.59,129.94-62.5Z"/><path class="cls-1" d="m861.68,438.97l-102.77-31.62c-2.37-17.55-6.81-34.43-13.06-50.41l73.44-79.04-.13.07-104.68,23.97c-10.72-13.74-23.04-26.15-36.68-37l24.1-105.27-.07.13-78.82,73.25c-15.83-6.36-32.58-10.92-49.99-13.46l-31.88-103.6v.15l-31.83,103.44c-17.17,2.49-33.7,6.96-49.35,13.18l-79.89-74.23.07.13,24.33,106.27c-13.14,10.44-25.05,22.36-35.5,35.5l-107.13-24.53.13.07,74.67,80.36c-6,15.18-10.35,31.19-12.84,47.82l-105.65,32.51h.15l105.38,32.42c2.03,13.85,5.34,27.27,9.82,40.16,10.29-3.66,26.7-9.65,45.74-16.66-5.98-17.42-9.23-36.1-9.23-55.54,0-94.5,76.61-171.11,171.11-171.11s171.11,76.61,171.11,171.11c0,20.2-3.51,39.59-9.95,57.59l46.2,15.35c4.42-12.58,7.73-25.68,9.82-39.19l103.5-31.85h-.15Z"/></svg>