<?xml version="1.0" encoding="UTF-8"?><svg id="Capa_1" xmlns="http://www.w3.org/2000/svg" viewBox="0 0 1080 1080"><defs><style>.cls-1{fill:#fff;stroke-width:0px;}</style></defs><g id="g8"><path id="path2" class="cls-1" d="m253.97,489.99c10.85-43.97,18.12-86.15,9.29-120.38l-87.04-7.38c6.71-65.67,42.52-149.25,85.14-236.97C165.59,190.37,78.21,255.71,22.6,321.5c19.8,71.27,47.44,143.66,98.12,211.01,81.79,27.08,165.14,44.08,249.94,51.8-49.68-31.21-91.3-62.65-116.69-94.32h0Z"/><path id="path4" class="cls-1" d="m829.83,117.87c39.49,85.37,74.18,166.26,77.76,218.5-31.77,16.45-73.51,26.52-120.38,33.34,20.47,50.46,31.89,113.11,38.82,181.47l162.9-50.01c33.34-46.32,59.63-92.64,68.47-138.85-46.77-73.51-131.13-157.31-227.57-244.46Z"/><path id="path6" class="cls-1" d="m672.41,393.77c-20.36-3.69-203.62-127.77-203.62-127.77-63.77,31.55-123.07,68.58-177.78,111.1,3.92,40.05.45,71.72-9.29,96.22,25.96,44.42,120.38,100.02,135.15,109.2l-11.08,316.62,68.47-77.76,31.44,140.75,62.99-173.98,37.03,138.85,25.96-120.38,42.63,85.14,5.59-299.95c15.1-8.5,44.75.45,75.86,11.08l48.11-42.63c-7.38-72.61-18.57-139.85-38.82-194.34,0,.11-72.28,31.55-92.64,27.86h0Zm-270.31,131.46l-7.38-72.16c40.61,13.09,97.11,12.31,149.92,5.59,0,0,44.42,51.8,44.42,70.37,0,7.38-53.7,48.11-53.7,48.11-58.29-33.01-105.62-53.59-133.25-51.91Zm203.62,114.79c-7.5-10.74-23.72-13.87-59.3,0,5.93-27.08,13.76-51.24,29.65-62.99h29.65c-9.62,17.9-5.15,40.28,0,62.99Zm55.61-55.61l-55.49-37.03,14.77-18.46,114.79-11.08c-14.99,18.46-43.41,48.11-74.07,66.57Z"/></g></svg>