<?xml version="1.0" encoding="UTF-8"?><svg id="Capa_1" xmlns="http://www.w3.org/2000/svg" viewBox="0 0 1080 1080"><defs><style>.cls-1{fill:#fff;stroke-width:0px;}</style></defs><path class="cls-1" d="m161.19,430.77c58.41,8.6,100.26,4.57,148.37-1.38,38.02-4.67,82.1-5.63,91.02,10.3,5.52,9.88,11.47,14.02,10.3,26.23-.96,10.3,1.06,14.13-1.81,21.56-2.34,6.27-3.19,1.59-4.99,8.18-2.02,7.54-2.66,9.66,4.57,23.05,8.5,15.61,23.15,33.46,30.69,40.25,1.7,1.49,4.25-.21,3.5-2.34-5.1-14.76-18.48-55.12-9.77-91.44,4.78-19.65,23.05-21.98,26.23-46.41,3.19-24.22-67.97-25.17-81.04-25.17s-87.83,10.94-150.5,12.32-97.71-3.5-193.62-24.75c-14.44-3.19,11.79,35.37,30.8,38.55,23.26,3.93,57.67,5.31,96.22,11.05Z"/><path class="cls-1" d="m289.38,467.62c12-1.81,24.22-3.93,36.64-6.37,20.6-3.93,40.36-8.28,59.05-12.96,1.27-.32,2.12-1.7,1.81-2.97-.53-1.91-1.59-4.25-3.4-6.37-4.57-5.31-12.32-7.43-20.18-5.63-11.79,1.27-24,2.44-36.43,3.4-27.93,2.02-54.48,2.87-79.66,2.66.64,3.93,2.34,10.51,7.33,16.46,12.32,14.66,33.14,12,34.84,11.79Z"/><path class="cls-1" d="m296.39,505.11c12.32-3.5,24.96-7.22,37.81-11.36,24-7.75,46.73-15.93,68.08-24.32.42-.96,2.02-4.99.32-9.66-1.38-4.04-4.35-6.05-5.31-6.69-16.46,4.57-34.41,8.82-53.85,12.43-26.66,4.89-54.17,7.54-76.47,8.82-.85,2.87.96,8.6,3.19,14.76,3.72,9.45,14.13,15.82,26.23,16.04Z"/><path class="cls-1" d="m317.1,535.38c7.33-1.49,11.26-2.66,19.54-5.31,24.75-8.07,41.95-20.18,56.08-30.59,1.06-3.08,4.46-7.97,3.19-13.91-.32-1.38-.64-2.66-1.06-3.82-19.75,8.71-41.63,17.21-65.85,24.75-12.21,3.82-24,7.12-35.37,9.88-.11,1.17-.74,8.07,4.25,13.81,5.84,6.8,18.37,5.31,19.22,5.2Z"/><path class="cls-1" d="m326.02,569.15c4.25,2.02,10.51.74,12.85.42,6.8-3.61,11.68-6.58,18.8-10.94,16.46-10.09,30.91-20.6,43.54-30.8.32-.96,1.59-5.2-.74-9.88-2.12-4.25-5.74-5.95-6.69-6.37-11.68,7.33-25.28,14.87-40.68,21.98-13.49,6.16-28.36,9.98-40.04,13.81-.42,9.13,5.95,18.37,12.96,21.77Z"/><path class="cls-1" d="m357.46,599.1c5.31,1.17,9.88.42,12.74-.32,9.24-7.65,19.12-16.36,29.21-27.4,7.12-7.75,11.26-15.4,16.67-22.62-.42-2.02.21-9.03-6.05-13.06-1.59-1.06-3.19-1.7-4.57-2.12-7.33,7.43-16.14,15.4-26.55,23.37-13.7,10.41-26.87,18.16-38.45,24-1.7.85-2.23,2.97-1.27,4.57,2.66,4.14,8.5,11.36,18.27,13.59Z"/><path class="cls-1" d="m377.85,608.03c3.08,1.49,7.97,3.29,11.36,4.04,4.67.96,9.77,2.44,10.94,1.91,2.55-1.7,5.52-7.97,8.18-10.09,14.98-12.32,21.03-26.13,25.17-37.28-.64-1.38-1.81-3.29-3.5-5.2-3.29-3.4-6.9-4.67-8.82-5.2-6.8,11.05-14.02,19.22-24.85,31.44-4.25,4.78-13.38,11.9-18.9,16.67-1.27,1.06-1.06,2.97.42,3.72Z"/><path class="cls-1" d="m421.39,624.38c5.31.32,8.92-2.97,9.56-3.5.85-6.8,2.76-15.61,7.12-25.17,2.23-4.99,4.67-9.24,7.12-12.74,0-.32.42-3.82-2.12-6.05-1.27-1.06-2.76-1.38-3.4-1.38-2.23,3.5-3.4,8.07-5.74,11.68-7.22,10.94-15.61,20.18-23.05,29.74,1.91,4.25,5.95,7.12,10.51,7.43Z"/><path class="cls-1" d="m104.68,466.13c36.96-1.06,52.89-3.4,97.92-10.83,7.75-1.27,19.65-1.59,34.2-2.12,1.59-.11,2.76-1.38,2.66-2.97-.21-1.59-.74-3.5-2.34-5.2-2.55-2.87-5.95-3.19-6.58-3.19-50.34-4.14-100.79-8.28-151.13-12.43-4.57-.11-13.49.53-22.41,6.05-2.44,1.59-4.57,3.19-6.27,4.89-.96.85-1.06,2.34-.42,3.4,1.91,3.19,4.57,6.9,8.07,10.62,5.63,5.84,11.36,9.45,15.61,11.58,6.69.21,17.42.64,30.69.21Z"/><path class="cls-1" d="m210.15,479.41c13.91-4.35,27.19-8.82,40.15-13.59,0-.74-.11-2.23-1.06-3.72-1.49-2.44-3.93-3.08-4.57-3.19-40.89,8.18-86.35,13.59-135.63,14.02-9.24.11-18.37,0-27.4-.21-2.12,1.27-8.6,5.52-9.24,11.9-.96,8.71,8.71,19.65,24.96,21.77,35.05-5.84,72.86-14.55,112.79-26.98Z"/><path class="cls-1" d="m258.68,490.88c.64-.74,3.4-4.25,2.97-9.35-.11-1.38-.42-2.55-.85-3.5-.85-2.02-3.08-2.87-5.1-2.23-22.94,7.01-36.75,13.7-67.87,21.14-30.16,7.22-57.99,12.85-83.05,16.14-.85.64-13.06,6.58-12.21,16.14.96,10.2,16.25,21.98,33.24,19.33,36.43-15.51,72.96-31.33,109.61-47.58,7.75-3.19,15.51-6.69,23.26-10.09Z"/><path class="cls-1" d="m261.34,522.21c4.04-2.55,7.43-4.89,10.41-6.9,2.66-1.81,3.4-5.52,1.59-8.18-.85-1.27-1.91-2.55-3.19-3.82-2.23-2.12-4.57-3.5-6.48-4.35-1.91-.85-4.14-.64-5.84.64-11.47,8.18-21.45,10.62-28.57,14.13-28.68,14.23-44.39,15.93-77.96,33.14-8.6,4.35-15.61,8.39-20.6,11.36-1.49.96-2.55,2.44-2.87,4.25-.53,3.4.32,5.52.64,6.37,2.66,6.16,12,9.66,22.62,7.01.42-.11.74-.32,1.17-.42,26.76-9.77,38.66-17.31,52.57-23.37,14.87-6.58,36.11-16.89,56.5-29.84Z"/><path class="cls-1" d="m275.15,554.82c7.33-3.19,16.46-6.48,18.27-13.91,1.06-4.57-.32-11.15-4.78-15.82-2.12-2.12-4.35-3.29-5.84-4.04-2.66,1.17-7.01,3.08-12.21,5.52-30.91,14.66-43.01,24.32-69.57,37.38-6.37,3.08-15.93,7.65-28.14,12.53-2.66,2.66-5.95,6.58-8.71,11.9-3.5,6.58-4.99,12.64-5.52,16.78,2.66,1.59,6.69,3.61,11.9,4.78,7.86,1.7,14.44.64,18.06-.21,28.57-16.89,28.78-17.1,28.78-17.1,50.55-30.27,39.4-29.74,57.78-37.81Z"/><path class="cls-1" d="m285.77,593.37c9.77-8.82,17.63-14.34,24.11-18.8,1.27-.85,1.81-2.44,1.27-3.82-.96-2.87-1.27-7.12-3.08-10.51-1.81-3.29-3.72-6.16-5.52-8.39-1.17-1.49-3.29-1.7-4.67-.53-3.72,3.08-8.82,7.12-14.98,11.58-24.85,18.37-38.23,23.9-61.39,40.15-6.69,4.67-16.14,11.68-27.3,21.03-1.27,1.06-1.59,2.97-.64,4.35,2.23,3.4,6.05,7.86,12,11.05,9.45,4.99,18.9,3.5,22.52,2.97,21.67-3.82,29.21-23.37,57.67-49.07Z"/><path class="cls-1" d="m329.63,589.86c.85-3.08.11-6.27-2.12-8.5-3.08-3.19-7.33-2.44-7.65-2.34-3.4,3.82-9.03,9.77-16.46,16.46-16.14,14.55-25.7,18.9-40.89,31.65-5.63,4.67-14.44,10.94-23.47,20.71-1.38,1.59-1.38,3.93.11,5.52,2.02,2.12,4.99,4.67,8.5,6.16,6.27,2.76,12,2.02,14.13,1.59,7.33-4.89,15.19-10.62,23.05-17.52,20.92-18.37,35.26-37.81,44.82-53.74Z"/><path class="cls-1" d="m346.84,621.51c2.44-3.08,5.2-6.37,7.22-8.6.96-1.06.64-2.66-.53-3.4-1.59-.85-3.5-1.7-5.63-2.44-4.67-1.59-8.82-1.91-11.68-1.91-11.15,8.5-23.05,18.37-35.05,29.95-7.22,7.01-13.91,14.02-19.97,20.71,1.91,2.44,6.48,7.43,14.02,10.41,5.63,2.12,10.62,2.23,13.59,2.12,6.8-4.78,11.58-9.56,14.44-12.85,10.09-10.94,6.69-12.32,23.58-33.99Z"/><path class="cls-1" d="m377.42,617.9c-5.42-2.97-10.51-2.76-12.85-2.55-6.27,8.07-12.53,16.67-18.9,26.02-8.82,13.06-16.46,25.7-23.15,37.7,2.66.96,5.95,1.91,9.88,2.23,8.07.85,14.66-.85,18.59-2.23,2.66-3.5,5.31-7.22,7.97-11.15,10.51-15.61,18.48-31.01,24.43-45.14-1.06-1.38-3.08-3.29-5.95-4.89Z"/><path class="cls-1" d="m387.51,690.23c3.61-5.52,7.22-8.92,10.83-15.4,7.01-12.43,12.96-24.53,17.95-35.9.53-1.27.32-2.76-.64-3.82-1.81-2.12-4.67-4.78-8.6-6.9-3.4-1.81-6.58-2.76-9.13-3.29-1.7-.32-3.5.64-4.14,2.34-2.76,7.33-5.42,13.17-7.54,17.1-7.75,15.19-14.02,21.56-21.03,37.7-1.49,3.5-2.66,6.58-3.5,9.03-.64,1.81.21,3.72,1.91,4.46h0c8.71,3.82,17.84-1.81,22.3-4.14.74-.21,1.27-.64,1.59-1.17Z"/><path class="cls-1" d="m431.59,636.91c-1.59,2.02-3.93,4.99-6.58,8.71-3.5,4.99-14.02,20.29-26.55,54.17-2.97,7.97-8.6,20.39-12.11,32.82-.64,2.34,1.38,4.57,3.72,4.04,2.76-.64,5.74-.64,7.65-2.34,40.89-37.49,48.22-67.02,49.7-75.62-.11-2.34-.85-8.5-5.52-14.34-3.82-4.46-8.18-6.58-10.3-7.43Z"/><path class="cls-1" d="m1045.79,387.33c-95.91,21.24-130.95,26.13-193.62,24.75-62.66-1.38-137.33-12.32-150.5-12.32s-84.22.96-81.04,25.17c3.19,24.43,21.45,26.76,26.23,46.41,8.71,36.32-4.67,76.68-9.77,91.44-.74,2.12,1.81,3.82,3.5,2.34,7.54-6.9,22.2-24.64,30.69-40.25,7.22-13.38,5.31-15.19,4.57-23.05-.74-7.75-2.97-5.1-4.99-8.18-4.35-6.69-.74-11.26-1.81-21.56-1.17-12.11,4.78-16.36,10.3-26.23,8.82-15.93,53-14.98,91.02-10.3,48.11,5.95,89.96,10.09,148.37,1.38,38.55-5.74,72.96-7.12,96.33-10.94,19.01-3.29,45.24-41.85,30.69-38.66Z"/><path class="cls-1" d="m753.93,467.41c12.53,2.34,24.75,4.46,36.64,6.37,1.7.21,22.52,2.87,34.84-11.9,4.99-6.05,6.69-12.53,7.33-16.46-25.17.21-51.72-.64-79.66-2.66-12.43-.96-24.64-2.02-36.43-3.4-7.86-1.7-15.61.32-20.18,5.63-1.81,2.12-2.87,4.46-3.4,6.37-.32,1.27.42,2.66,1.81,2.97,18.69,4.78,38.45,9.13,59.05,13.06Z"/><path class="cls-1" d="m677.25,465.92c-1.59,4.67,0,8.71.32,9.66,21.35,8.39,44.08,16.67,68.08,24.32,12.85,4.14,25.49,7.86,37.81,11.36,12.21-.21,22.52-6.58,26.13-16.04,2.34-6.16,4.04-11.9,3.19-14.76-22.3-1.27-49.81-3.93-76.47-8.82-19.44-3.5-37.38-7.86-53.85-12.43-.85.64-3.72,2.66-5.2,6.69Z"/><path class="cls-1" d="m782.07,536.34c4.99-5.74,4.35-12.64,4.25-13.81-11.36-2.87-23.26-6.05-35.37-9.88-24.22-7.54-46.09-16.04-65.85-24.75-.42,1.17-.85,2.44-1.06,3.82-1.17,5.95,2.12,10.73,3.19,13.91,14.13,10.51,31.44,22.52,56.08,30.59,8.28,2.76,12.11,3.82,19.54,5.31.85.11,13.38,1.59,19.22-5.2Z"/><path class="cls-1" d="m686.17,517.64c-.96.42-4.67,2.12-6.69,6.37-2.23,4.67-.96,9.03-.74,9.88,12.64,10.2,27.08,20.71,43.54,30.8,7.12,4.35,12,7.33,18.8,10.94,2.34.32,8.6,1.7,12.85-.42,7.01-3.4,13.38-12.64,12.96-21.88-11.68-3.82-26.55-7.65-40.04-13.81-15.51-7.12-28.99-14.66-40.68-21.88Z"/><path class="cls-1" d="m669.81,541.65c-6.16,4.04-5.63,11.05-6.05,13.06,5.42,7.22,9.45,14.87,16.67,22.62,10.09,11.05,19.97,19.75,29.21,27.4,2.87.74,7.43,1.59,12.74.32,9.77-2.23,15.61-9.35,18.27-13.7.96-1.59.42-3.72-1.27-4.57-11.58-5.84-24.75-13.59-38.45-24-10.41-7.97-19.22-15.93-26.55-23.37-1.27.53-2.87,1.17-4.57,2.23Z"/><path class="cls-1" d="m650.06,567.56c-1.81,1.81-2.87,3.72-3.5,5.2,4.14,11.15,10.2,24.96,25.17,37.28,2.66,2.12,5.52,8.5,8.18,10.09,1.27.53,6.37-.96,10.94-1.91,3.4-.74,8.28-2.55,11.36-4.04,1.49-.74,1.7-2.66.53-3.72-5.52-4.78-14.66-11.9-18.9-16.67-10.73-12.21-17.95-20.39-24.85-31.44-2.02.42-5.74,1.81-8.92,5.2Z"/><path class="cls-1" d="m640.39,581.69c-.64.11-2.12.32-3.4,1.38-2.55,2.23-2.12,5.74-2.12,6.05,2.34,3.5,4.89,7.75,7.12,12.74,4.35,9.56,6.27,18.37,7.12,25.17.64.53,4.25,3.93,9.56,3.5,4.57-.32,8.6-3.19,10.62-7.43-7.33-9.56-15.72-18.8-23.05-29.74-2.44-3.61-3.72-8.18-5.84-11.68Z"/><path class="cls-1" d="m1022.84,441.49c-8.82-5.52-17.84-6.05-22.41-6.05-50.34,4.14-100.79,8.28-151.13,12.43-.64,0-4.04.32-6.58,3.19-1.59,1.7-2.12,3.72-2.34,5.2-.21,1.59,1.06,2.87,2.66,2.97,14.55.53,26.34.85,34.2,2.12,45.14,7.43,60.96,9.77,97.92,10.83,13.28.42,24.11,0,30.59-.32,4.14-2.12,9.98-5.74,15.61-11.58,3.61-3.72,6.16-7.43,8.07-10.62.64-1.06.53-2.55-.42-3.4-1.59-1.49-3.61-3.19-6.16-4.78Z"/><path class="cls-1" d="m998.31,478.98c-8.92.21-18.06.32-27.4.21-49.39-.42-94.84-5.95-135.63-14.02-.53.11-2.97.74-4.57,3.19-.96,1.49-1.06,2.97-1.06,3.72,12.85,4.67,26.23,9.24,40.15,13.59,39.93,12.43,77.74,21.03,112.79,27.08,16.25-2.12,25.91-13.06,24.96-21.77-.64-6.58-7.12-10.73-9.24-12Z"/><path class="cls-1" d="m975.16,519.34c-25.17-3.4-53-9.03-83.05-16.14-31.01-7.43-44.82-14.23-67.87-21.14-2.12-.64-4.25.21-5.1,2.23-.42.96-.74,2.23-.85,3.5-.42,4.99,2.34,8.6,2.97,9.35,7.75,3.5,15.61,6.9,23.37,10.41,36.75,16.25,73.28,32.07,109.61,47.58,16.99,2.55,32.29-9.13,33.14-19.33.96-9.98-11.36-15.93-12.21-16.46Z"/><path class="cls-1" d="m949.24,564.27c-4.89-2.97-12-6.9-20.6-11.36-33.67-17.21-49.28-18.9-77.96-33.14-7.12-3.5-17.1-5.95-28.57-14.13-1.7-1.17-3.93-1.49-5.84-.64-1.91.85-4.25,2.23-6.48,4.35-1.27,1.27-2.34,2.55-3.19,3.82-1.81,2.66-1.06,6.37,1.59,8.18,2.87,2.02,6.37,4.35,10.41,6.9,20.5,12.96,41.74,23.26,56.5,29.74,13.81,6.05,25.7,13.59,52.57,23.37.42.11.74.32,1.17.42,10.62,2.76,19.86-.85,22.62-7.01.32-.85,1.17-3.08.64-6.37-.32-1.7-1.38-3.19-2.87-4.14Z"/><path class="cls-1" d="m906.97,582.75c-12.21-4.89-21.77-9.35-28.14-12.53-26.55-13.06-38.66-22.83-69.57-37.38-5.2-2.44-9.56-4.35-12.21-5.52-1.49.64-3.72,1.81-5.84,4.04-4.46,4.57-5.84,11.26-4.78,15.82,1.81,7.43,11.05,10.83,18.27,13.91,18.48,7.97,7.33,7.43,57.78,37.92,0,0,.32.21,28.78,17.1,3.61.85,10.2,2.02,18.06.21,5.2-1.17,9.24-3.19,11.9-4.78-.64-4.14-2.02-10.2-5.52-16.78-2.76-5.42-6.05-9.35-8.71-12Z"/><path class="cls-1" d="m858.33,609.09c-23.05-16.14-36.54-21.77-61.39-40.15-6.16-4.57-11.26-8.6-14.98-11.58-1.49-1.17-3.61-.96-4.67.53-1.81,2.34-3.72,5.1-5.52,8.39-1.91,3.4-2.12,7.75-3.08,10.51-.53,1.38,0,2.97,1.27,3.82,6.48,4.46,14.34,9.98,24.11,18.8,28.46,25.81,36,45.24,57.56,48.86,3.72.64,13.06,2.02,22.52-2.97,5.95-3.08,9.77-7.65,12-11.05.96-1.38.64-3.29-.64-4.35-10.94-9.24-20.5-16.25-27.19-20.82Z"/><path class="cls-1" d="m817.44,633.2c-15.19-12.74-24.75-17.1-40.89-31.65-7.43-6.69-13.06-12.64-16.46-16.46-.32-.11-4.57-.74-7.65,2.34-2.23,2.23-2.97,5.42-2.12,8.5,9.56,15.93,23.9,35.37,44.82,53.63,7.86,6.9,15.72,12.64,23.05,17.52,2.12.42,7.86,1.17,14.13-1.59,3.5-1.49,6.48-4.04,8.5-6.16,1.49-1.49,1.49-3.93.11-5.52-9.03-9.66-17.84-15.93-23.47-20.6Z"/><path class="cls-1" d="m778.67,641.48c-12-11.58-23.9-21.56-35.05-29.95-2.87,0-7.01.32-11.68,1.91-2.12.74-4.04,1.59-5.63,2.44-1.27.64-1.49,2.34-.53,3.4,2.02,2.12,4.78,5.42,7.22,8.6,16.89,21.67,13.59,23.05,23.47,34.09,2.97,3.29,7.65,8.07,14.44,12.85,2.97.11,7.97,0,13.59-2.12,7.54-2.87,12.11-7.86,14.02-10.41-5.95-6.9-12.53-13.81-19.86-20.82Z"/><path class="cls-1" d="m715.27,621.51c-2.23-.21-7.43-.32-12.85,2.55-2.87,1.59-4.78,3.4-6.05,4.89,5.95,14.13,13.91,29.53,24.43,45.14,2.66,3.93,5.31,7.65,7.97,11.15,3.93,1.38,10.51,3.08,18.59,2.23,3.93-.42,7.22-1.27,9.88-2.23-6.58-12-14.23-24.64-23.15-37.7-6.27-9.35-12.53-17.95-18.8-26.02Z"/><path class="cls-1" d="m714.42,688.21c-6.9-16.14-13.28-22.52-21.03-37.7-2.02-4.04-4.78-9.77-7.54-17.1-.64-1.7-2.34-2.66-4.14-2.34-2.55.53-5.74,1.38-9.13,3.29-3.93,2.12-6.8,4.89-8.6,6.9-.96,1.06-1.17,2.55-.64,3.82,5.1,11.47,10.94,23.47,17.95,35.9,3.61,6.37,7.22,9.88,10.83,15.4.32.53.85.96,1.38,1.27,4.35,2.23,13.59,7.97,22.3,4.14h0c1.7-.74,2.55-2.76,1.91-4.46-.64-2.66-1.81-5.74-3.29-9.13Z"/><path class="cls-1" d="m681.49,705.95c-12.53-33.88-23.05-49.17-26.55-54.17-2.66-3.72-4.99-6.8-6.58-8.71-2.23.85-6.48,2.97-10.09,7.43-4.67,5.84-5.42,12-5.52,14.34,1.49,8.6,8.71,38.23,49.7,75.62,1.81,1.7,4.89,1.7,7.65,2.34,2.34.53,4.35-1.7,3.72-4.04-3.61-12.43-9.35-24.85-12.32-32.82Z"/><path class="cls-1" d="m471.52,349.09c0,1.59,1.27,2.87,2.87,2.97l27.93,2.97,1.81,17.1c.32,3.29,1.59,8.07,3.72,13.06,1.59,3.72,5.63,11.15,5.63,11.15l-.11,9.45c8.18-1.81,15.51-2.55,21.03-2.87,0,0,1.81-.11,5.1-.11h.21c3.19,0,5.1.11,5.1.11,5.31.32,12.43.96,20.29,2.66l-.11-9.03s4.04-7.43,5.63-11.15c2.12-5.1,3.4-9.77,3.72-13.06l1.81-17.1,27.93-2.97c1.59-.11,2.87-1.38,2.87-2.97v-11.36c0-1.06-.85-1.91-1.91-1.91-15.51-.42-32.71-2.12-48.54-2.66-5.1-11.15-4.99-35.79-4.67-25.6-1.06-30.48.11-47.16,3.5-72.01l6.37.11c1.27,0,2.44-1.06,2.44-2.34v-24.53c0-1.27-.96-2.23-2.12-2.34-2.66-.21-5.31-.42-7.97-.64-.11-1.27-.96-6.69-5.84-10.73-3.19-2.66-6.58-3.29-8.5-3.5v-.42c-1.49.11-5.52.53-9.24,3.61-4.89,3.93-5.74,9.45-5.84,10.73-2.66.21-5.31.42-7.97.64-1.17.11-2.12,1.17-2.12,2.34v24.53c0,1.27,1.06,2.34,2.44,2.34l6.37-.11c3.4,24.96,4.57,41.63,3.5,72.01.32-10.2.42,14.55-4.67,25.6-15.82.53-32.92,2.12-48.54,2.66-1.06,0-1.91.85-1.91,1.91v11.47h-.21Z"/><path class="cls-1" d="m566.37,710.41h-54.48l-.42,81.57c-.32,12.85,4.57,43.12,10.41,63.94,5.2,18.27,10.73,21.88,16.78,31.22v1.49c.21-.21.32-.53.53-.74.11.21.21.32.32.53v-.96c6.16-9.45,11.68-12.96,16.78-31.22,5.84-20.82,10.73-51.09,10.41-63.94l-.32-81.89Z"/><path class="cls-1" d="m627.01,580.09c-5.63-7.12,22.2-60.22,7.54-107.06-17.21-55.02-68.08-63.62-90.17-64.68,0,0-1.91-.11-5.1-.11h-.21c-3.19,0-5.1.11-5.1.11-21.98,1.17-72.96,9.66-90.06,64.68-14.66,46.94,13.17,99.94,7.54,107.06-22.62,28.68,8.18,74.13,12.32,77.85,7.54,6.8,31.65-6.9,27.83.11-2.87,5.42-5.52,45.99-5.52,45.99h7.43l3.61-14.13,6.37-.11,1.27,14.23h13.06l1.27-13.59,4.35-.64.64,14.23h10.51l.53-14.55h8.6l.53,14.55h10.51l.64-14.23,4.35.64,1.27,13.59h12.64l1.27-14.23,6.37.11,3.61,14.13h7.43s-2.66-40.57-5.52-45.99c-3.82-7.12,20.29,6.58,27.83-.11,4.14-3.72,34.94-49.17,12.32-77.85Zm-101.85,29.74c-2.97,3.61-7.22,7.97-12.96,11.47-13.91,8.6-27.61,7.33-33.24,6.48-.32,0-.74-.21-1.06-.42-12.11-8.39-16.78-21.56-13.17-29.74.53-1.27,2.55-5.42,8.92-7.97.32-.11.74-.21,1.06-.21,7.65.74,17.21,2.44,27.83,6.05,8.6,2.87,15.82,6.48,21.77,9.88,1.59.85,2.02,2.97.85,4.46Zm29.1,49.6c0,.96-1.06,1.27-1.59.53-1.27-1.81-3.08-3.93-5.52-5.84-2.55-2.02-4.99-3.4-7.01-4.14-1.91.74-4.35,2.02-7.01,4.14-2.44,1.91-4.25,4.04-5.52,5.84-.53.74-1.59.32-1.59-.53-.42-6.9-.11-21.14,9.45-31.44,1.27-1.38,2.87-2.55,4.67-3.61,1.81,1.17,3.5,2.34,4.67,3.61,9.56,10.3,9.88,24.53,9.45,31.44Zm46.52-32.07c-.32.21-.64.32-1.06.42-5.52.85-19.33,2.02-33.24-6.48-5.74-3.5-9.98-7.86-12.96-11.47-1.06-1.38-.74-3.5.74-4.35,5.95-3.4,13.28-6.9,21.77-9.88,10.62-3.61,20.18-5.31,27.83-6.05.32,0,.74,0,1.06.21,6.37,2.55,8.39,6.69,8.92,7.97,3.72,8.07-.96,21.24-13.06,29.63Z"/></svg>