<?xml version="1.0" encoding="UTF-8"?><svg id="Capa_1" xmlns="http://www.w3.org/2000/svg" viewBox="0 0 1080 1080"><defs><style>.cls-1{fill:#fff;stroke-width:0px;}</style></defs><g id="g6"><circle id="circle2" class="cls-1" cx="539.96" cy="440.7" r="76.89"/><path id="path4" class="cls-1" d="m644.83,113.5h-209.75l-167.77,271.31,144.03,581.69h257.32l144.03-581.69-167.85-271.31Zm69.8,482.57l-32.6,32.6-88.22-88.22c-9.74,5.23-20.28,9.12-31.44,11.34v346.25h-46.15v-346.6c-10.72-2.3-20.9-6.11-30.29-11.25l-88.4,88.49-32.6-32.6,85.74-85.74c-10.63-13.55-18.16-29.67-21.7-47.21h-88.93v-46.15h89.2c9.3-43.49,43.49-77.68,86.98-86.98v-37.2c-51.11-10.9-89.46-56.34-89.46-110.72h36.32c0,42.52,34.46,76.89,76.89,76.89s76.89-34.46,76.89-76.89h36.32c0,54.92-39.06,100.62-90.88,111.08v36.49c44.11,8.86,79.01,43.31,88.4,87.25h93.45v46.15h-93.09c-3.54,17.63-11.16,33.84-21.88,47.48l85.48,85.57Z"/></g></svg>