<?xml version="1.0" encoding="UTF-8"?><svg id="Capa_1" xmlns="http://www.w3.org/2000/svg" viewBox="0 0 1080 1080"><defs><style>.cls-1{fill:#fff;stroke-width:0px;}</style></defs><g id="layer1"><path id="path818" class="cls-1" d="m540.05,113l-86.62,85.63h48.13v248.45l-87.77-87.77,34.04-34.04-121.81.77-.66,121.71,33.94-33.94,87.69,87.66h-248.37v-48.02l-85.63,86.51,85.63,86.62v-48.02h248.45l-87.71,87.71-33.99-33.99.66,121.7,121.81.77-34.04-34.04,87.77-87.77v248.45h-48.13l86.62,85.63,86.62-85.63h-48.13v-248.41l87.77,87.74-34.04,34.04,121.81-.77.66-121.7-33.99,33.99-87.71-87.71h248.34v48.02l85.63-86.62-85.63-86.51v48.02h-248.34l87.66-87.66,34.04,34.04-.77-121.81-121.7-.66,33.99,33.99-87.71,87.71v-248.45h48.13l-86.62-85.63Z"/></g></svg>
