<?xml version="1.0" encoding="UTF-8"?><svg id="Capa_1" xmlns="http://www.w3.org/2000/svg" viewBox="0 0 1080 1080"><defs><style>.cls-1{fill:#fff;stroke-width:0px;}</style></defs><g id="layer1"><path id="path826" class="cls-1" d="m748.37,112c-79.57,36.94-135.14,111.47-147.91,198.19h-22.56V112h-75.79v198.19h-22.56c-12.78-86.73-68.34-161.25-147.91-198.19v84.32c49.57,19.88,85.99,62.54,98.24,113.87h-67.15v75.78h67.14c-12.14,50.9-48.24,93.83-98.23,113.89v84.36c80.29-37.28,135.31-112.31,147.93-198.24h22.54v219.12h-170.47l208.36,360.9,208.37-360.9h-170.47v-219.12h22.54c12.63,85.93,67.64,160.96,147.93,198.24v-84.36c-49.99-20.05-86.09-62.99-98.23-113.89h67.14v-75.78h-67.15c12.25-51.34,48.67-93.99,98.24-113.87v-84.32Zm-326.86,543.27h236.99l-118.5,205.24-118.5-205.24Z"/></g></svg>