<?xml version="1.0" encoding="UTF-8"?><svg id="Capa_1" xmlns="http://www.w3.org/2000/svg" viewBox="0 0 1080 1080"><defs><style>.cls-1{fill:#fff;stroke-width:0px;}</style></defs><path id="path2" class="cls-1" d="m962.76,597.9c-18.62,0-33.63-17.94-33.63-39.96s15.01-39.96,33.63-39.96c8.77,0,16.77,4,22.71,10.53,1.85,2.05,5.26.78,5.26-2.05-.29-31.39-3.02-60.92-8.09-88.8-.49-2.73-4.29-3.41-5.56-.97-3.9,7.31-10.33,12.96-18.52,15.4-17.35,5.17-36.07-6.24-41.72-25.44-5.65-19.2,3.8-38.99,21.15-44.06,9.36-2.73,19.01-.78,26.9,4.68,2.34,1.66,5.46-.68,4.58-3.41-11.7-37.24-28.07-70.67-48.45-100.3-1.95-2.83-6.14-1.85-6.82,1.46-1.27,6.34-4.29,12.28-9.07,17.06-13.55,13.55-36.26,12.87-50.59-1.56-14.43-14.43-15.11-37.14-1.56-50.59,6.53-6.53,15.11-9.75,23.98-9.75,3.41,0,5.07-4,2.73-6.43-27.68-27.68-59.75-50.59-95.53-68.91-3.12-1.66-6.53,1.66-5.17,4.87,3.61,8.48,4,17.84.1,26.32-7.9,17.16-30.12,23.88-49.71,14.91-19.59-8.97-29.05-30.22-21.15-47.37,3.51-7.7,9.94-13.35,17.74-16.28,3.22-1.27,3.12-5.95-.19-7.12-56.24-19.11-118.82-28.66-185.49-28.66h-.1c-253.34,15.5-425.38,226.24-450.92,414.56-.19,1.36.88,2.63,2.34,2.53,38.7-.88,115.9-2.44,154.01-7.21,4.19-.49,4.97-6.24,1.07-7.9-14.72-6.34-24.37-12.96-26.71-20.47-.49-1.46.68-2.92,2.24-2.92,11.6.29,47.67-9.55,65.7-22.71,1.46-1.07,1.17-3.31-.49-4-7.21-2.92-23.49-6.53-20.27-9.84,20.96-4.68,47.76-10.62,73.01-28.27,1.56-1.07,1.17-3.61-.78-4.09-17.35-4.39-30.41-9.36-35.38-15.99-1.07-1.46-.19-3.41,1.56-3.61,25.64-2.44,55.07-4,77.2-17.35,1.66-1.07,1.36-3.61-.58-4.09-16.96-4.97-31.19-10.92-29.63-23.2.1-1.07.97-1.85,2.05-1.95,77.3-8.29,115.02,19.49,114.34,82.37,0,.97-.58,1.85-1.56,2.14-19.3,6.53-39.09,4-61.41,1.85-1.85-.19-3.12,1.75-2.24,3.41,6.14,10.82,11.01,17.74,13.65,22.22.49.78.39,1.75-.1,2.53-10.04,13.65-22.71,9.26-41.91-1.46-1.46-.78-3.31.19-3.41,1.85-.29,8.68,3.9,14.23,8.77,19.4.78.88.88,2.14.1,3.02-10.43,12.28-29.44,11.4-50.1,7.41-3.41-.68-5.85,3.31-3.61,6.04,5.26,6.43,9.94,11.5,13.74,14.23,1.36.97,1.27,3.12-.29,3.9-10.72,5.26-26.22,5.95-42.5,5.46-3.8-.1-5.17,4.97-1.85,6.73,34.6,18.42,89.29,20.18,136.66,14.13.58-.1,1.07-.29,1.36-.78,43.18-48.15,96.89-81.68,158.98-103.81,1.85-.68,2.05-3.22.29-4.19-13.74-7.12-25.54-18.72-34.99-34.21-.88-1.46.19-3.41,1.95-3.41,124.87-.29,190.37,68.43,194.95,208.4v.49c-24.17,132.27-123.79,210.45-241.74,226.92h0c-137.05,9.55-254.6-52.05-360.07-173.99-1.56-1.85-4.48-.29-3.9,2.05,26.81,103.03,90.46,193.29,196.22,248.46,1.85.97,4.19-.29,4.39-2.34.29-3.51,1.56-6.82,3.9-9.55,7.02-8.38,21.15-8.09,31.39.58,10.33,8.68,12.96,22.52,5.85,30.8-.19.29-.49.49-.68.78,15.99,6.14,32.65,11.7,50.3,16.38,2.34.58,4.48-1.66,3.61-3.9-1.17-3.22-1.56-6.63-.97-10.14,2.14-11.4,14.62-18.72,27.78-16.28,13.16,2.44,22.13,13.74,19.98,25.25-.78,4-2.73,7.51-5.56,10.23-1.75,1.75-.88,4.68,1.56,5.17,11.79,2.14,23.88,3.9,36.26,5.36h.19c15.6,0,31-.58,46.2-1.66,2.73-.19,3.8-3.61,1.66-5.36-5.56-4.58-9.07-11.11-9.07-18.33,0-14.04,13.06-25.34,29.24-25.34s29.24,11.31,29.24,25.34c0,4.87-1.66,9.46-4.39,13.35-1.56,2.14.19,5.17,2.92,4.78,30.7-4.78,60.14-11.89,88.21-21.44,2.63-.88,2.73-4.68.1-5.65-5.95-2.24-11.11-6.34-14.43-12.09-8.19-14.23-2.05-33.14,13.65-42.21,15.79-9.07,35.19-4.97,43.38,9.26,4.97,8.68,4.68,19.01.1,27.88-1.27,2.53,1.36,5.26,4,4.09,34.9-16.28,66.97-36.65,95.43-61.21,1.95-1.66.97-4.97-1.66-5.26-6.53-.58-12.96-3.22-18.42-7.7-14.33-11.99-15.99-33.43-3.9-47.86,12.18-14.43,33.63-16.38,47.86-4.39,6.92,5.85,10.92,13.94,11.79,22.42.29,2.63,3.51,3.7,5.26,1.66,19.88-23.2,37.24-49.13,51.76-77.69,1.17-2.34-1.07-5.07-3.61-4.19-7.7,2.53-16.38,2.53-24.76-.49-18.81-6.92-28.85-26.81-22.32-44.45,6.53-17.64,27-26.42,45.81-19.49,9.55,3.51,16.86,10.43,20.86,18.62,1.17,2.44,4.68,2.24,5.56-.29,10.62-30.12,18.42-62.58,23.2-97.47-4-2.05-1.07-.58-4.97-2.63-5.75,4.39-12.48,7.21-19.88,7.21h0ZM221.27,346.22c-3.8,2.73-8.58-1.66-6.24-5.65,15.99-26.9,45.42-63.85,81.49-85.78,13.45-2.24,23.1-.88,26.32,6.82-13.26,17.55-62.68,56.44-101.57,84.61Z"/></svg>