<?xml version="1.0" encoding="UTF-8"?><svg id="Capa_1" xmlns="http://www.w3.org/2000/svg" viewBox="0 0 1080 1080"><defs><style>.cls-1{stroke-width:0px;}</style></defs><g id="g8"><path id="path2" class="cls-1" d="m508.55,140c-2.39,0-4.87,0-7.26.09v68.3l-39.86,3.99v57.76c-19.75,3.1-38.71,8.33-56.78,15.5l-30.47-48.9c-9.74,2.66-22.77,7.26-36.76,15.5-14.53,8.59-25.16,18.16-32.33,25.69,0,0,20.02,31.8,30.21,47.57-15.86,12.58-30.38,26.84-43.14,42.52l-52.18-27.28c-7.18,7.71-15.68,18.43-23.47,32.33-8.15,14.62-12.76,28.08-15.5,38.53,16.21,9.74,32.42,19.58,48.72,29.32-6.91,17.72-11.96,36.23-15.06,55.54l-60.68,5.05c-1.24,10.72-2.13,22.59-2.21,35.43-.09,15.15.8,28.97,2.21,41.19,20.02.97,40.13,1.95,60.15,2.92,3.1,20.82,8.59,40.84,16.12,59.88l-49.25,25.87c2.21,9.21,5.94,20.82,12.4,33.22,9.04,17.45,20.02,29.94,28.35,38.09l48.37-28.08c12.67,15.95,27.02,30.47,42.79,43.23l-29.23,49.08c8.5,6.64,18.25,13.55,29.23,20.37,14.53,8.95,28.35,15.86,40.75,21.26,9.74-16.57,19.58-33.13,29.32-49.61,18.69,7.44,38.36,12.93,58.82,16.21v53.86c8.59,3.63,21.44,7.44,36.32,5.32,1.06-.18,2.13-.35,3.1-.53v70.69c2.39,0,4.78.09,7.26.09,220.84,0,399.87-179.03,399.87-399.87s-178.94-400.13-399.78-400.13Zm293.66,536.73c-9.3,20.02-20.64,38.98-33.66,56.52l-52-26.66c-7.62,4.34-15.86,13.02-25.25,21.26-10.28,9.04-18.87,15.41-24.36,23.03,3.63,6.64,7.26,13.38,10.9,20.11,6.02,11.16,13.2,24.63,17.89,33.66-18.69,13.29-38.8,24.63-60.15,33.75l-29.76-47.66c-10.98,2.21-22.59,5.76-34.55,8.86-11.25,2.92-21.88,5.23-31.89,8.42v54.74c-10.28.97-20.64,1.51-31.18,1.51h-3.37v-110.73l-7.09,1.86v-20.02h-6.73l-.8,21.44h-16.92l-.97-20.91-7,.97-1.95,19.93h-20.91l-1.95-20.91-10.28.09-5.76,20.73h-11.96s4.25-59.62,8.86-67.5c6.11-10.36-32.51,9.74-44.65-.18-6.73-5.49-56.16-72.2-19.75-114.18,9.04-10.45-35.61-88.23-12.05-157.15,27.64-80.7,109.31-93.28,144.66-94.96,0,0,2.92-.18,8.15-.18h.09v318.1c.53-.27,1.06-.62,1.59-.89,2.92,1.68,5.58,3.37,7.53,5.32,15.32,15.15,15.77,36.05,15.15,46.15-.09,1.42-1.77,1.95-2.66.89-2.13-2.66-4.96-5.76-8.86-8.59-4.16-3.01-8.06-4.96-11.16-6.02-.53.18-1.06.44-1.59.62v57.23h7l.8,21.44h16.92l.97-20.91,7,.97,1.95,19.93h20.91l1.95-20.91,10.28.09,5.76,20.73h11.96s-4.25-59.62-8.86-67.5c-6.11-10.36,32.51,9.66,44.65-.18,6.73-5.49,56.16-72.2,19.75-114.18-9.04-10.54,35.52-88.32,12.05-157.15-27.64-80.7-109.31-93.28-144.66-94.96v-106.57h2.13c9.04,0,17.98.35,26.84,1.06l4.34,52.62c8.15,3.45,18.16,5.05,28.35,7.97,14.35,4.16,26.66,8.33,38.09,9.74,10.63-14.79,21.26-29.68,31.98-44.47,18.87,8.24,36.85,18.25,53.59,29.76l-24.63,51.91c6.29,8.33,15.06,16.74,24.8,26.13,8.68,8.33,16.21,16.12,23.92,21.7,18.34-7.44,36.67-14.97,55.1-22.41,12.58,17.36,23.47,35.97,32.42,55.63l-51.2,30.56c1.86,10.28,5.32,21.61,8.86,33.66,4.07,13.64,7.8,25.78,12.4,36.32h57.31c1.15,11.16,1.77,22.41,1.77,33.84s-.62,23.12-1.77,34.37h-56.43c-4.78,8.06-8.15,19.31-12.4,31.89-5.05,15.06-8.95,27.64-9.74,38.09,16.74,10.72,33.48,21.44,50.23,32.16h0Zm-280.1-64.67c9.57-4.96,21.26-10.19,34.99-14.44,17.01-5.32,32.33-7.8,44.65-8.86.62-.09,1.15,0,1.77.27,10.19,3.72,13.46,9.83,14.35,11.6,5.76,12.05-1.68,31.36-21.26,43.67-.53.35-1.06.53-1.68.62-8.95,1.24-30.92,3.01-53.33-9.57-9.3-5.23-16.12-11.52-20.82-16.83-1.68-2.13-1.15-5.23,1.33-6.47Z"/><path id="path4" class="cls-1" d="m476.66,691.35c.09,1.42,1.77,1.95,2.66.89,2.13-2.66,4.96-5.76,8.86-8.59,3.45-2.48,6.82-4.25,9.57-5.4v-37.38c-2.3,1.33-4.34,2.83-5.94,4.43-15.32,15.06-15.77,35.88-15.15,46.06h0Z"/><path id="path6" class="cls-1" d="m474.27,612.06c-9.57-4.96-21.26-10.19-34.99-14.44-16.92-5.32-32.24-7.8-44.65-8.86-.62,0-1.15.09-1.77.27-10.28,3.72-13.55,9.83-14.35,11.6-5.76,12.05,1.68,31.27,21.17,43.67.44.35,1.06.53,1.68.62,8.95,1.24,31,3.01,53.33-9.57,9.3-5.23,16.12-11.52,20.82-16.83,1.59-2.13,1.15-5.23-1.24-6.47h0Z"/></g></svg>