<?xml version="1.0" encoding="UTF-8"?><svg id="Capa_1" xmlns="http://www.w3.org/2000/svg" viewBox="0 0 1080 1080"><defs><style>.cls-1{stroke-width:0px;}</style></defs><path class="cls-1" d="m800.27,665.11c-4.54,0-8.22-1.84-8.22-4.11,0-2.04,2.99-3.74,6.9-4.05l-26.99-53.03s-4.57,31.05-21,40.18c-6.51-3.61-26.18-24.4-34.08-32.9,15.88-15.83,29.46-33.97,40.22-53.85,10.27,2.56,25.74,8.53,41.35,14.6v7.31l26.48-2.74-18.27-13.7-4.57,4.57c-15.33-6.6-30.01-13.06-40.6-18.62,10.15-20.8,17.26-43.36,20.76-67.08,19.33-5.41,38.52-7.64,54.55,2.6-6.76,2.25-11.6,9.16-15.52,18.27,39.34-25.12,85.26-40.09,136.08-47.49-17.65-3.6-35.01-7.59-52.07-11.95l.93,4.65-3.75-5.37c-19.57-5.06-38.74-10.62-57.47-16.77-.17,1.69-.9,2.95-1.79,2.95-1.01,0-1.82-1.63-1.82-3.66,0-.17.02-.32.03-.48-8.31-2.77-16.55-5.65-24.69-8.65,0,0,8.22,19.18,4.57,21.92-3.06,2.29-26-3.74-37.12-6.3-1.55-22.07-6.18-43.29-13.52-63.23l14.1-10.84-17.59,1.95c-8.75-21.05-20.52-40.53-34.78-57.89,3.08-4.84,5.78-8.9,5.78-8.9,6.88-2.31,12.55.62,17.35,7.31,22.21-34.74,44.18-66.91,65.75-94.97-52.97,31.05-84.93,56.63-111.42,56.63,0,0,12.79,3.66,11.87,6.39-.91,2.74-2.74,5.48-2.74,5.48l-8.22-2.74c2,2.88,2.28,5.68.54,8.38-18.1-16.89-38.92-30.92-61.73-41.35-1.36-9.71-.9-20.64,0-32.78l-13.83,27c-19.77-7.53-40.83-12.43-62.77-14.28l-.37-6.39c1.91-1.17,3.91-2.62,3.91-3.58,0-1.13-2.8-8.56-4.93-14.05l-.09-1.48,6.84-6.38-6.25-16.86,12.62,3.14c-4.56-9.13-10.04-29.23-20.09-58.45-2.74,28.31-4.57,40.18-18.27,51.14h10.05c2.88,12.64,3.65,27.44,3.14,43.84h-4.96l4.89,1.83c-.08,2.13-.17,4.28-.3,6.46-1.99-.05-3.98-.08-5.98-.08-15.84,0-31.34,1.84-46.3,5.33-5.79-7.5-11.94-21.08-18.08-34.55l4.33,38.27c-9.21,2.83-18.17,6.3-26.84,10.36l-3.98-6.63,1.14,7.99c-15.2,7.4-29.47,16.63-42.54,27.45l-9.75-11.69c6.39-2.74,14.61-8.22,20.09-14.61-29.49-2.21-66.72-18.21-98.63-40.18,24.8,33.35,47.71,65.29,49.32,81.28l10.96-4.57,9.88,6.58c-15.18,15.77-28.16,33.95-38.38,54.03-10.3,1.42-22.08-2.02-34.52-7.65,10.29,8.38,19.68,17.04,25.88,26.73-2.78,6.98-5.24,14.13-7.36,21.46l-9.39,15.74,3.07,12.53c-.81,5.03-1.47,10.11-1.96,15.25-14.2-2.18-33.05-10.88-33.99-21.39-13.7,12.79-12.23-2.02-17.35-11.87-10.94,21.92-120.15,24.89-166.19,29.23,71.5,17.5,147.77,28.73,186.3,52.06v-20.09l30.14-3.77c.03,13.16,1,26.11,2.82,38.76,2.11.45,3.56,1.38,3.56,2.45,0,.95-1.12,1.78-2.83,2.28,1.17,7.24,2.65,14.37,4.39,21.37-6.87,4.33-16.25,9.02-26.21,13.79,10.76-.67,22.25-1.59,29.71-1.07,5.66,18.68,13.34,36.34,22.85,52.61l-4.15-1.32c-1.51,1.29-.39,3.71-2.12,5.39l-12.49-3.57,5.8,10.32c-5.55,5.75-12.09,12.75-19.92,20.72l1.33,7.32-5.92-2.69c-1.51,1.5-3.06,3.04-4.66,4.6l-.37,4.48-2.73-1.47c-7.28,7.03-15.44,14.56-24.67,22.47v14.61l-6.39-4.57,4.8,16.81-.8,1.02-12.22-3.21,3.94,13.81-3.46,4.42c-11.11-10.12-23.16-19.54-36.11-28.27l-89.98,155.22,1.39,2.78-2.44-.97-18.56,32.03,107.26-55.13c.83-1.49,1.8-3.05,2.88-4.66,4.66-6.89,9.63-11.67,11.09-10.68,1.13.76-.17,4.73-2.94,9.67l77.15-39.65c-9.04-15.04-19.52-28.99-31.33-41.95l19.46-11.02,8.22,7.31,22.88-20.42c-.25-.37-.48-.76-.67-1.17-2.84-6.18,2.28-14.62,11.45-18.83,4.83-2.21,9.8-2.81,13.85-1.98l17.66-15.76c6.77,3.16,13.32,7.49,19.76,12.5-2.41-7.54-6.01-14.4-10.55-20.73l5.73-5.12c17.06,15.45,36.62,28,58.3,36.94l-4.74,12.64h-1.26v3.35l-4.57,12.18h-3.66s.23,4.33.57,8.22l-2.4,6.39c-1.79,1.06-4.49-1.09-7.31-3.66,1.58,16.19-.09,30.71-2.74,44.75,6.54-14.31,13.92-26.72,22.83-35.61l-5.48-2.74,18.27-41.86c21.48,7.59,44.87,11.73,69.86,11.73.7,0,1.41-.02,2.1-.03.63,7.7.5,17.32.3,27.11l-5.61,3.06,5.92,2.78,1.15,21.71-11.62,2.91,12.34,10.81,2.27,43.08-21.92-23.75c14.65,37.45,26.8,77.33,36.97,119.17,1.38.49,2.3,1.34,2.3,2.3,0,.71-.5,1.36-1.3,1.84,5.96,24.91,11.23,50.51,15.92,76.7,10.1-62.16,21.53-122.96,35.61-180.83-7.99,12.85-15.96,24.01-23.75,26.48l-1.7-58.11,10.83-2.16-11.07-5.78-.76-25.96c3.57-2.03,7.25-3.87,7.25-3.87l-7.46-2.98c-2.01-13.18-4.62-26.97-4.93-38.43,4.43-.83,8.82-1.78,13.16-2.86,10.82,3.93,18.35,11.94,13.85,16.87l12.79,22.83,2.74-25.57c-3.31-8.84-3.34-16.76.24-23.64,15.89-6.31,30.91-14.34,44.85-23.85l39.84,36.53c-1.08,6.5-9.13,17.35-26.48,21l87.68,55.03c.86-.15,1.78-.23,2.73-.23,5.05,0,9.13,2.25,9.13,5.02,0,.76-.31,1.47-.86,2.11l80.31,50.4-73.09-143.62c-.82.14-1.73.23-2.68.23Zm-105.14-76.04l-48.39-49.98c17.16-16.34,29.6-37.85,34.58-62.75.3-1.52.56-3.04.81-4.56,5.85-4.15,11.68-7.58,14.94-7.58,8.22,0,14.61,4.57,16.44,8.22,8.22-4.57,31.97,1.82,31.97,1.82,1.96.74,3.65,1.89,5.12,3.36-2.86,19.42-8.48,37.92-16.42,55.09-8.5-.29-22.77-3.33-37.12-6.39,10.82,7.44,22.76,14.94,28.99,22.07-8.56,14.92-18.98,28.59-30.93,40.7Zm-206.91,44.71c-16.96-6.62-32.79-15.57-47.1-26.5,6.28-7.7,16.56-17.99,29-29.83,7.64,1.37,15.12,3.93,22.38,8.21-6.78-5.71-12.17-11.17-15.37-16.23,6.54-7.5,12.32-14.3,15.96-18.88,13.38,9.34,28.87,16.15,45.93,19.56,1.92.38,3.83.71,5.75,1.01-2.96,19.34,1.75,38.45,12.4,57.41-4.68,3.16-7.89.39-10.79-3.6,1.89,6.47,1.11,13.78-.99,21.51-18.28-1.17-35.87-4.92-52.44-10.88v-6.51l-4.75,4.73Zm-113.37-117.05c5.06-3.6,18.11-17.84,18.11-17.84l-18.45,2.95c.62-12.7,1.16-25.34,1.96-37.92,24.12-3.74,53.31-8.95,65-9.07.43,18.81,5.32,36.92,13.87,53.04-6.36,6.48-16.66,16.72-19.64,18.14-4.4,2.08-8.05-3.39-8.05-3.39,0,0-.72,5.75-1.47,12.4-7.13,11.18-16.1,20.65-27.4,27.96-9.86-14.17-17.95-29.71-23.94-46.28Zm176.05-162.45c4.42,12.71,8.03,27.59,11.01,44.16,4.61-22.39,2.1-32.43,3.07-44.52,5.59.23,11.23.89,16.89,2.02,13.29,2.66,25.49,7.65,36.25,14.45,1.42,6.28,1.47,13.86-1.42,13.43,0,0-15.52,5.48-16.44,8.22-.92,2.74-8.22,19.18-8.22,19.18,0,0,17.35-6.39,21-5.48,3.65.91,8.22,1.82,8.22,1.82-2.94-7.33,5.34-16.05,16.27-21.39,12.27,12.69,21.14,28.28,25.57,45.26-13.11,1.53-27.16,1.62-41.84.79l-12.79,8.22-11.87,5.48c23.88,10.21,42.89,19.77,41.09,26.48,8.55-4.27,16.63,2.59,24.61,11.55-5.33,18.25-15.64,33.98-29.21,46.08-12.67-7.71-34.55-30.88-54.76-51.24,15.63,23.44,30.99,46.65,38.64,63.02-8.33,4.93-17.39,8.71-26.92,11.19-1.49-3.05-2.27-6.04-2.59-8.97-3.21-6.53-4.09-12.61,0-17.75,0,0-10.05,0-10.22-3.23-7.12-6.82-11.81-28.71-14.43-40.61l-15.52,26.48c-3.58-.53,2.47,39.16.89,46.39-2-.29-4-.62-5.99-1.02-13.94-2.79-26.69-8.16-37.83-15.47,1.09-15.77,10.23-44.69,22.84-68.26-16.81,8.05-33.33,16.08-40.18,22.83-2.42-2.64-1.67-6.21,0-10.05-6.82,5.23-13.54,9.55-20.09,12.14-5.26-11.4-8.4-23.79-9.04-36.59,8.43-4.86,28.55-12.55,56.53-22.12-18.18-6.04-39.83-12.72-50.41-17.35,6.16-16.5,16.51-30.65,29.62-41.55,8.09,4.15,14.91,9.66,16.22,20.54,9.02,2.62,19.34,11.17,30.14,21.92-11.67-16.83-20.18-31.55-21-41.09-7.77-.96-10.51-5.39-11.11-11.31,12.92-7.46,27.59-12.22,43.01-13.65Zm89.97-86.69c15.17,7.31,29.26,16.54,41.97,27.4-3.96,5.59-13.11,14.53-20.93,22.61l4.57,3.66-15.52,7.31-18.27,12.79,11.87,10.05-11.46,3.97c-13.63-9.74-29.52-16.83-47.04-20.33-5.85-1.17-11.7-1.89-17.49-2.21l1.88-36.51,6.07-4.73-5.35-9.36,1.69-32.97c20.13,1.57,39.39,6.27,57.35,13.6-.81,4.18-3.98,10.54-7.11,16.86l17.75-12.13Zm79.95,124.45v-8.22c6.33-1.82,12.68-4.95,20.83-2.52,4.61,13.3,7.89,27.25,9.64,41.68-6.69,6.73-32.83,12.89-35.94,12.89-3.66,0-12.79-5.48-12.79-5.48l-21.42-1.71c-4.41-21.03-14.45-40.43-28.79-56.2,3.34-3.22,6.83-6.47,6.83-6.47l14.61-10.96,8.22-10.05,4.57-3.66,6.39-5.48c6.72-3.81,13.53-6.88,20.57-7.93,8.47,11.47,15.76,23.89,21.67,37.09-4.31,4.05-10.98,7.79-18.03,11.48l-2.74-2.74-15.52,13.7,21.9,4.57Zm-274.94,27.99c-15.07-1.06-39.9-4.55-63.61-7.75,2.92-16.3,7.15-32.5,13.48-48.58,5.77.15,11.54.77,17.3,1.86-4.7-3.18-9.41-6.37-14.11-9.55,6.11-13.93,13.89-27.77,23.9-41.51,18.56,15.09,36.06,33.16,52.32,54.7-13.52,13.89-23.79,31.16-29.28,50.83Zm175.39,216.03l-2.74-9.29-1.92,10.87c-6.45,2.08-13.05,3.84-19.77,5.23l-8.54-72.98c11.42-2.42,22.34-6.46,32.45-11.92l46.9,54.31c-14.22,9.91-29.79,17.96-46.38,23.79Zm-64.76-387.37c-2.82,26.19-6.97,54.72-10.13,84v.96c-17.28,2.23-33.66,8.15-48.11,17.06-30.13-26.81-58.16-52.53-48.59-68.63,13.78-9.4,28.8-17.05,44.77-22.64l17.24,30.34,2.46-36.08c13.63-3.2,27.8-4.91,42.36-5Z"/></svg>