<?xml version="1.0" encoding="UTF-8"?><svg id="Capa_1" xmlns="http://www.w3.org/2000/svg" viewBox="0 0 1080 1080"><defs><style>.cls-1{stroke-width:0px;}</style></defs><g id="g855"><g id="g1564"><path id="path1420" class="cls-1" d="m540,306.29c-130.73,0-236.71,105.98-236.71,236.71h0c0,130.73,105.98,236.71,236.71,236.71h0c130.73,0,236.71-105.98,236.71-236.71h0c0-130.73-105.98-236.71-236.71-236.71h0Zm-.84,37.57c.28,0,.56,0,.84,0,109.98,0,199.14,89.16,199.14,199.14,0,109.98-89.16,199.14-199.14,199.14-109.98,0-199.14-89.16-199.14-199.14,0-109.65,88.65-198.68,198.3-199.14h0Z"/><g id="g1514"><path id="path1424" class="cls-1" d="m967,543l-149.23-64.96c12.13,14.64,23.28,27.8,28.42,45.68l-138.06-3.06c-33.82,3.37-99.47,22.34-99.47,22.34,0,0,65.66,18.97,99.47,22.34l138.06-3.06c-5.14,17.88-16.28,31.04-28.42,45.68l149.23-64.96Z"/><path id="path1437" class="cls-1" d="m113,543l149.23-64.96c-12.13,14.64-23.28,27.8-28.42,45.68l138.06-3.06c33.82,3.37,99.47,22.34,99.47,22.34,0,0-65.66,18.97-99.47,22.34l-138.06-3.06c5.14,17.88,16.28,31.04,28.42,45.68l-149.23-64.96Z"/><path id="path1443" class="cls-1" d="m540,970l64.96-149.23c-14.64,12.13-27.8,23.28-45.68,28.42l3.06-138.06c-3.37-33.82-22.34-99.47-22.34-99.47,0,0-18.97,65.66-22.34,99.47l3.06,138.06c-17.88-5.14-31.04-16.28-45.68-28.42l64.96,149.23Z"/><path id="path1445" class="cls-1" d="m540,116l64.96,149.23c-14.64-12.13-27.8-23.28-45.68-28.42l3.06,138.06c-3.37,33.82-22.34,99.47-22.34,99.47,0,0-18.97-65.66-22.34-99.47l3.06-138.06c-17.88,5.14-31.04,16.28-45.68,28.42l64.96-149.23Z"/></g><g id="g1524"><path id="path1486" class="cls-1" d="m768.16,314.84c-29.29,22.65-60,42.87-92.12,61.25-18.37,32.12-38.59,62.83-61.25,92.12,29.29-22.65,60-42.87,92.12-61.25,18.37-32.12,38.59-62.83,61.25-92.12h0Z"/><path id="path1498" class="cls-1" d="m465.21,617.79c-29.29,22.65-60,42.87-92.12,61.25-18.37,32.12-38.59,62.83-61.25,92.12,29.29-22.65,60-42.87,92.12-61.25,18.37-32.12,38.59-62.83,61.25-92.12h0Z"/><path id="path1504" class="cls-1" d="m768.16,771.16c-22.65-29.29-42.87-60-61.25-92.12-32.12-18.37-62.83-38.59-92.12-61.25,22.65,29.29,42.87,60,61.25,92.12,32.12,18.37,62.83,38.59,92.12,61.25Z"/><path id="path1506" class="cls-1" d="m465.21,468.21c-22.65-29.29-42.87-60-61.25-92.12-32.12-18.37-62.83-38.59-92.12-61.25,22.65,29.29,42.87,60,61.25,92.12,32.12,18.37,62.83,38.59,92.12,61.25Z"/></g></g></g></svg>