<?xml version="1.0" encoding="UTF-8"?><svg id="Capa_1" xmlns="http://www.w3.org/2000/svg" viewBox="0 0 1080 1080"><defs><style>.cls-1{stroke-width:0px;}</style></defs><g id="g10"><path id="path2" class="cls-1" d="m778.74,476.44l91.62-51.8,18.56,59.37,87.93-235.94-200.9.72,22.16,45.77-57.3,41.44c0-1.26.09-2.61.09-3.87,0-116.85-94.68-211.62-211.62-211.62-104.77,0-191.71,76.13-208.56,176.12l-47.39-36.4,34.32-30.72-204.5-35.77,69.37,293.15,23.51-77.21,90.09,77.21.36.27c-87.12,14.23-153.6,89.91-153.6,181.08,0,101.35,82.16,183.51,183.51,183.51,67.75,0,126.94-36.76,158.74-91.44l4.86,80.54-30-5.68,93.51,124.32,95.85-133.69-30,10.72s1.62-52.88,3.42-70c33.24,44.5,86.31,73.33,146.12,73.33,100.63,0,182.25-81.62,182.25-182.25,0-93.96-71.08-171.26-162.43-181.17h0Zm-462.43,309.91c-65.22,0-118.11-52.88-118.11-118.11s52.88-118.11,118.11-118.11,118.2,52.79,118.2,118.02-52.88,118.2-118.2,118.2h0Zm211.62-310.99c-81.08,0-146.76-65.67-146.76-146.76s65.67-146.76,146.76-146.76,146.76,65.67,146.76,146.76-65.67,146.76-146.76,146.76h0Zm230.9,309.19c-70.09,0-126.94-56.85-126.94-126.94s56.94-126.94,127.03-126.94,126.85,56.85,126.85,126.94-56.85,126.94-126.94,126.94h0Z"/><path id="path4" class="cls-1" d="m390.27,609.32c-13.33-39.01-52.88-45.13-70-45.95,0,0-1.44-.09-3.96-.09h-.18c-2.52,0-3.96.09-3.96.09-17.03.81-56.58,6.94-69.91,45.95-11.44,33.33,10.18,70.9,5.86,75.95-17.57,20.36,6.31,52.61,9.55,55.22,5.86,4.77,24.59-4.95,21.62.09-2.25,3.78-4.32,32.61-4.32,32.61h5.77l2.79-10,4.95-.09.99,10.09h10.09l.99-9.64,3.33-.45.45,10.09h8.2l.54-10.36h6.67l.36,10.36h8.2l.45-10.09,3.33.45.99,9.64h10.09l.99-10.09,4.95.09,2.79,10h5.77s-2.07-28.83-4.32-32.61c-2.97-5.04,15.77,4.68,21.62-.09,3.24-2.7,27.12-34.86,9.55-55.22-4.41-5.14,17.21-42.7,5.77-75.95Zm-84.77,96.94c-2.25,2.61-5.59,5.59-10.09,8.11-10.81,6.04-21.44,5.23-25.77,4.59-.27,0-.54-.09-.81-.27-9.46-5.95-13.06-15.32-10.27-21.08.45-.9,1.98-3.78,6.94-5.59.27-.09.54-.09.9-.09,5.95.54,13.33,1.71,21.53,4.32,6.67,2.07,12.25,4.59,16.94,7.03,1.17.45,1.44,1.98.63,2.97h0Zm22.52,35.22c0,.63-.9.9-1.26.45-.99-1.26-2.43-2.79-4.32-4.14-1.98-1.44-3.87-2.34-5.41-2.88-1.44.54-3.42,1.44-5.41,2.88-1.89,1.35-3.24,2.88-4.32,4.14-.45.54-1.26.27-1.26-.45-.36-4.95-.09-14.95,7.3-22.34.99-.99,2.16-1.8,3.69-2.61,1.44.81,2.7,1.62,3.69,2.61,7.39,7.39,7.66,17.48,7.3,22.34h0Zm36.13-22.7c-.27.18-.54.27-.81.27-4.32.63-14.95,1.44-25.77-4.59-4.5-2.52-7.75-5.59-10.09-8.11-.9-.99-.63-2.52.54-3.15,4.59-2.43,10.27-4.95,16.94-7.03,8.2-2.61,15.68-3.78,21.53-4.32.27,0,.54,0,.9.09,4.95,1.8,6.49,4.77,6.94,5.59,2.79,5.95-.72,15.32-10.18,21.26h0Z"/><path id="path6" class="cls-1" d="m834.95,596.98c-13.78-40.18-54.41-46.4-71.98-47.21,0,0-1.53-.09-4.05-.09h-.18c-2.61,0-4.05.09-4.05.09-17.57.81-58.2,7.12-71.98,47.21-11.71,34.23,10.45,72.97,5.95,78.2-18.11,20.9,6.49,54.14,9.82,56.85,6.04,4.95,25.32-5.04,22.25.09-2.25,3.96-4.41,33.6-4.41,33.6h5.95l2.88-10.36,5.14-.09.99,10.36h10.36l.99-9.91,3.42-.45.45,10.36h8.47l.36-10.63h6.85l.36,10.63h8.47l.45-10.36,3.42.45.99,9.91h10.36l.99-10.36,5.14.09,2.88,10.36h5.95s-2.16-29.64-4.41-33.6c-3.06-5.14,16.22,4.77,22.25-.09,3.33-2.7,27.93-35.86,9.82-56.85-4.41-5.32,17.84-43.96,6.13-78.2h0Zm-87.3,99.82c-2.34,2.61-5.77,5.77-10.36,8.38-11.08,6.22-22.07,5.41-26.49,4.77-.27,0-.63-.09-.81-.27-9.73-6.13-13.42-15.77-10.54-21.71.45-.9,2.07-3.96,7.12-5.77.27-.09.63-.09.9-.09,6.13.54,13.78,1.8,22.16,4.41,6.85,2.16,12.61,4.68,17.39,7.21,1.26.45,1.53,1.98.63,3.06h0Zm23.15,36.22c0,.72-.9.99-1.35.45-1.08-1.35-2.52-2.88-4.41-4.32-2.07-1.53-4.05-2.43-5.59-2.97-1.53.54-3.51,1.53-5.59,2.97-1.89,1.44-3.33,2.97-4.41,4.32-.45.54-1.26.27-1.35-.45-.36-5.04-.09-15.41,7.48-22.97.99-.99,2.25-1.8,3.78-2.61,1.44.81,2.79,1.71,3.78,2.61,7.84,7.57,8.02,17.93,7.66,22.97h0Zm37.21-23.42c-.27.18-.54.27-.81.27-4.41.63-15.41,1.53-26.49-4.77-4.59-2.61-8.02-5.77-10.36-8.38-.9-.99-.63-2.61.63-3.24,4.77-2.52,10.63-5.04,17.39-7.21,8.47-2.61,16.13-3.87,22.16-4.41.27,0,.63,0,.9.09,5.04,1.89,6.67,4.86,7.12,5.77,2.79,6.13-.9,15.77-10.54,21.89h0Z"/><path id="path8" class="cls-1" d="m624.41,247.17c-17.48-50.9-69.01-58.83-91.26-59.91,0,0-1.89-.09-5.14-.09h-.18c-3.24,0-5.14.09-5.14.09-22.25,1.08-73.78,9.01-91.26,59.91-14.86,43.42,13.33,92.52,7.57,99.1-22.88,26.49,8.29,68.56,12.43,72.07,7.66,6.22,32.07-6.4,28.2.09-2.88,4.95-5.59,42.61-5.59,42.61h7.57l3.6-13.06,6.49-.09,1.26,13.15h13.15l1.26-12.52,4.41-.63.63,13.15h10.72l.54-13.51h8.65l.54,13.51h10.72l.63-13.15,4.41.63,1.26,12.52h13.15l1.26-13.15,6.49.09,3.6,13.06h7.57s-2.7-37.57-5.59-42.61c-3.87-6.58,20.54,6.13,28.2-.09,4.23-3.51,35.41-45.5,12.43-72.07-5.95-6.58,22.25-55.68,7.39-99.1h0Zm-110.63,126.58c-2.97,3.33-7.3,7.3-13.15,10.63-14.05,7.93-28.02,6.76-33.6,6.04-.36,0-.72-.18-1.08-.36-12.34-7.84-17.03-19.91-13.33-27.57.54-1.17,2.61-4.95,9.1-7.3.36-.09.72-.18,1.08-.18,7.84.72,17.48,2.25,28.11,5.59,8.65,2.7,16.04,5.95,22.07,9.1,1.53.81,1.89,2.79.81,4.05h0Zm29.37,45.95c0,.9-1.08,1.17-1.62.54-1.35-1.71-3.15-3.6-5.59-5.41-2.61-1.89-5.14-3.15-7.03-3.78-1.89.72-4.41,1.89-7.03,3.78-2.43,1.8-4.23,3.69-5.59,5.41-.54.63-1.62.36-1.62-.54-.45-6.4-.09-19.55,9.55-29.1,1.26-1.26,2.88-2.34,4.77-3.33,1.89,1.08,3.51,2.07,4.77,3.33,9.55,9.55,9.82,22.7,9.37,29.1Zm47.12-29.73c-.36.18-.63.36-1.08.36-5.68.81-19.55,1.89-33.6-6.04-5.86-3.24-10.18-7.3-13.15-10.63-1.08-1.26-.81-3.24.72-4.05,6.04-3.15,13.42-6.4,22.07-9.1,10.72-3.33,20.36-4.86,28.11-5.59.36,0,.72,0,1.08.18,6.4,2.34,8.47,6.22,9.1,7.3,3.78,7.66-.9,19.82-13.24,27.57Z"/></g></svg>