<?xml version="1.0" encoding="UTF-8"?><svg id="Capa_1" xmlns="http://www.w3.org/2000/svg" viewBox="0 0 1080 1080"><defs><style>.cls-1{stroke-width:0px;}</style></defs><g id="g6"><path id="path2" class="cls-1" d="m692.56,534.12l49.03,13.25-32.19-37.77c11.16-19.33,19.03-40.86,22.82-63.78l80.52-25.31-78.82-23.72c-2.49-26.61-10.46-51.52-22.82-73.84l30.59-32.69-42.45,14.05c-14.25-19.83-32.19-36.87-52.91-49.92l8.27-52.42-23.92,26.41c.3-10.26,2.59-28.4,14.95-45.64,27.8-38.96,79.72-35.18,82.71-34.88v-34.88h-369.7v34.88c2.99-.3,54.91-4.09,82.71,34.88,13.65,19.13,14.95,39.56,14.95,48.83v4.58l-30.89-34.08,8.97,56.6c-18.73,12.85-34.98,29-47.93,47.63l-48.13-16.04,34.98,37.47c-10.56,20.43-17.54,43.05-20.13,66.96l-85.9,25.81,87.79,27.6c3.59,20.13,10.26,39.16,19.63,56.6l-36.37,42.65,54.81-14.75c12.16,15.35,26.61,28.8,42.95,39.76l-10.66,66.77s17.44-16.44,32.88-31.89v1.99c-.7,78.42-1.3,156.75-1.99,235.17.4,6.58,1.49,33.78-17.94,56.8-18.73,22.22-49.43,32.09-79.72,25.91v39.86h369.7v-39.86c-30.29,6.18-60.99-3.69-79.72-25.91-19.43-23.02-18.34-50.22-17.94-56.8-.7-76.73-1.3-153.46-1.99-230.19,13.25,13.05,25.91,24.91,25.91,24.91l-7.37-64.27c17.24-11.16,32.49-24.91,45.34-40.76h0Zm-149.08,24.61c-76.03-.5-137.52-62.28-137.52-138.51s61.48-138.02,137.52-138.51c76.03.5,137.52,62.28,137.52,138.51s-61.48,138.02-137.52,138.51Z"/><path id="path4" class="cls-1" d="m629.09,348.47c-15.74-45.94-62.28-53.11-82.41-54.01,0,0-1.69-.1-4.68-.1h-.2c-2.99,0-4.68.1-4.68.1-20.13.9-66.67,8.07-82.31,54.01-13.45,39.16,11.96,83.51,6.88,89.39-20.73,23.92,7.47,61.88,11.26,64.97,6.88,5.68,28.9-5.78,25.41.1-2.49,4.58-4.88,38.46-4.88,38.46h6.78l3.29-11.86,5.88-.1,1,11.96h11.96l1.1-11.36,3.99-.6.6,11.86h9.67l.5-12.16h7.77l.5,12.16h9.67l.6-11.86,3.99.6,1.1,11.36h11.86l1.1-11.86,5.88.1,3.29,11.86h6.78s-2.39-33.88-5.08-38.37c-3.49-5.88,18.53,5.48,25.41-.1,3.89-3.19,31.99-41.06,11.26-64.97-5.28-6.18,20.13-50.42,6.78-89.59h0Zm-99.95,114.1c-2.69,2.99-6.58,6.58-11.86,9.57-12.66,7.17-25.21,6.18-30.29,5.38-.3,0-.7-.2-.9-.3-11.06-7.08-15.35-18.04-12.06-24.81.5-1.1,2.39-4.48,8.17-6.58.3-.1.7-.2,1-.2,7.08.6,15.74,1.99,25.41,5.08,7.77,2.39,14.45,5.38,19.93,8.27,1.4.7,1.69,2.49.6,3.59h0Zm26.61,41.55c0,.8-1,1.1-1.49.5-1.2-1.49-2.89-3.29-5.08-4.88-2.39-1.69-4.58-2.79-6.38-3.49-1.69.6-3.99,1.69-6.38,3.49-2.19,1.59-3.89,3.39-5.08,4.88-.5.6-1.49.3-1.49-.5-.4-5.78-.1-17.64,8.57-26.31,1.1-1.1,2.59-2.09,4.28-2.99,1.69.9,3.19,1.89,4.28,2.99,8.87,8.67,9.17,20.53,8.77,26.31h0Zm42.45-26.81c-.3.2-.6.3-.9.3-5.08.7-17.64,1.69-30.29-5.38-5.28-2.99-9.17-6.58-11.86-9.57-1-1.2-.7-2.99.7-3.69,5.48-2.89,12.16-5.78,19.93-8.27,9.67-2.99,18.44-4.38,25.41-5.08.3,0,.7,0,1,.2,5.78,2.09,7.67,5.58,8.17,6.58,3.19,6.88-1,17.84-12.16,24.91h0Z"/></g></svg>