<?xml version="1.0" encoding="UTF-8"?><svg id="Capa_1" xmlns="http://www.w3.org/2000/svg" viewBox="0 0 1080 1080"><defs><style>.cls-1{stroke-width:0px;}</style></defs><g id="g12"><path id="path2" class="cls-1" d="m1027.63,321.23l36.37-35.42h-392.79v24.42c17.82,0,31.44,28.82,31.44,44.85s-31.44,39.61-60.16,39.61-42.34-12.68-42.34-32.8c-.1-11.74,6.39-22.85,28.82-21.69,8.91.21,15.72,21.69,15.72,21.69l19.49-27.25-24.1-22.64v-.52c0-.63-.52-1.15-1.15-1.15h-69.38s-27.46,36.99-29.55,39.09c-2.1-2.1-29.55-39.09-29.55-39.09h-69.38c-.63,0-1.15.52-1.15,1.15v.52l-24,22.74,19.49,27.25s6.81-21.48,15.72-21.69c22.43-1.26,28.92,9.96,28.82,21.69,0,20.12-13.73,32.8-42.34,32.8s-60.16-23.48-60.16-39.61,13.73-44.85,31.44-44.85v-24.52H16l36.37,35.42h237.69v12.05l-204.15,20.65,53.66,52.3,154.68-50.83v14.67l-132.47,57.85,40.03,38.99,99.25-72.1,5.76,11.42-88.45,76.71,31.34,30.5,67.49-83.74,10.48,9.64-60.89,90.65,32.07,31.23,44.85-103.75,10.17,9.54-36.89,111.82,20.86,18.97c0,1.36,0,2.72.1,3.98.42,4.72,1.78,9.22,3.14,13.62,1.47,4.4,2.93,8.8,5.03,13-1.05-.84-2.1-1.68-3.04-2.72-.52,4.51.63,9.12,2.41,13.31,1.89,4.19,4.51,7.96,7.13,11.63.52.73,1.05,1.47,1.68,2.2v1.26c0,.31,0,.52.1.84l.31,1.89c.21.84.63,3.25.63,3.25,0,0,3.98,9.96,5.14,11.84,2.31,3.98,5.24,7.44,8.28,10.9,3.14,3.46,6.29,6.81,9.96,9.75-2.41-.63-4.82-1.47-7.13-2.62.94,4.51,3.35,8.59,6.39,12.05,3.04,3.46,6.71,6.29,10.48,9.01,3.98,2.83,8.07,5.66,12.47,7.76.21.1.31.1.52.21-2.93-.1-5.87-.52-8.7-1.47,1.57,4.3,4.61,7.86,8.07,10.58,3.56,2.83,7.55,4.93,11.63,6.92,4.3,2.1,8.7,4.09,13.31,5.45.52.1,1.05.31,1.57.42-3.14.63-6.29.94-9.64.73,2.52,3.77,6.18,6.6,10.17,8.49,4.09,1.99,8.49,3.14,12.79,4.09,4.3,1.05,8.59,1.89,13,2.2.1.1.21.1.31.21.21.31.31.52.52.84-1.47.31-2.83.63-4.3.73,2.93,3.67,7.02,6.08,11.21,7.44,4.3,1.36,8.8,1.89,13.2,2.2,4.82.31,9.54.52,14.36,0,4.51-.52,9.33-2.1,11.84-6.5,1.68-2.93,1.89-6.5,1.26-9.85,2.2.42,4.3.84,6.5,1.26,1.47,4.61,2.93,8.07,2.1,9.01-7.65,7.44,2.83,19.39,4.19,20.44,2.52,1.78,10.69-1.89,9.43,0-1.05,1.36-1.89,12.05-1.89,12.05h35.95s-.94-10.58-1.89-12.05c-1.26-1.89,6.92,1.78,9.43,0,1.36-.94,11.74-12.89,4.19-20.44-1.05-.94.42-4.4,1.78-9.01,2.2-.42,4.3-.84,6.5-1.26-.63,3.35-.42,7.02,1.15,9.85,2.52,4.3,7.34,5.87,11.84,6.5,4.82.63,9.54.42,14.36,0,4.51-.31,9.01-.73,13.2-2.2,4.19-1.36,8.28-3.77,11.21-7.44-1.47-.1-2.93-.42-4.3-.73.21-.31.31-.52.52-.84.1-.1.21-.1.31-.21,4.4-.31,8.7-1.26,13-2.2,4.4-1.05,8.8-2.2,12.79-4.09s7.76-4.72,10.17-8.49c-3.25.21-6.5-.1-9.64-.73.52-.1,1.05-.21,1.57-.42,4.61-1.36,9.01-3.35,13.31-5.45,4.09-1.99,8.07-4.09,11.63-6.92,3.46-2.83,6.5-6.39,8.07-10.58-2.93.94-5.76,1.36-8.7,1.47.21-.1.31-.1.52-.21,4.4-2.1,8.49-4.93,12.47-7.76,3.77-2.72,7.44-5.55,10.48-9.01,3.04-3.46,5.45-7.55,6.39-12.05-2.31,1.15-4.72,1.99-7.13,2.62,3.56-2.93,6.81-6.29,9.96-9.75,3.04-3.35,6.08-6.92,8.28-10.9,1.05-1.89,5.14-11.84,5.14-11.84,0,0,.42-2.41.63-3.25l.31-1.89c0-.31.1-.52.1-.84v-1.26c.52-.73,1.05-1.47,1.68-2.2,2.72-3.67,5.34-7.44,7.13-11.63,1.89-4.19,2.93-8.7,2.41-13.31-.94.94-1.99,1.89-3.04,2.72,2.1-4.19,3.67-8.59,5.03-13,1.47-4.4,2.72-9.01,3.14-13.62.1-1.36.1-2.62.1-3.98l20.86-18.97-37.2-111.72,10.17-9.54,44.85,103.75,32.07-31.23-60.99-90.65,10.48-9.64,67.49,83.74,31.34-30.5-88.45-76.71,5.87-11.53,99.25,72,40.03-38.99-132.47-57.85v-14.67l154.68,50.83,53.66-52.19-204.15-20.65v-12.05h237.69Zm-487.63,389.54c-76.82,0-138.96-62.25-138.96-138.96s62.15-138.96,138.96-138.96,138.96,62.25,138.96,138.96-62.15,138.96-138.96,138.96h0Zm192.73-157.41c-.31,1.26-.63,2.52-1.15,3.67-.73,1.26-1.68,2.41-2.72,3.46-1.57,1.57-3.04,3.14-5.03,4.19-1.89,1.05-4.19,1.47-6.18.63-1.78-.73-2.93-2.41-3.46-4.3-.31-1.47-.31-3.14.1-4.61.94-3.56,3.56-6.39,5.87-9.12.52-.63,1.15-1.36,1.68-1.99,0-.21-.1-.31-.1-.52,2.62-3.14,5.03-6.39,7.34-9.75,0,0,.52-.94,1.36-2.52,2.31,2.83,3.35,6.5,3.56,10.17.21,3.46-.52,7.13-1.26,10.69h0Zm-40.14,104.28c.31,1.78.52,3.67.1,5.55-.31,1.78-1.36,3.56-2.93,4.51-2.41,1.36-5.76.21-7.55-1.99-.84-1.05-1.36-2.31-1.78-3.67-.31-1.26-.42-2.62-.42-3.98-.1-6.6,1.99-13.2,5.87-18.34.1.1.1.31,0,.42l.52-.42c2.2,4.3,3.88,8.8,5.03,13.41.63,1.36.84,2.93,1.15,4.51h0Zm-61.94-246.38c-.1-.63,0-1.47.63-1.57.21,0,.52.1.73.21,4.51,2.41,8.7,5.34,12.68,8.59,1.47,1.26,2.93,2.62,3.98,4.4.21.31.42.73.52,1.15l-.1-.1c.21.52.42.94.52,1.47.21,1.05.21,2.2-.1,3.25l-1.89,2.31c-1.57,2.2-4.82,2.2-7.13.84-2.2-1.36-3.67-3.88-4.82-6.29-1.68-3.25-3.14-6.6-4.09-10.17-.31-1.05-.52-2.2-.63-3.25h0c-.31-.31-.31-.52-.31-.84h0Zm26.41,15.62c0-.42,1.26-.21,1.26-.21,1.26.31,2.31,1.05,3.25,1.78,1.78,1.36,3.56,2.72,5.24,4.09,2.2,1.89,4.4,3.88,5.97,6.5,1.57,2.52,2.41,5.55,1.78,8.49-.21,1.15-.63,2.2-1.47,3.04-1.47,1.47-3.67,1.47-5.66,1.57-1.99,0-4.4-.1-5.66-1.78-.52-.63-.73-1.47-.94-2.31-.31-1.36-.73-2.83-1.05-4.19-.94-4.3-1.78-8.7-2.31-13.1l-.1-.1c0-1.26-.21-2.52-.31-3.77h0Zm24.94,22.85l.73-.52c.42-.31,1.05-.21,1.47,0,4.51,1.89,7.13,6.71,9.22,11.21,1.26,2.62,2.41,5.45,2.41,8.38s-1.36,6.08-4.09,7.23c-1.26.52-2.62.52-3.98.42-1.89-.1-3.88-.63-4.93-2.2-.21-.42-.42-.73-.52-1.15-.21-.84-.21-1.68-.21-2.52,0-5.03-.1-10.06-.1-15.09l-.1-.1c.21-1.89.21-3.77.1-5.66h0Zm33.22,125.24c.1,2.2-.52,4.61-2.31,5.76-2.41,1.57-5.66.21-7.86-1.68-3.67-3.25-5.97-7.76-7.23-12.58-.73-2.83-1.05-5.76-1.15-8.7l.1-.42c4.19,1.78,8.49,3.46,12.05,6.39,2.83,2.31,5.14,5.45,6.08,8.91.21.73.31,1.57.31,2.31h0Zm-82.16-132.26c4.61-.52,13.2-2.52,13.62-2.41,2.93.63,5.34,3.14,6.18,6.08.1.63.21,1.15.21,1.78,0,.94-.21,1.89-.73,2.62-.63,1.05-1.89,1.57-3.04,1.78-2.52.52-5.14-.1-7.55-1.05-3.98-1.47-7.55-3.88-10.27-7.23-.1-.1-.21-.31-.31-.42.1-.73,1.05-1.05,1.89-1.15Zm29.97,19.18c2.1,0,4.3-.1,6.39.31,2.1.42,4.19,1.57,5.24,3.46.21.31.31.73.42,1.05.52,2.52-.73,5.45-3.14,6.6-1.15.52-2.52.63-3.77.42h0c-6.29-2.62-11.63-6.5-14.88-12.58,3.25.42,6.5.73,9.75.73Zm9.01,21.17c4.82.63,9.75,1.47,14.25,3.67,1.89.94,3.77,2.2,4.93,4.19.21.42.42.84.52,1.26.31,1.57,0,3.25-1.05,4.4-1.36,1.36-3.46,1.47-5.24,1.36-1.78-.1-3.67-.52-5.34-1.36-4.61-2.2-9.64-9.01-12.05-13.83l3.98.31Zm31.75,32.59c.31.52.52,1.05.63,1.68.42,2.1-.1,4.51-.73,6.6-.1.42-.31.84-.63,1.15s-.84.42-1.26.52c-2.1.31-4.3-.52-6.08-1.68s-3.25-2.83-4.72-4.51c-3.35-3.98-6.39-8.38-9.01-12.89,0,0-.63-.63-.84-1.26,0-.42.52-.73,1.99-.42,5.66,1.57,11.11,3.88,16.14,6.81,1.78,1.05,3.56,2.2,4.51,3.98h0Zm8.38,32.7c-.84,2.1-2.93,3.35-5.03,3.35-2.1.1-4.19-.84-5.97-2.1-2.83-2.2-4.82-5.34-6.08-8.8-.42-1.15-.73-2.31-1.05-3.46-.52-2.2-.84-4.51-1.05-6.71l.21.1c0,.21.21.42.31.52,3.35,2.62,7.02,4.82,10.69,6.81,2.2,1.15,4.4,2.2,6.08,3.98.84.84,1.47,1.99,1.89,3.14.31,1.05.31,2.2,0,3.14h0Zm-90.55-134.56l-1.36.42c-6.29,4.51-14.99,3.67-22.01.42-6.81-3.14-12.58-8.17-18.86-12.37,6.5-2.2,13.52-1.89,20.33-.73,8.38,1.47,17.29,4.93,21.9,12.26h0Zm-10.27,14.67c3.46-.94,6.92-1.99,10.38-2.93.63-.21,1.26-.42,1.99-.42,2.52-.21,4.93,1.68,5.55,4.09.1.94.1,1.78,0,2.72-.1.73-.1,1.47-.52,1.99s-1.57.94-1.57.94c-1.36.31-2.83.1-4.3-.21-2.2-.42-4.51-.84-6.6-1.68s-3.98-2.31-5.14-4.3c-.1-.1.1-.21.21-.21h0Zm94.11,182.35c-2.62-.63-4.82-2.62-6.08-5.14-.63-1.15-1.05-2.41-1.47-3.77-.31-1.26-.52-2.52-.63-3.77-.52-3.77-.73-7.55-.63-11.32,0-.84.42-1.99,1.15-1.78.31.1.52.31.63.52,3.56,3.88,6.6,8.38,10.48,12.05.94.94,1.99,1.78,2.72,2.93.42.63.73,1.36.94,2.1.31,1.57.1,3.14-.63,4.61-1.15,2.2-3.56,3.67-5.97,3.77l-.52-.21Zm20.02-85.41c-.1,1.05-.31,2.2-.84,3.14-1.57,3.04-5.66,3.67-8.91,2.93-1.15-.21-2.31-.63-3.04-1.47-.52-.52-.84-1.15-.94-1.89,0-.1-.1-.21-.1-.31-.73-4.19,1.47-8.17,3.46-12.05,0-.1-.1-.31-.1-.42.31-.73.73-1.36,1.05-2.1,1.57-3.25,2.52-6.81,3.35-10.27l.31-1.15c4.61,6.81,6.71,15.3,5.76,23.58Zm-13.31-30.08c.1,2.41,0,5.03-1.57,6.81-.94,1.05-2.31,1.68-3.67,2.1-3.25.94-7.34.31-8.91-2.72-.21-.31-.31-.73-.42-1.05-.21-1.15-.21-2.31-.1-3.46.42-4.72,2.1-9.43,3.25-14.04-.1-.1-.1-.21-.21-.31,1.05-3.88,1.78-7.76,1.26-11.74l1.57,1.78c5.66,5.87,8.38,14.25,8.8,22.64Zm-54.08-72.84c-.1-.21-.31-.42-.42-.63.1.1.21.1.31.21,0,.1,0,.21.1.42h0Zm-243.24,265.14c-.1,1.05-.42,2.2-1.26,2.83-.63.52-1.47.63-2.31.73-2.2.31-4.61.52-6.39-.63-1.26-.84-1.99-2.1-2.41-3.56-.31-1.47-.42-2.93-.31-4.4.42-6.18,2.1-12.37,4.93-17.82l.52.52c3.14,3.25,5.45,7.44,6.6,11.84.94,3.56,1.15,7.02.63,10.48Zm-27.35-23.79v-.21c-.31-1.78-.1-3.67.1-5.55,1.05-6.5,3.04-12.79,6.08-18.55l.52.42c-.1-.1-.1-.31,0-.42,2.41,3.14,4.09,6.92,5.03,10.79.52,2.31.84,4.72.73,7.13,0,2.93-.52,5.97-2.31,8.17-1.78,2.31-5.03,3.46-7.55,1.99-1.26-.73-2.2-2.2-2.62-3.77h0Zm-6.92-23.27c-2.31.52-4.82-.52-6.18-2.52-.42-.63-.73-1.36-.94-2.1-.31-1.57-.1-3.25.31-4.72.73-2.41,2.2-4.51,3.67-6.6,2.72-3.98,5.55-7.96,8.28-11.95.31.21.63.42.94.63h0c.21.63.31,1.15.42,1.78,1.15,5.24,1.15,10.79.1,16.03-.42,1.99-.94,3.98-2.1,5.76-.94,1.78-2.52,3.25-4.51,3.67h0Zm-13.1-34.79c-.31-1.78,0-3.77,1.05-5.34.73-1.15,1.78-1.99,2.72-2.93,3.88-3.67,6.92-8.07,10.48-12.05.21-.21.42-.42.63-.52.52-.1.84.31,1.05.84v.42c.1,3.77-.1,7.55-.63,11.32-.31,2.72-.94,5.55-2.2,7.96-1.26,2.41-3.46,4.51-6.08,5.14l-.52.1c-2.41,0-4.82-1.47-5.97-3.77-.31-.21-.42-.63-.52-1.15h0Zm-18.97-48.73c-.63-1.15-.94-2.41-1.15-3.67-.84-3.56-1.47-7.23-1.26-10.9.21-3.67,1.26-7.34,3.56-10.17.84,1.57,1.36,2.52,1.36,2.52,2.31,3.35,4.82,6.6,7.34,9.75v.31c.63.73,1.26,1.57,1.89,2.31,2.31,2.72,4.82,5.55,5.87,9.12.73,3.46-.42,7.65-3.56,9.01-1.99.84-4.3.42-6.18-.63s-3.46-2.62-5.03-4.19c-1.15-1.15-2.2-2.2-2.83-3.46h0Zm58.69-118c1.57-2.52,3.67-4.61,5.97-6.5,1.68-1.47,3.46-2.72,5.24-4.09,1.05-.73,2.1-1.57,3.25-1.78,0,0,1.36-.21,1.26.21-.73,7.13-2.1,14.15-3.88,21.06-.21.84-.42,1.68-.94,2.31-1.26,1.68-3.56,1.78-5.66,1.78s-4.19-.1-5.66-1.57c-.73-.63-1.05-1.57-1.36-2.52-.1-.42-.1-.73-.1-1.15l-.1.1c-.31-2.72.52-5.55,1.99-7.86h0Zm93.48-36.89c-6.29,4.19-12.05,9.33-18.97,12.47-7.02,3.25-15.72,4.09-22.01-.42l-1.15-.31c4.61-7.44,13.52-10.9,22.01-12.37,6.71-1.15,13.62-1.47,20.12.63h0Zm-49.78,30.18c-.1-.94-.1-1.89,0-2.83.42-2.62,3.04-4.72,5.66-4.51.63.1,1.36.21,1.99.42,3.46.94,6.92,1.99,10.38,2.93h.1c-1.15,2.1-3.04,3.46-5.14,4.4s-4.4,1.26-6.6,1.68c-1.47.21-2.93.52-4.3.21,0,0-1.26-.31-1.57-.94-.1-.21-.21-.42-.31-.63-.1-.1-.21-.42-.21-.73Zm-61.41,64.24c-.52-.52-.84-1.15-1.05-1.78-.21-1.26,0-2.72.63-3.88,1.05-1.89,2.93-3.25,4.93-4.19,4.4-2.2,9.33-3.04,14.25-3.67l3.98-.31c-2.41,4.82-7.55,11.63-12.05,13.83-1.68.84-3.46,1.15-5.34,1.36-1.99.1-3.98,0-5.34-1.36Zm22.22-22.95h0c-1.26.21-2.62.1-3.77-.42-1.47-.63-2.52-2.1-2.93-3.67-.31-1.36-.1-2.72.52-3.98,1.05-1.89,3.14-2.93,5.24-3.46,2.1-.42,4.3-.31,6.39-.31,3.14,0,6.29-.31,9.43-.84-3.14,6.18-8.59,10.06-14.88,12.68Zm-41.92,68.43c1.68-1.78,3.98-2.83,6.08-3.98,3.77-1.99,7.34-4.3,10.69-6.81.21-.1.42-.31.31-.52h0c-.42,3.46-.94,6.92-2.1,10.17-1.26,3.46-3.25,6.6-6.08,8.8-1.68,1.36-3.77,2.2-5.97,2.1-2.1-.1-4.3-1.36-5.03-3.35-.1-.1-.1-.31-.1-.52-.21-2.1.73-4.3,2.2-5.87h0Zm28.09-35.63c-2.62,4.61-5.66,8.91-9.01,12.89-1.36,1.68-2.83,3.35-4.72,4.51s-3.98,1.99-6.08,1.68c-.42-.1-.94-.21-1.26-.52-.31-.31-.52-.73-.63-1.15-.1-.31-.21-.63-.31-.94-.63-2.52-.84-5.14.42-7.34.94-1.78,2.72-2.93,4.4-3.88,5.03-3.04,10.48-5.34,16.14-6.81,1.15-.21,1.68-.21,1.89.1,0,.63-.84,1.47-.84,1.47h0Zm29.13-57.74c0-3.88,2.83-7.55,6.5-8.38.42-.1,9.01,1.89,13.62,2.41.63.1,1.36.31,1.68.84h0c0,.31-.21.52-.42.84-2.72,3.25-6.39,5.66-10.27,7.23-2.41.94-5.03,1.57-7.55,1.05-1.15-.21-2.41-.73-3.04-1.78-.21-.31-.31-.63-.42-1.05,0-.42-.1-.84-.1-1.15h0Zm22.32-37.41c-.63,5.03-2.62,9.75-4.93,14.15-1.26,2.41-2.62,4.82-4.82,6.29-2.2,1.36-5.55,1.36-7.13-.84l-1.89-2.31c0-.1,0-.21-.1-.31-.31-1.57.1-3.35.94-4.72-.21.1-.42.31-.52.42.1-.42.31-.73.52-1.15.94-1.68,2.52-3.04,3.98-4.4,3.88-3.35,8.17-6.18,12.68-8.59.21-.1.42-.21.73-.21.52.21.63,1.05.52,1.68h0Zm-51.56,58.79c0,1.47,0,3.04-.84,4.19-1.05,1.57-3.04,2.1-4.93,2.2-1.36.1-2.72.1-3.98-.42-2.62-1.15-4.09-4.3-4.09-7.23s1.15-5.76,2.41-8.38c2.1-4.51,4.72-9.33,9.22-11.21.52-.21,1.15-.31,1.47,0l.73.52c.1,6.81.1,13.52,0,20.33h0Zm-29.45,52.92c.31,1.36.42,2.83.21,4.3-.21.94-.52,1.99-1.15,2.72-.84.84-1.99,1.26-3.04,1.47-3.25.73-7.34.1-8.91-2.93-.52-.94-.73-2.1-.84-3.14-.94-8.17,1.15-16.77,5.87-23.58l.31,1.15c.84,3.46,1.89,7.02,3.35,10.27.31.73.63,1.36,1.05,2.1q0,.1-.1.21c1.26,2.41,2.62,4.93,3.25,7.44h0Zm-3.46,52.5c.21-4.61,2.93-8.91,6.5-11.74,3.56-2.83,7.76-4.61,11.95-6.39-.21,7.96-2.52,16.45-8.49,21.69-2.2,1.89-5.45,3.35-7.86,1.68-1.05-.73-1.68-1.78-1.99-3.04,0-.73-.1-1.47-.1-2.2Zm57.01-153.01c0-.1.1-.31.1-.42.1-.1.21-.1.31-.21-.1.21-.21.42-.42.63h0Zm-42.55,60.16h0c.73,2.83,1.57,5.55,2.31,8.38.42,1.78.84,3.56.94,5.45.21,1.68.21,3.56-.63,5.03-1.57,3.04-5.66,3.67-8.91,2.72-1.36-.42-2.72-1.05-3.67-2.1-1.57-1.78-1.68-4.4-1.57-6.81.42-8.28,3.14-16.77,8.8-22.64l1.57-1.78c-.52,3.88.21,7.76,1.15,11.74Zm-35,84.36h.31c-.21-.42,0-1.05.42-1.15,3.25,4.4,6.39,8.91,10.48,12.47.31.31.63.63,1.05.84v.42c1.57,1.36,3.14,2.62,4.51,4.09s2.41,3.25,2.93,5.14c0,.21.1.52.1.84.21,2.41-.73,5.14-2.93,6.29-3.04,1.68-6.71-.31-9.22-2.83-6.71-6.6-9.75-16.87-7.65-26.1h0Zm78.39,135.61c-.31-5.34,0-10.79.84-16.14,0-.21.1-1.78.1-2.31,2.93,2.62,5.66,5.45,7.55,8.91,1.05,2.1,1.78,4.3,2.41,6.5.52,2.2.94,4.51,1.26,6.71.31,1.68.52,3.56-.21,5.14-1.05,2.2-3.77,3.04-5.97,2.41s-3.88-2.62-4.82-4.82c-.21-.52-.42-1.05-.52-1.57-.42-1.57-.52-3.25-.63-4.82h0Zm23.89,22.85c-1.05-6.81-2.1-13.62-3.04-20.44,0-.31-.1-.73.1-.94.21-.31.63-.31.73,0l.63.21c3.98,2.1,7.55,5.03,10.06,8.8,1.26,1.89,2.2,3.98,2.72,6.08s.73,4.3.52,6.39c-.1.84-.21,1.68-.73,2.41-.73,1.05-2.1,1.57-3.35,1.78-2.41.52-5.24.52-6.71-1.47-.31-.42-.52-.94-.73-1.57-.1-.31-.21-.73-.21-1.26Zm20.65-5.76c.1-.63.31-1.36.84-1.57s1.15.1,1.68.52c3.56,2.52,7.34,5.14,9.75,8.91,1.36,2.2,2.31,4.61,3.67,6.81.63.94,1.26,1.89,1.57,2.93.21,1.36-.1,2.72-.94,3.77-.94,1.15-5.55,2.41-6.18,2.31-3.04-.84-4.4-4.3-5.45-7.23-1.36-3.77-2.62-7.65-3.98-11.42-.31-.73-.52-1.57-.73-2.31-.21-.94-.31-1.78-.21-2.72h0Zm128.17,17.71c.31-1.15,1.05-2.1,1.68-3.04,1.36-2.2,2.31-4.61,3.67-6.81,2.41-3.77,6.08-6.39,9.75-8.91.52-.31,1.15-.73,1.68-.52.31.1.52.52.73.84v.21c.21,1.89-.42,3.77-1.05,5.45-1.36,3.77-2.62,7.65-3.98,11.42-1.05,3.04-2.52,6.39-5.45,7.23-.52.21-5.24-1.15-6.18-2.31-.42-.42-.63-1.05-.84-1.57s-.21-1.26,0-1.99h0Zm26.41-11.21c-.42-4.61.94-9.22,3.46-13,2.52-3.77,6.08-6.81,10.06-8.8l.63-.21c.1-.31.63-.21.73,0v.42c-1.05,6.81-2.1,13.62-3.04,20.44-.21,1.15-.42,2.41-1.05,3.35-1.47,1.99-4.4,1.99-6.71,1.47-1.26-.31-2.62-.73-3.35-1.78-.21-.31-.31-.63-.42-1.05-.31-.31-.31-.52-.31-.84h0Zm23.37-19.39c.73-4.72,1.57-9.54,3.77-13.73,1.78-3.46,4.51-6.29,7.34-8.8,0,.63.1,1.57.1,1.68.84,5.34,1.05,10.69.84,16.14-.1,2.41-.31,4.82-1.26,7.02s-2.62,4.19-4.82,4.82-4.93-.31-5.97-2.41c-.1-.21-.1-.42-.21-.52-.21-1.36,0-2.83.21-4.19h0Zm20.02-18.65c-1.15-8.17,1.68-16.87,7.34-22.74l.52-.52c1.68,3.25,2.93,6.81,3.77,10.48.52,2.31.84,4.61.94,6.92.21,3.14-.21,6.81-2.72,8.49-1.89,1.26-4.19.94-6.39.63-.84-.1-1.68-.21-2.31-.73-.52-.42-.84-1.05-.94-1.78-.21-.31-.21-.52-.21-.73h0Zm27.56-56.38c-1.26-6.08-.94-12.37.73-18.34h0c.31-.21.63-.42.94-.63,2.72,3.98,5.55,7.96,8.28,11.95,1.47,2.1,2.93,4.19,3.67,6.6.1.21.1.31.1.52.42,2.2.21,4.51-.94,6.29-1.36,1.99-3.88,3.04-6.18,2.52-1.99-.42-3.56-1.89-4.72-3.56-.73-1.26-1.26-2.62-1.68-4.09,0-.52-.1-.94-.21-1.26h0Zm26.1-35.84c-1.26-.73-2.2-1.99-2.62-3.46-.21-.73-.21-1.57-.1-2.31.21-2.41,1.57-4.61,3.25-6.39,1.26-1.47,2.72-2.62,4.19-3.88v-.63c.31-.31.63-.63,1.05-.84,3.98-3.67,7.23-8.07,10.48-12.47.42.1.73.73.42,1.15h.31c2.1,9.33-.94,19.6-7.65,26.2-2.62,2.2-6.29,4.3-9.33,2.62Zm-16.66-131.1q-.1,0-.21-.1v-.1c.1.1.21.21.21.21h0Zm-324.25,0q-.1,0-.21.1c0-.1.1-.1.1-.21l.1.1Zm-33.96,134.77l1.15.1c2.62,3.77,5.87,7.02,9.75,9.54,1.99,1.26,4.09,2.41,5.97,3.67,0,.21.1.31.1.52,1.47.94,2.83,1.89,3.98,3.04,1.57,1.47,2.83,3.56,3.35,5.66.31,1.68.31,3.35-.42,4.93-.31.73-.84,1.47-1.68,1.78-.73.31-1.57.21-2.41,0-3.98-.84-7.96-2.41-10.9-5.34-3.04-2.93-4.72-6.92-6.08-10.9-1.26-4.09-2.31-8.49-2.83-13h0Zm8.38,36.26c.1.1-.21-.73-.21-.73.94-.63,2.1.31,2.93,1.15,2.52,2.52,5.45,4.4,8.7,5.55,2.31.84,4.82,1.26,7.13,2.2.1.21.1.42.21.52,1.36.52,2.62,1.15,3.67,2.2,1.26,1.05,2.2,2.62,2.62,4.19.31,1.57.31,3.14-.21,4.61-1.15,3.25-4.93,5.24-8.07,4.19-1.05-.42-1.99-1.05-2.93-1.78-6.6-5.66-11.63-13.52-13.83-22.11h0Zm13.2,36.16c-.84-1.89-1.47-3.88-1.26-5.87,1.89-.63,6.6,1.78,8.49,2.31,5.45,1.68,9.85,2.52,13.41,3.88.1.21.21.42.42.63,1.36.52,2.72,1.15,3.88,1.99.63.42.42.94,1.05,1.47s.84,1.36,1.05,2.2c0,.21.1.31.1.52.31,1.47.63,3.04.31,4.61-.31,1.89-1.68,3.67-3.46,3.88-.42.1-.94,0-1.36.1-9.54-.52-18.55-6.81-22.64-15.72h0Zm52.19,60.16c-5.24-1.99-13.2-5.45-14.88-11h7.23c7.23-.42,9.54-.52,16.14-.31,1.78.1,3.56.1,5.24.84,2.52,1.05,4.19,3.56,5.34,6.18.52,1.15.94,2.62.21,3.67-.52.84-1.68,1.15-2.72,1.36-5.45,1.15-11.21,1.26-16.56-.73h0Zm31.34,17.82c-1.89-.21-17.29-2.41-20.65-4.19-.73-.1-1.15-1.36-1.15-1.36,4.61-1.26,14.15-4.82,18.76-6.08,2.93-.73,5.87-1.57,8.91-1.47s6.08,1.36,7.86,3.88c1.78,2.52,1.68,6.5-.63,8.38-1.99,1.89-11.32,1.05-13.1.84h0Zm41.61,9.33c-.84,1.47-3.14,3.56-9.96,4.51-4.4.63-16.03-2.62-17.29-3.56-.21-.21-.42-.42-.52-.73-.31-.94,1.05-1.47,1.99-1.68,3.88-.63,7.55-2.31,11.21-3.98,3.14-1.47,6.39-2.93,9.54-4.51,0,0,3.98,1.36,5.03,3.46,1.15,1.99,1.05,4.51,0,6.5Zm-78.6-47.06s-1.36,1.36-2.52,1.78c-1.15.42-2.41.21-3.67,0-8.7-1.89-15.3-9.01-21.27-15.72-.52-.63-1.05-1.36-.73-2.1,2.41.1,4.72.21,7.13.31,4.19.21,8.49.31,12.58,1.47,1.47.42,2.93.94,4.3,1.57l.94.94c1.26.73,2.41,1.78,3.35,2.93.21.31.42.63.52.94l.21.21c1.15,2.52,1.05,5.66-.84,7.65h0Zm150.91,68.12c-2.31,1.57-11.63-3.77-10.48-2.1.94,1.26,2.72,13.83,2.72,13.83h-29.76s1.89-12.58,2.72-13.83c1.15-1.68-8.17,3.67-10.48,2.1-1.26-.84-10.58-11.42-3.77-18.13.94-.94-1.26-5.14-2.62-10.58-1.05-4.3-1.47-9.22.42-13.83,5.14-12.79,20.44-14.78,27.04-15.09h2.93c6.6.21,21.8,2.2,27.04,15.09.21.63.52,1.26.63,1.99,2.41,10.27-4.61,20.96-2.72,22.53,6.81,6.5-2.41,17.08-3.67,18.03h0Zm53.87-20.96c-.1.31-.31.52-.52.73-1.26.94-12.89,4.19-17.29,3.56-6.71-.94-9.12-3.04-9.96-4.51-1.05-1.99-1.15-4.51-.1-6.5,1.05-1.99,5.03-3.46,5.03-3.46,3.14,1.47,6.39,2.93,9.54,4.51,3.56,1.68,7.23,3.35,11.21,3.98,1.15.21,2.41.73,2.1,1.68Zm34.58-13.62c-3.35,1.78-18.76,3.98-20.65,4.19s-11.11,1.05-13.1-.63c-2.31-1.99-2.41-5.87-.63-8.38s4.82-3.77,7.86-3.88,5.97.63,8.91,1.47c4.61,1.26,14.15,4.82,18.76,6.08,0-.21-.42,1.05-1.15,1.15h0Zm10.69-13.62c-5.24,1.99-11.11,1.89-16.56.84-1.05-.21-2.1-.52-2.72-1.36-.73-1.05-.31-2.52.21-3.67,1.15-2.62,2.83-5.03,5.34-6.18,1.68-.73,3.46-.73,5.24-.84,6.71-.21,8.91-.1,16.14.31h7.23c-1.78,5.34-9.64,8.91-14.88,10.9h0Zm33.01-33.85c-5.97,6.81-12.58,13.83-21.27,15.72-1.15.21-2.41.42-3.67,0-1.15-.42-2.52-1.78-2.52-1.78-1.89-1.99-1.99-5.14-.84-7.76.31-.21.52-.52.84-.73.1-.1.1-.21.21-.31.73-1.05,1.68-1.89,2.72-2.62.42-.42.84-.84,1.26-1.36,1.36-.73,2.83-1.26,4.3-1.57,4.09-1.05,8.38-1.26,12.58-1.47,2.41-.1,4.72-.21,7.13-.31.31.84-.21,1.57-.73,2.2h0Zm19.18-26.3c-4.09,8.91-13.1,15.2-22.64,15.82-.42-.1-.94-.1-1.36-.1-1.78-.21-3.14-2.1-3.46-3.88-.1-.52-.1-1.05-.1-1.47,0-.1.1-.1.21-.21.1-1.15.42-2.31.63-3.35.21-.84.42-1.68,1.05-2.2s.42-.94,1.05-1.47c1.05-.73,2.31-1.36,3.56-1.89.21-.21.31-.52.42-.73,3.67-1.36,8.07-2.31,13.41-3.88,1.89-.63,6.6-2.93,8.49-2.31.21,1.89-.42,3.88-1.26,5.66h0Zm13.2-36.16c-2.2,8.59-7.23,16.45-14.04,21.9-.94.73-1.89,1.47-2.93,1.78-3.14,1.15-6.92-.94-8.07-4.19-.1-.21-.1-.52-.21-.84-.52-2.93.73-6.08,2.93-7.96,1.05-.94,2.2-1.57,3.46-1.99.1-.21.21-.42.31-.63,2.31-.84,4.82-1.36,7.13-2.2,3.25-1.15,6.29-3.04,8.7-5.55.84-.84,1.99-1.78,2.93-1.15,0,.1-.31.94-.21.84h0Zm5.45-23.16c-1.36,3.98-3.04,7.96-6.08,10.9-2.93,2.83-6.92,4.4-10.9,5.34-.84.21-1.68.31-2.41,0s-1.26-1.05-1.68-1.78c-.21-.31-.31-.73-.42-1.05-.63-3.35,1.05-7.02,3.56-9.54,1.15-1.15,2.41-1.99,3.67-2.93,0-.21.1-.42.1-.63,1.99-1.26,4.09-2.41,5.97-3.67,3.77-2.52,7.13-5.76,9.75-9.54l1.15-.1c-.31,4.4-1.36,8.8-2.72,13h0Z"/><path id="path4" class="cls-1" d="m535.18,768.31c-2.1-.84-4.51-1.89-7.44-2.62-3.46-.94-6.81-1.36-9.33-1.68h-.42c-2.2.63-2.93,1.78-3.04,2.1-1.15,2.2.42,5.66,4.51,7.86.1.1.21.1.42.1,1.89.21,6.5.52,11.21-1.78,1.89-.94,3.35-2.1,4.3-3.04.42-.31.31-.84-.21-.94Z"/><path id="path6" class="cls-1" d="m542.1,774.07c-.42-.31-.94-.63-1.57-.94-.63.31-1.15.63-1.57.94-3.14,2.72-3.35,6.39-3.14,8.28,0,.21.42.31.52.1.52-.42,1.15-.94,1.89-1.57.73-.52,1.68-.84,2.31-1.05.63.21,1.36.52,2.31,1.05.94.42,1.57,1.05,1.89,1.57.1.21.52.1.52-.1.21-1.78.1-5.55-3.14-8.28Z"/><path id="path8" class="cls-1" d="m562.43,763.8h-.42c-2.52.21-5.76.63-9.33,1.68-2.93.73-5.34,1.78-7.44,2.62-.52.21-.63.84-.21,1.15.94.94,2.41,2.1,4.3,3.04,4.72,2.31,9.33,1.99,11.21,1.78.1,0,.21,0,.42-.1,4.09-2.31,5.66-5.66,4.51-8.07-.21-.31-.84-1.36-3.04-2.1h0Z"/><path id="path10" class="cls-1" d="m603.09,524.02c-12.16-35.53-48.1-40.98-63.61-41.71,0,0-1.36-.1-3.56-.1h-.21c-2.31,0-3.56.1-3.56.1-15.51.73-51.46,6.29-63.61,41.71-10.38,30.29,9.22,64.45,5.24,69.06-15.93,18.44,5.76,47.79,8.7,50.2,5.34,4.4,22.32-4.51,19.6.1-1.99,3.46-3.88,29.66-3.88,29.66h5.24l2.52-9.12,4.51-.1.84,9.22h9.22l.84-8.8,3.04-.42.42,9.22h7.44l.31-9.43h6.08l.31,9.43h7.44l.42-9.22,3.04.42.84,8.8h9.22l.84-9.22,4.51.1,2.52,9.12h5.24s-1.89-26.2-3.88-29.66c-2.72-4.61,14.25,4.3,19.6-.1,2.93-2.41,24.63-31.75,8.7-50.2-3.67-4.61,15.93-38.78,5.66-69.06h0Zm-77.13,88.24c-2.1,2.31-5.14,5.14-9.12,7.44-9.75,5.55-19.49,4.72-23.48,4.19-.21,0-.52-.1-.73-.21-8.59-5.45-11.84-13.94-9.33-19.18.42-.84,1.78-3.46,6.29-5.14.21-.1.52-.1.73-.1,5.45.52,12.16,1.57,19.6,3.88,6.08,1.89,11.21,4.19,15.41,6.39,1.15.42,1.36,1.78.63,2.72h0Zm20.44,31.96c0,.63-.73.84-1.15.42-.94-1.15-2.2-2.52-3.88-3.77-1.78-1.36-3.56-2.2-4.93-2.62-1.36.52-3.04,1.36-4.93,2.62-1.68,1.26-2.93,2.62-3.88,3.77-.42.42-1.15.21-1.15-.42-.31-4.51-.1-13.62,6.6-20.33.84-.84,1.99-1.57,3.35-2.31,1.26.73,2.41,1.47,3.35,2.31,6.71,6.71,6.92,15.93,6.6,20.33h0Zm32.91-20.65c-.21.1-.42.21-.73.21-3.88.52-13.62,1.36-23.48-4.19-4.09-2.31-7.13-5.03-9.12-7.44-.73-.94-.52-2.31.52-2.83,4.19-2.2,9.33-4.51,15.41-6.39,7.44-2.31,14.25-3.46,19.6-3.88.21,0,.52,0,.73.1,4.51,1.68,5.97,4.3,6.29,5.14,2.62,5.34-.73,13.83-9.22,19.28h0Z"/></g></svg>