<?xml version="1.0" encoding="UTF-8"?><svg id="Capa_1" xmlns="http://www.w3.org/2000/svg" viewBox="0 0 1080 1080"><defs><style>.cls-1{stroke-width:0px;}</style></defs><g id="g18"><path id="path2" class="cls-1" d="m591.93,468.07c-8.27,0-16.63.09-25,.09h-74.99c-2.97,0-5.21.54-7.19,3.33-16.09,24.37-38.39,57.72-38.39,57.72,7.73,7.37,39.11,35.61,88.12,37.76,54.04,2.34,90-28.68,97.11-35.07-17.08-32.64-29.67-56.38-31.83-59.52-1.89-3.24-4.14-4.32-7.82-4.32Z"/><path id="path4" class="cls-1" d="m596.87,397.76c-3.96-.45-6.74-2.61-8.81-5.93-4.95-8-5.21-8.09-11.15-.27-5.21,6.83-11.6,10.7-20.32,9.35-8.63-1.35-17.17-3.15-25.63-5.13-3.6-.81-5.66-.18-6.47,3.69-.45,2.52-1.44,4.86-1.89,7.37-2.52,13.76-11.33,20.23-24.55,21.58-3.69.36-7.46.36-11.06.27-4.14-.18-8.27-.9-12.41-1.08-3.87-.18-5.3,1.98-3.51,5.21,4.77,8.63,9.53,17.17,14.48,25.63.81,1.44,2.88,2.61,4.5,2.61,16.9.18,33.9.09,50.8.09v-.09h50.35c2.25,0,4.05,0,5.04-3.06,4.95-16.81,10.25-33.54,15.38-50.26,2.61-8.54,2.61-8.45-6.38-8.9-2.79-.18-5.57-.72-8.36-1.08h0Z"/><path id="path6" class="cls-1" d="m454.18,388.05c2.16,7.55,4.86,14.93,7.73,22.21,2.61,6.83,8.09,10.52,15.2,11.6,4.68.72,9.44,1.17,14.21.9,15.56-.81,20.95-5.21,25.9-19.87,1.53-4.68,2.79-9.35,4.23-14.3,1.71.36,3.06.81,4.5.99,10.52,1.71,20.95,3.51,31.56,4.86,4.86.63,9.35-1.44,12.05-5.39,3.15-4.59,5.66-9.62,8.09-14.66.36-.81-.72-3.06-1.8-3.69-2.88-1.71-6.02-3.06-9.17-4.41-19.15-8.18-38.3-16.45-57.54-24.55-1.44-.63-4.14-.18-5.3.81-15.91,12.95-31.65,25.99-47.29,39.29-1.62,1.35-2.79,4.5-2.34,6.2h0Z"/><path id="path8" class="cls-1" d="m587.61,370.24c0,3.6-.09,7.1,0,10.7.36,7.46,6.92,11.96,17.17,11.15,2.52-.18,5.93-1.71,7.01-3.6,6.29-12.32,12.95-24.55,17.98-37.49,4.05-10.7-.9-22.93-11.51-27.24-10.07-4.14-18.16-1.35-22.21,8.18-5.3,12.14-8.9,24.82-8.45,38.3h0Z"/><path id="path10" class="cls-1" d="m462.27,359.81c1.62,3.78,3.42,4.23,6.83,1.53,8.72-6.92,17.44-13.85,25.99-20.95,1.08-.9,2.43-2.7,2.25-3.96-.81-10.7-3.06-21.13-7.73-30.93-2.07-4.5-5.84-6.83-10.79-5.57-5.93,1.53-11.96,3.24-17.62,5.66-6.74,2.79-9.26,8.36-8.45,14.21.99,14.75,4.32,27.6,9.53,40.01h0Z"/><path id="path12" class="cls-1" d="m551.19,351.72c8.09,3.6,16.18,7.28,24.28,10.88.09,0,.18.09.36.09.09,0,.18.09.27.09.18,0,.27.09.45.09h.18c.18,0,.36.09.54.09h1.62c.09,0,.18,0,.27-.09,0,0,.09,0,.18-.09.09,0,.09-.09.18-.09,0,0,.09-.09.18-.09s.09-.09.18-.09c0,0,.09-.09.18-.09l.18-.18q.09-.09.09-.18c0-.09.09-.09.18-.18,0,0,.09-.09.09-.18s.09-.18.18-.27c0-.09.09-.09.09-.18s.09-.18.09-.27,0-.09.09-.18c0-.09.09-.27.09-.36,0,0,0-.09.09-.18.09-.18.09-.36.18-.63,1.71-6.02,3.87-11.87,5.13-17.98,1.44-7.1,2.34-14.3,2.97-21.58.45-5.21-2.34-8.63-7.19-10.52-6.65-2.61-13.58-3.33-20.59-2.16-7.01,1.17-11.24,5.21-12.41,12.23-.9,5.39-1.26,10.88-1.98,17.62v8.63c0,2.79,1.08,4.68,3.87,5.84h0Z"/><path id="path14" class="cls-1" d="m510.64,334.82c8.45,3.87,17.17,7.46,25.72,11.24,3.33,1.44,4.68.18,5.21-2.97,1.71-10.61,2.34-21.22.09-31.83-2.34-11.42-6.2-14.84-17.89-14.84-14.93,0-18.07,3.15-17.98,20.32.27,3.15.63,8.63,1.62,14.03.18,1.53,1.71,3.33,3.24,4.05h0Z"/><path id="path16" class="cls-1" d="m909.14,633.51l.45-.27-94.77-183.69c9.89-5.39,16.54-15.91,16.54-27.96,0-17.62-14.3-31.92-31.92-31.92-10.97,0-20.59,5.48-26.34,13.94h-42.89c-4.86-67.44-44.33-125.34-100.79-155.91h0l.18-27.69c0-8.36,1.26-26.79,14.48-44.06,26.97-35.16,77.42-31.74,80.29-31.47v-31.47h-362.08v31.47c2.88-.27,53.32-3.69,80.29,31.47,13.22,17.26,14.48,35.7,14.48,44.06v21.85c-62.67,28.59-107.36,89.73-112.57,161.75h-37.49c-5.75-8.45-15.38-13.94-26.34-13.94-17.62,0-31.92,14.3-31.92,31.92,0,12.05,6.65,22.57,16.54,27.96l-94.95,183.69.45.27h-23.65v8.09c4.86,6.74,49,65.73,127.68,67.44,83.08,1.8,130.82-61.77,134.87-67.44v-8.09h-18.43l-95.13-184.14c4.32-2.43,8-5.84,10.79-9.89h38.3c7.73,68.78,51.61,126.69,112.21,154.29h0c0,109.87,0,208.15-.27,235.66.36,5.93,1.44,57.45-17.44,78.22-18.16,20.05-48.01,28.95-77.42,23.38v35.97h362.08v-35.97c-29.4,5.57-59.25-3.33-77.42-23.38-18.88-20.77-17.8-72.29-17.44-78.22-.63-62.22-1.08-168.14-1.71-240.88,55.12-29.22,94.32-84.34,101.6-149.08h43.61c2.79,4.05,6.47,7.46,10.79,9.89l-95.04,184.14h-18.43v8.09c4.05,5.66,51.79,69.23,134.87,67.44,78.67-1.71,122.82-60.69,127.68-67.44v-8.09h-23.74Zm-527.07,0h-202.76l93.51-181c2.52.63,5.13.99,7.82.99s5.48-.36,8-.99l93.42,181Zm155.28-56.65c-87.94,0-159.15-71.21-159.15-159.15s71.21-159.15,159.15-159.15,159.15,71.21,159.15,159.15-71.3,159.15-159.15,159.15Zm160.59,56.65l93.51-181.09c2.52.63,5.21.99,8,.99s5.3-.36,7.82-.99l93.51,181h-202.85v.09Z"/></g></svg>