<?xml version="1.0" encoding="UTF-8"?><svg id="Capa_1" xmlns="http://www.w3.org/2000/svg" viewBox="0 0 1080 1080"><defs><style>.cls-1{stroke-width:0px;}</style></defs><g id="g12"><polygon id="polygon2" class="cls-1" points="316.95 427.83 295.33 427.83 295.33 814.28 784.67 814.28 784.67 427.83 762.53 427.83 762.53 796.99 316.95 796.99 316.95 427.83"/><path id="path4" class="cls-1" d="m566.37,824.66h-49.97v55.59c-.26,11.67,4.15,39.08,9.42,58.01,4.76,16.6,9.77,19.88,15.22,28.36v1.38c.17-.17.26-.52.52-.69.09.17.17.26.26.52v-.86c5.62-8.56,10.63-11.76,15.22-28.36,5.27-18.85,9.77-46.34,9.42-58.01l-.09-55.94Z"/><path id="path6" class="cls-1" d="m516.22,490.08h49.28l-.35-124.75c29.57.35,59.22,1.3,88.79,2.85v-30.26c-33.89,5.45-67.69,8.47-101.58,8.99-.26-52.82.09-190.29,1.99-204.9l7.69.09c1.12,0,2.25-.95,2.25-2.16v-9.94c0-1.12-.86-1.99-1.9-2.16-2.42-.17-4.84-.35-7.26-.61-.09-1.12-.86-6.05-5.27-9.77-2.85-2.42-5.97-3.03-7.69-3.2v-.26c-1.38.09-5.01.52-8.39,3.29-4.41,3.54-5.19,8.56-5.27,9.77-2.42.17-4.84.35-7.26.61-1.04.09-1.9,1.04-1.9,2.16v9.77c0,1.12.95,2.16,2.25,2.16l7.69-.09c1.99,14.7,2.33,152.33,2.07,205.24-34.24-.52-68.39-3.46-102.62-8.99v30.26c29.14-1.56,58.27-2.51,87.41-2.85l.09,124.75Z"/><path id="path8" class="cls-1" d="m533.52,496.99h-25.94v-83.95c-64.06,3.98-121.12,1.99-175.5-2.51v371.76c67.09,2.94,134.26,4.5,201.44,4.58v-289.88Z"/><path id="path10" class="cls-1" d="m572.42,496.99h-25.94v289.88c67.09-.09,134.26-1.64,201.44-4.58v-371.76c-50.23,6.74-110.4,6.31-175.5,2.25v84.21Z"/></g></svg>