<?xml version="1.0" encoding="UTF-8"?><svg id="Capa_1" xmlns="http://www.w3.org/2000/svg" viewBox="0 0 1080 1080"><defs><style>.cls-1{stroke-width:0px;}</style></defs><path class="cls-1" d="m559,118.23c11.25,1.87,21.94,3.35,32.51,5.44,30.75,6.1,61.04,13.83,90.1,25.9,4.38,1.82,6.17,3.94,6.13,8.98-.26,35.54-.15,71.08-.09,106.62,0,3.29-.28,5.82-3.49,7.99-31.38,21.17-62.68,42.47-93.86,63.94-3.52,2.42-6.17,2.68-9.48.19-6.92-5.23-14.05-10.19-20.83-15.59-1.38-1.1-2.27-3.65-2.26-5.53.16-63.58.44-127.15.74-190.73,0-2.12.29-4.23.51-7.22Z"/><path class="cls-1" d="m521.96,118c0,3.13,0,4.87,0,6.62,0,63.33-.04,126.67.08,190,0,4.16-1.02,6.94-4.55,9.33-5.71,3.86-11.25,8.01-16.49,12.47-3.78,3.21-6.79,3.26-10.9.46-20.34-13.88-40.87-27.47-61.29-41.24-10.62-7.16-21.04-14.61-31.73-21.65-3.49-2.3-4.98-4.79-4.96-9.08.15-35.71.12-71.42-.04-107.13-.02-3.94,1.17-5.89,4.86-7.49,27.79-12.05,56.97-19.32,86.46-25.48,12.49-2.61,25.14-4.46,38.57-6.81Z"/><path class="cls-1" d="m641.7,896.44c0-2.92,0-5.83,0-8.75,0-71.83-.03-143.67.1-215.5,0-4.55-1.27-7.54-4.93-10.4-11.34-8.85-22.21-18.32-33.58-27.12-2.68-2.08-6.61-3.4-10.02-3.52-11.6-.43-23.22-.16-35.6-.16,0-13.57-.09-26.72.13-39.87.02-1.36,1.63-3.05,2.93-3.99,10.37-7.52,20.76-15.03,31.38-22.18,1.55-1.04,5.06-1.11,6.53-.05,28.46,20.52,56.79,41.22,84.96,62.13,1.72,1.28,2.68,4.62,2.69,7.01.17,34.14.12,68.28.12,102.42,0,35.92.09,71.83-.16,107.75-.02,3.15-1.48,6.94-3.56,9.3-11.72,13.33-23.83,26.3-35.81,39.41-1.3,1.42-2.56,2.88-3.84,4.31-.45-.26-.89-.52-1.34-.78Z"/><path class="cls-1" d="m521.8,631.09c-12.49,0-24.47-.17-36.45.13-2.69.07-5.83,1.11-7.93,2.76-11.61,9.15-22.89,18.72-34.46,27.92-3.26,2.59-4.39,5.39-4.41,9.53-.27,72.02-.7,144.03-1.09,216.05-.01,2.73,0,5.46,0,9.06-1.43-.92-2.1-1.18-2.54-1.66-13.06-14.24-26.16-28.45-39.06-42.83-1.41-1.57-2.42-4.13-2.42-6.24-.13-70.83-.14-141.67.02-212.5,0-2.14,1.36-5.06,3.05-6.3,26.66-19.62,53.43-39.1,80.29-58.45,8.23-5.93,8.43-5.74,16.96.24,8.07,5.66,16.17,11.27,24.01,17.23,1.78,1.35,3.38,3.95,3.61,6.13.58,5.47.37,11.03.41,16.55.04,7.08.01,14.17.01,22.37Z"/><path class="cls-1" d="m603.62,480.84c9.33,6.83,18.19,13.28,27,19.79q13.2,9.76,26.78.67c30.79-20.63,61.65-41.15,92.29-62.02,4.85-3.3,7.87-2.89,12.2.77,5.58,4.7,7.78,9.75,7.54,17.21-.62,19.13-.37,38.3-.13,57.44.05,4.27-1.41,6.71-4.79,9.16-26.68,19.3-53.26,38.74-79.73,58.32-3.3,2.44-5.4,2.41-8.66-.07-23.39-17.78-46.97-35.31-70.4-53.04-1.51-1.14-3.19-3.28-3.22-4.98-.2-13.03-.04-26.06.09-39.09.01-1.1.53-2.2,1.04-4.16Z"/><path class="cls-1" d="m477.48,480.2c0,11.92-.6,22.72.18,33.42.68,9.35-2.14,15.33-10.11,20.89-21.47,14.99-42.24,31.01-63.11,46.87-3.3,2.51-5.56,2.53-8.75.22-27.29-19.75-54.69-39.36-81.92-59.19-1.56-1.13-2.77-3.84-2.8-5.82-.28-21.7-.31-43.4-.37-65.1-.01-3.97,9.31-15.15,13.16-15.06,2.28.05,4.69,1.74,6.76,3.12,27.84,18.62,55.62,37.32,83.42,55.98,5.4,3.62,11.01,6.95,16.22,10.82,4.08,3.04,7.44,3.14,11.55,0,10.18-7.76,20.61-15.21,30.94-22.77,1.22-.89,2.47-1.73,4.82-3.37Z"/><path class="cls-1" d="m355.96,818.9c-15.44-14.88-29.66-28.52-43.74-42.31-1.08-1.06-1.64-3.14-1.64-4.75-.04-70.49,0-140.98.07-211.47,0-.35.27-.7.72-1.76,6.1,4.47,12.07,8.82,18.02,13.2,7.3,5.38,14.77,10.56,21.78,16.3,2.12,1.74,3.53,4.89,4.24,7.66.81,3.19.63,6.66.63,10.01,0,69.31-.04,138.61-.08,207.92,0,1.13,0,2.26,0,5.19Z"/><path class="cls-1" d="m768.85,560.66c0,4.31,0,8.62,0,12.92.12,65.74.27,131.47.26,197.21,0,2.27-.95,5.15-2.51,6.7-13.41,13.37-27.06,26.5-40.66,39.68-.5.49-1.16.81-2.64,1.84,0-2.76,0-4.64,0-6.53,0-71.46.05-142.92-.1-214.38-.01-4.68,1.47-7.51,5.22-10.15,13.03-9.16,25.82-18.65,38.7-28.02.57.24,1.15.48,1.72.72Z"/><path class="cls-1" d="m560.82,967.62c-.85-73.48-1.69-145.31-2.53-217.95,1.84.84,3.07,1.2,4.07,1.9,13.69,9.66,27.45,19.24,40.92,29.19,1.95,1.44,3.57,4.73,3.6,7.19.67,45.2,1.03,90.4,1.6,135.6.05,3.69-.97,6.14-3.91,8.5-12.16,9.74-24.08,19.78-36.11,29.68-2.15,1.77-4.41,3.4-7.65,5.88Z"/><path class="cls-1" d="m519.03,968c-16.09-13.31-30.86-25.43-45.45-37.77-1.37-1.16-2.29-3.68-2.27-5.56.53-45.99,1.19-91.98,1.95-137.96.03-1.7.86-4.06,2.13-4.98,14.53-10.52,29.21-20.83,43.88-31.16.43-.3,1.07-.29,2.34-.6-.86,72.38-1.71,144.44-2.58,218.03Z"/><path class="cls-1" d="m476.27,404.9c-15.01-10.18-28.54-19.33-42.04-28.51-11.57-7.87-23.24-15.63-34.62-23.78-3.79-2.72-6.38-2.86-10.3-.03-15.99,11.54-32.01,23.07-48.56,33.75-6.97,4.5-15.24,7.01-23.01,10.22-4.59,1.9-6.78-.34-6.83-4.91-.17-14.01-.34-28.03-.23-42.04.01-1.6,1.45-3.68,2.83-4.71,19.6-14.62,39.35-29.04,58.95-43.65,4.03-3,7.09-3.01,11.34.1,29.15,21.28,58.48,42.31,87.86,63.26,3.43,2.45,4.82,5.06,4.69,9.28-.3,9.82-.09,19.66-.09,31.03Z"/><path class="cls-1" d="m603.53,404.72c0-11.94-.1-22.59.1-33.23.03-1.68.98-3.95,2.27-4.89,32.04-23.24,64.19-46.33,96.6-69.66,21.44,15.97,42.76,31.84,64.02,47.79.95.71,1.82,2.23,1.83,3.38.12,15.37.09,30.74.05,46.11,0,.92-.46,1.84-1.11,4.31-7.98-3.08-16.27-4.88-23-9.15-17.44-11.08-34.45-22.9-51.09-35.17-5.77-4.25-9.69-3.7-15.01-.03-22.37,15.44-44.93,30.6-67.43,45.86-2.06,1.4-4.19,2.71-7.25,4.69Z"/><path class="cls-1" d="m539.97,564.13c-10.99-8.79-21.35-16.98-31.53-25.37-1.3-1.08-2.41-3.25-2.42-4.92-.13-34.55-.1-69.11-.07-103.66,0-.94.37-1.88.61-3h63.44c.09,2.02.26,3.91.26,5.8.01,32.78-.06,65.55.09,98.33.02,3.91-1.13,6.58-4.06,9.13-8.76,7.62-17.28,15.52-26.31,23.69Z"/><path class="cls-1" d="m603.38,736.29c-7.22-5.85-14.25-11.84-21.63-17.36-2.32-1.73-5.56-3.02-8.42-3.12-22.44-.83-44.9-1.45-67.35-1.79-3.05-.05-6.56,1.17-9.1,2.92-7.92,5.45-15.48,11.44-24,17.84-.2-2.53-.4-4.15-.44-5.78-.38-14.97-.8-29.94-.96-44.92-.02-1.57,1.15-3.67,2.44-4.66,5.31-4.07,10.79-7.96,16.42-11.57,1.85-1.19,4.36-1.91,6.57-1.92,26.21-.13,52.42-.13,78.62,0,2.2.01,4.7.77,6.53,1.98,6.24,4.12,12.31,8.53,18.31,13,1.29.96,2.88,2.63,2.9,4,.2,16.89.13,33.78.13,51.4Z"/><path class="cls-1" d="m768.67,306.8c-4.07-2.66-7.47-4.84-10.83-7.08-11.47-7.64-23-15.2-34.32-23.06-1.78-1.23-3.69-3.84-3.7-5.83-.23-32.34-.18-64.68-.16-97.02,0-.54.24-1.08.56-2.46,5.67,4.12,11.02,7.96,16.31,11.87,9.83,7.25,19.69,14.45,29.36,21.91,1.6,1.23,3.19,3.7,3.2,5.6.14,30.96.03,61.92-.03,92.88,0,.72-.17,1.43-.38,3.19Z"/><path class="cls-1" d="m359.67,171.52c.16,2.48.36,4.17.36,5.86.01,30.57-.08,61.14.09,91.72.02,4.04-1.29,6.41-4.61,8.57-14.65,9.55-29.15,19.34-44.39,29.51-.24-2.3-.54-3.78-.54-5.25.03-29.78,0-59.57.31-89.35.03-2.62,1.69-6.08,3.73-7.67,13.23-10.26,26.77-20.12,40.22-30.09,1.37-1.02,2.82-1.93,4.83-3.3Z"/><path class="cls-1" d="m470.27,441.33c-11.03,10.42-21.67,20.32-32.12,30.42-3.16,3.05-5.31.93-7.64-.77-20.87-15.17-41.71-30.38-62.56-45.57-4.1-2.98-8.19-5.98-12.85-9.38,12.34-9.62,24.09-18.79,36.35-28.35,26.08,17.75,52.19,35.52,78.82,53.66Z"/><path class="cls-1" d="m609.66,441.67c26.45-18.15,52.39-35.95,78.79-54.05,11.94,9.23,23.88,18.46,36.43,28.16-6.22,4.7-11.78,9.05-17.48,13.19-19.13,13.88-38.38,27.6-57.44,41.58-3.59,2.63-6.14,3.08-9.59-.23-9.93-9.55-20.13-18.82-30.7-28.64Z"/><path class="cls-1" d="m505.71,395.8c.47-8.74.69-16.8,1.48-24.82.2-2.02,1.83-4.33,3.48-5.69,7.61-6.24,15.36-12.33,23.31-18.14,1.49-1.09,4.78-1.64,6.07-.74,9.73,6.68,19.18,13.76,28.64,20.82.8.6,1.48,1.94,1.5,2.94.12,8.42.07,16.85.07,25.62h-64.55Z"/></svg>