<?xml version="1.0" encoding="UTF-8"?><svg id="Capa_1" xmlns="http://www.w3.org/2000/svg" viewBox="0 0 1080 1080"><defs><style>.cls-1{stroke-width:0px;}</style></defs><g id="g8"><circle id="circle2" class="cls-1" cx="540" cy="421.28" r="84.8"/><circle id="circle4" class="cls-1" cx="540" cy="828.32" r="50.88"/><path id="path6" class="cls-1" d="m634.81,116h-189.61l-185.03,308.16,141.62,539.84h276.45l141.62-539.84-185.03-308.16Zm22.73,322.24c-7.46,52.07-48.51,93.11-100.57,100.57v206.4c33.24,6.78,59.36,32.9,66.14,66.14h35.62v33.92h-35.62c-7.8,38.67-42.06,67.84-83.1,67.84s-75.3-29.17-83.1-67.84h-35.62v-33.92h35.62c6.78-33.24,32.9-59.36,66.14-66.14v-206.4c-52.07-7.46-93.11-48.51-100.57-100.57h-102.95v-33.92h102.95c2.88-20.18,10.85-38.67,22.39-54.1l-71.57-71.57,23.91-23.91,71.57,71.57c19.84-14.92,44.44-23.57,71.06-23.57s51.22,8.82,71.06,23.57l71.57-71.57,23.91,23.91-71.57,71.57c11.7,15.6,19.5,34.09,22.39,54.1h103.29v33.92h-102.95Z"/></g></svg>