<?xml version="1.0" encoding="UTF-8"?><svg id="Capa_1" xmlns="http://www.w3.org/2000/svg" viewBox="0 0 1080 1080"><defs><style>.cls-1{stroke-width:0px;}</style></defs><g id="g8"><path id="path2" class="cls-1" d="m633.05,464.64c-16.97-49.4-66.9-57.02-88.48-58.09,0,0-1.83-.11-4.94-.11h-.21c-3.22,0-4.94.11-4.94.11-21.58.97-71.52,8.7-88.48,58.09-14.39,42.09,12.89,89.66,7.3,96.11-22.23,25.66,7.95,66.47,12.13,69.8,7.41,6.12,31.03-6.23,27.28.11-2.79,4.83-5.48,41.23-5.48,41.23h7.3l3.54-12.67,6.23-.11,1.18,12.78h12.78l1.18-12.13,4.3-.64.64,12.78h10.42l.43-13.1h8.38l.43,13.1h10.42l.64-12.78,4.3.64,1.18,12.13h12.78l1.18-12.78,6.23.11,3.54,12.67h7.3s-2.58-36.4-5.48-41.23c-3.76-6.34,19.87,5.91,27.28-.11,4.19-3.33,34.36-44.13,12.13-69.8-5.37-6.44,21.91-54.01,7.52-96.11h0Zm-107.28,122.63c-2.9,3.22-7.09,7.09-12.78,10.31-13.64,7.62-27.17,6.55-32.54,5.8-.32,0-.75-.11-.97-.32-11.92-7.52-16.43-19.33-12.89-26.63.54-1.07,2.58-4.83,8.81-7.09.32-.11.75-.11,1.07-.11,7.52.64,16.97,2.15,27.28,5.48,8.38,2.58,15.57,5.8,21.37,8.81,1.4.64,1.72,2.58.64,3.76h0Zm28.46,44.56c0,.86-1.07,1.18-1.61.54-1.29-1.61-3.01-3.54-5.48-5.26-2.58-1.83-4.94-3.01-6.87-3.65-1.83.64-4.3,1.83-6.87,3.65-2.36,1.72-4.19,3.65-5.48,5.26-.54.64-1.61.32-1.61-.54-.43-6.23-.11-19.01,9.23-28.24,1.18-1.18,2.79-2.26,4.62-3.22,1.83.97,3.44,2.04,4.62,3.22,9.66,9.34,9.88,22.12,9.45,28.24h0Zm45.74-28.78c-.32.21-.64.32-.97.32-5.48.75-18.9,1.83-32.54-5.8-5.69-3.22-9.88-6.98-12.78-10.31-1.07-1.29-.75-3.22.75-3.97,5.91-3.01,12.99-6.23,21.37-8.81,10.42-3.22,19.76-4.72,27.28-5.48.32,0,.75,0,1.07.11,6.23,2.26,8.27,6.01,8.81,7.09,3.44,7.52-1.07,19.33-12.99,26.85h0Z"/><path id="path4" class="cls-1" d="m434.93,495.89c-8.81-2.15-17.18-8.27-26.95-12.35-4.51-3.54-16.54-12.89-22.77-34.15-6.44-22.01,13.21-46.17,15.46-50.47,9.56-2.58,12.35-2.04,21.91-4.72v-34.36H9.15c8.38,17.29,16.97,33.72,25.66,49.5l254.71-1.07c.43,2.36.97,4.83,1.5,7.41l-241.93,18.68c16.43,27.81,33.07,52.94,49.61,75.81l195.44-60.67c1.07,3.76,2.15,7.52,3.44,11.38l-174.07,82.04c15.79,19.87,31.14,37.58,45.85,53.48l135.62-98.47c1.18,2.79,2.36,5.48,3.54,8.27l-122.09,108.24c15.68,16,30.17,29.64,43.7,41.23l93.96-118.34c2.36,3.87,4.83,7.62,7.41,11.28l-84.19,121.13c22.77,17.83,42.09,29.32,58.2,36.72,14.28-42.52,30.5-93.32,44.67-134.87,3.33,3.11,4.3,4.72,7.52,7.09l-41.45,132.3c27.49,10.52,44.03,8.27,51.22,6.87,2.26-.43,4.51-.97,6.66-1.5,5.91-39.95,10.31-84.3,16.32-124.03,2.9.32,5.58.43,8.05.43l-4.08,112.11c8.7-3.54,19.01-9.13,28.99-18.26,2.36-2.15,4.51-4.3,6.44-6.44v-110.71c.21-1.61,3.01,1.18,8.48-3.33,3.22-2.68,6.77-14.6,6.77-21.37-4.62-13.42-8.05-16-9.56-34.68-.11.11-.64-9.45-.64-14.17h0Z"/><path id="path6" class="cls-1" d="m1045.18,410.41c8.7-15.68,17.29-32.21,25.66-49.5h-413.42v34.36c9.56,2.58,12.35,2.04,21.91,4.72,2.36,4.3,21.91,28.46,15.46,50.47-6.23,21.26-18.26,30.71-22.77,34.15-9.77,4.19-18.15,10.2-26.95,12.35,0,4.72-.54,14.28-.54,14.28-1.5,18.68-4.94,21.15-9.56,34.68,0,6.77,3.54,18.68,6.77,21.37,5.48,4.51,8.16,1.72,8.48,3.33v110.71c1.93,2.15,4.08,4.3,6.44,6.44,9.88,9.13,20.3,14.71,28.99,18.26l-4.3-112.11c2.47,0,5.15-.11,8.05-.43,6.01,39.62,10.42,84.08,16.32,124.03,2.15.54,4.4,1.07,6.66,1.5,7.19,1.29,23.73,3.54,51.22-6.87l-41.34-132.3c3.11-2.36,4.19-3.97,7.52-7.09,14.17,41.66,30.28,92.35,44.67,134.87,16.11-7.41,35.54-19.01,58.2-36.72l-84.19-121.13c2.58-3.65,5.05-7.41,7.41-11.28l93.96,118.34c13.53-11.6,28.03-25.23,43.7-41.23l-122.2-108.35c1.18-2.68,2.36-5.48,3.54-8.27l135.62,98.47c14.71-15.89,30.07-33.72,45.85-53.48l-174.07-82.04c1.18-3.87,2.36-7.62,3.44-11.38l195.44,60.67c16.54-22.87,33.29-48,49.61-75.81l-241.83-18.68c.54-2.58,1.07-5.05,1.5-7.41l254.71,1.07Z"/></g></svg>