<?xml version="1.0" encoding="UTF-8"?><svg id="Capa_1" xmlns="http://www.w3.org/2000/svg" viewBox="0 0 1080 1080"><defs><style>.cls-1{stroke-width:0px;}</style></defs><g id="g8"><path id="path2" class="cls-1" d="m540,123.5c-230.07,0-416.5,186.43-416.5,416.5s186.43,416.5,416.5,416.5,416.5-186.43,416.5-416.5S770.07,123.5,540,123.5Zm0,808.01c-216.25,0-391.51-175.26-391.51-391.51s175.26-391.51,391.51-391.51,391.51,175.26,391.51,391.51-175.26,391.51-391.51,391.51Z"/><path id="path4" class="cls-1" d="m540,206.8c-184.09,0-333.2,149.11-333.2,333.2,0,143.61,90.8,266.06,218.25,312.87-21.82-26.16-34.99-59.64-34.99-96.29,0-82.8,67.14-149.94,149.94-149.94s149.94,67.14,149.94,149.94c0,36.65-13.16,70.31-34.99,96.29,127.45-46.81,218.25-169.27,218.25-312.87,0-184.09-149.11-333.2-333.2-333.2Z"/><circle id="circle6" class="cls-1" cx="540" cy="756.58" r="116.62"/></g></svg>