<?xml version="1.0" encoding="UTF-8"?><svg id="Capa_1" xmlns="http://www.w3.org/2000/svg" viewBox="0 0 1080 1080"><defs><style>.cls-1{stroke-width:0px;}</style></defs><g id="g6"><path id="path2" class="cls-1" d="m689.64,434.74c-33.96-29.58-61.4-59.25-95.44-88.84l-145.01,16.81-4.72,24.35c-1.97.43-27.78,8.06-45.79,30.87-17.75,22.47,13.81,66.03,50.51,79.49-5.57-15.61-2.74-32.24,7.46-43.05,8.15-8.49,18.27-10.63,22.47-11.23,29.84-1.97,52.05-1.37,62.68,17.75,15.26,27.61,1.97,89.95-56.08,115.08,55.4,20.07,116.19,9,157.1-28.98,46.56-43.13,46.91-102.13,46.82-112.25Zm-207.69-35.5l-17.75-14.06,36.44-7.46-18.69,21.52Z"/><path id="path4" class="cls-1" d="m657.39,905.17c-21.61-21.61-20.32-47.16-19.89-53.34h0v-223.9c28.56-15.01,53.25-36.44,72.03-62.34l29.67,31.9h-49.56l215.15,145.86-97.33-117.82h43.99l-109.68-127.08c4.8-17.66,7.46-36.19,7.46-55.31,0-27.7-5.4-54.2-15.26-78.38l115.51-133.94h-43.99l97.41-117.82-215.15,145.86h49.56l-41.59,44.76c-16.46-18.35-36.19-33.7-58.23-45.28v-30.36h0c-.43-6.17-1.63-31.73,19.89-53.34,20.84-20.84,54.88-30.1,88.5-24.35v-37.3h-410.49v37.39c33.61-5.83,67.74,3.43,88.5,24.35,21.61,21.61,20.32,47.16,19.89,53.34h0v30.36c-22.72,11.92-43.05,27.96-59.85,47.08l-43.3-46.56h49.56L175.21,113l97.24,117.82h-43.9l117.82,136.52c-9.26,23.5-14.23,49.05-14.23,75.8,0,19.29,2.66,37.99,7.55,55.74l-109.25,126.66h43.99l-97.33,117.82,215.06-145.86h-49.56l29.41-31.64c18.78,25.81,43.39,47.16,71.86,62.08v223.98h0c.43,6.17,1.63,31.73-19.89,53.34-20.84,20.84-54.88,30.1-88.5,24.35v37.39h410.49v-37.39c-33.61,5.66-67.74-3.6-88.58-24.44h0Zm-116.71-297.39c-90.9,0-164.64-73.66-164.64-164.64s73.66-164.64,164.64-164.64,164.64,73.66,164.64,164.64-73.75,164.64-164.64,164.64Z"/></g></svg>