<?xml version="1.0" encoding="UTF-8"?><svg id="Capa_1" xmlns="http://www.w3.org/2000/svg" viewBox="0 0 1080 1080"><defs><style>.cls-1{stroke-width:0px;}</style></defs><path class="cls-1" d="m890.52,672.8l-91.81-78.68-.37-.28c88.78-14.51,156.53-91.62,156.53-184.53,0-103.28-83.73-187.01-187.01-187.01-69.04,0-129.36,37.46-161.76,93.18l-4.96-82.08,30.57,5.78-95.3-126.69-97.68,136.24,30.57-10.93s-1.65,53.89-3.49,71.33c-33.88-45.35-87.95-74.73-148.91-74.73-102.55,0-185.73,83.18-185.73,185.73,0,95.75,72.44,174.53,165.53,184.62l-93.37,52.79-18.91-60.5-89.6,240.44,204.73-.73-22.58-46.64,58.39-42.23c0,1.29-.09,2.66-.09,3.95,0,119.07,96.49,215.66,215.65,215.66,106.77,0,195.37-77.58,212.53-179.48l48.29,37.09-34.98,31.31,208.4,36.45-70.69-298.74-23.96,78.68Zm-122.56-383.85c66.47,0,120.36,53.89,120.36,120.36s-53.89,120.36-120.36,120.36-120.45-53.8-120.45-120.27,53.89-120.45,120.45-120.45ZM187.64,420.15c0-71.43,57.93-129.36,129.36-129.36s129.36,57.93,129.36,129.36-58.02,129.36-129.45,129.36-129.26-57.93-129.26-129.36Zm364.66,484.83c-82.63,0-149.55-66.93-149.55-149.55s66.93-149.55,149.55-149.55,149.55,66.93,149.55,149.55-66.93,149.55-149.55,149.55Z"/></svg>